STARTFONT 2.3
FONT -FontForge-STIX Two Math-Book-R-Normal--20-200-72-72-P-137-ISO10646-1
SIZE 20 72 72  4
FONTBOUNDINGBOX 82 87 -20 -34
COMMENT "Generated by fontforge, http://fontforge.sourceforge.net"
COMMENT "Copyright 2001-2021 The STIX Fonts Project Authors (https://github.com/stipub/stixfonts)"
STARTPROPERTIES 41
FOUNDRY "FontForge"
FAMILY_NAME "STIX Two Math"
WEIGHT_NAME "Book"
SLANT "R"
SETWIDTH_NAME "Normal"
ADD_STYLE_NAME ""
PIXEL_SIZE 20
POINT_SIZE 200
RESOLUTION_X 72
RESOLUTION_Y 72
SPACING "P"
AVERAGE_WIDTH 137
CHARSET_REGISTRY "ISO10646"
CHARSET_ENCODING "1"
FONTNAME_REGISTRY ""
CHARSET_COLLECTIONS "ASCII ISOLatin1Encoding ISO8859-2 ISO8859-5 ISO8859-7 ISO8859-9 ISO8859-4 ISO10646-1"
BITS_PER_PIXEL 4
FONT_NAME "STIXTwoMath-Regular"
FACE_NAME "STIX Two Math Regular"
COPYRIGHT "Copyright 2001-2021 The STIX Fonts Project Authors (https://github.com/stipub/stixfonts)"
FONT_VERSION "2.12 b168a"
FONT_ASCENT 15
FONT_DESCENT 5
UNDERLINE_POSITION -2
UNDERLINE_THICKNESS 2
X_HEIGHT 9
CAP_HEIGHT 13
RAW_ASCENT 762
RAW_DESCENT 238
NORM_SPACE 5
RELATIVE_WEIGHT 40
RELATIVE_SETWIDTH 50
SUPERSCRIPT_X 0
SUPERSCRIPT_Y 10
SUPERSCRIPT_SIZE 10
SUBSCRIPT_X 0
SUBSCRIPT_Y 5
SUBSCRIPT_SIZE 10
FIGURE_WIDTH 10
AVG_LOWERCASE_WIDTH 99
AVG_UPPERCASE_WIDTH 135
ENDPROPERTIES
CHARS 6611
STARTCHAR space
ENCODING 32
SWIDTH 235 0
DWIDTH 5 0
BBX 1 1 0 0
BITMAP
00
ENDCHAR
STARTCHAR exclam
ENCODING 33
SWIDTH 283 0
DWIDTH 6 0
BBX 3 14 1 0
BITMAP
1D90
3FD0
3FC0
2FB0
0FA0
0E90
0D70
0C60
0B50
0A40
0520
0110
3FD0
3EB0
ENDCHAR
STARTCHAR quotedbl
ENCODING 34
SWIDTH 334 0
DWIDTH 7 0
BBX 5 4 1 10
BITMAP
EB1FA0
E70F60
E30F20
D00D00
ENDCHAR
STARTCHAR numbersign
ENCODING 35
SWIDTH 702 0
DWIDTH 14 0
BBX 12 14 1 0
BITMAP
0000F3004E00
0002F0006B00
0005D0008900
0007A000B600
4CCEDCCCFDCB
000C5001F200
000E4002F000
000F2004D000
002F0006C000
BCDFCCCDECC5
007A000A7000
0098000D5000
00C5000F3000
00E3002F0000
ENDCHAR
STARTCHAR dollar
ENCODING 36
SWIDTH 495 0
DWIDTH 10 0
BBX 10 16 0 -2
BITMAP
008DEEC710
0AC2854E90
2F608506A0
3F80850190
1EE5850000
06FFD60000
005EFF8100
0001BFFC20
000087CFB0
1100851DF2
47008508F3
4C008509F1
4F80853E80
06CDEDA500
0000850000
0000850000
ENDCHAR
STARTCHAR percent
ENCODING 37
SWIDTH 692 0
DWIDTH 14 0
BBX 13 14 0 0
BITMAP
005DCA3004C600
05E308BCAAD000
0C9005501E4000
0F5006408A0000
1F500A12E20000
0D80670A800000
03CB703E100000
000000B618CB20
000005C0BC11A0
00000D34F300A0
00006A07E000A0
0001D208D00290
00087005F10A30
002D10009DB400
ENDCHAR
STARTCHAR ampersand
ENCODING 38
SWIDTH 736 0
DWIDTH 15 0
BBX 15 14 0 0
BITMAP
00007CCB20000000
0007E107B0000000
000BB003E0000000
000AE006C0000000
0007F43D40000000
0002FEB30BDDD600
0004EF3000BE2000
009C4FB000B60000
09E209F501D00000
2F9001ED18500000
5F70006FAA000000
4F80000BF7000000
1EE2003CDF600710
03BECB8118EDA300
ENDCHAR
STARTCHAR quotesingle
ENCODING 39
SWIDTH 187 0
DWIDTH 4 0
BBX 2 4 1 10
BITMAP
EB
E7
E3
D0
ENDCHAR
STARTCHAR parenleft
ENCODING 40
SWIDTH 357 0
DWIDTH 7 0
BBX 7 19 0 -4
BITMAP
00000440
00008900
0009A000
006D1000
01E70000
06F20000
0BD00000
0EB00000
1FA00000
1F900000
1F900000
0EA00000
0BC00000
07F10000
01E60000
008C0000
000B7000
0001B600
00000740
ENDCHAR
STARTCHAR parenright
ENCODING 41
SWIDTH 357 0
DWIDTH 7 0
BBX 7 19 0 -4
BITMAP
35000000
08A10000
008B0000
000C7000
0005F200
0001F800
0000BD00
00009F10
00007F30
00006F30
00007F30
00008F10
0000AD00
0000E900
0003F300
000A9000
005D1000
05C20000
38100000
ENDCHAR
STARTCHAR asterisk
ENCODING 42
SWIDTH 410 0
DWIDTH 8 0
BBX 8 8 0 6
BITMAP
0007A000
0008B000
2E4683D4
1AE89DB2
001CE300
1AE79DB2
2E47A2D4
0007B000
ENDCHAR
STARTCHAR plus
ENCODING 43
SWIDTH 720 0
DWIDTH 14 0
BBX 13 13 1 -1
BITMAP
000006B0000000
000008E0000000
000008E0000000
000008E0000000
000008E0000000
000008E0000000
BFFFFFFFFFFF20
233339E3333300
000008E0000000
000008E0000000
000008E0000000
000008E0000000
00000590000000
ENDCHAR
STARTCHAR comma
ENCODING 44
SWIDTH 245 0
DWIDTH 5 0
BBX 3 6 1 -3
BITMAP
0200
BF80
AED0
04B0
0A40
7400
ENDCHAR
STARTCHAR hyphen
ENCODING 45
SWIDTH 315 0
DWIDTH 6 0
BBX 6 1 0 5
BITMAP
1CCCC5
ENDCHAR
STARTCHAR period
ENCODING 46
SWIDTH 245 0
DWIDTH 5 0
BBX 3 3 1 0
BITMAP
0200
9F70
8E60
ENDCHAR
STARTCHAR slash
ENCODING 47
SWIDTH 386 0
DWIDTH 8 0
BBX 7 17 0 -3
BITMAP
000004D0
00000880
00000D30
00003E00
00008900
0000C400
0002E000
0007A000
000C5000
001E1000
006B0000
00B60000
01E10000
05B00000
0A700000
0E200000
26000000
ENDCHAR
STARTCHAR zero
ENCODING 48
SWIDTH 495 0
DWIDTH 10 0
BBX 10 14 0 0
BITMAP
002ACC9100
01D900BC10
09F1003F70
0EB0000DD0
3F90000BF2
5F80000AF4
6F700009F5
6F700009F5
5F800009F3
3F90000BF2
0EB0000DD0
09F1003F70
02E900BD10
002BCCA100
ENDCHAR
STARTCHAR one
ENCODING 49
SWIDTH 495 0
DWIDTH 10 0
BBX 8 14 1 0
BITMAP
026BE000
6A9FE000
000CE000
000CE000
000CE000
000CE000
000CE000
000CE000
000CE000
000CE000
000CE000
000CE000
002EF300
5DFFFFD6
ENDCHAR
STARTCHAR two
ENCODING 50
SWIDTH 495 0
DWIDTH 10 0
BBX 10 14 0 0
BITMAP
005ACEA200
057002DD10
0800006F60
0000004F90
0000004F80
0000007F40
000000DB00
000007E200
00003E4000
0002D50000
001C500042
00B60001C1
09FDDDDEE0
3FFFFFFFB0
ENDCHAR
STARTCHAR three
ENCODING 51
SWIDTH 495 0
DWIDTH 10 0
BBX 8 14 1 0
BITMAP
03ACDA10
38003EB0
40000AF1
00000AE0
00001E60
0002B600
009FFD40
00016EF4
000005FB
000000DD
000000CB
000000E5
9B300890
7EFB9400
ENDCHAR
STARTCHAR four
ENCODING 52
SWIDTH 495 0
DWIDTH 10 0
BBX 10 14 0 0
BITMAP
000001E900
00000AF900
00005DF900
0001C4F900
000A53F900
005A03F900
01D103F900
0A5003F900
5B0003F900
BFFFFFFFF9
233335FA32
000003F900
000003F900
000003F900
ENDCHAR
STARTCHAR five
ENCODING 53
SWIDTH 495 0
DWIDTH 10 0
BBX 8 13 1 0
BITMAP
00EFFFF9
02EDDDD5
06700000
09300000
0DFEC710
0CDFFFC1
00004CF8
000001EC
000000AC
0000009A
000000D5
AD512990
6EFEB500
ENDCHAR
STARTCHAR six
ENCODING 54
SWIDTH 495 0
DWIDTH 10 0
BBX 10 14 0 0
BITMAP
000017CC30
0003EB3000
003F900000
01DC000000
06F4000000
0BE5ACB400
0EF7009F40
0FD0000EC0
1FB0000AF0
0FB00009F2
0CE0000AF1
07F3000CC0
01DB105F50
0019DCC500
ENDCHAR
STARTCHAR seven
ENCODING 55
SWIDTH 495 0
DWIDTH 10 0
BBX 10 13 0 0
BITMAP
07FFFFFFF4
0BEDDDDDE1
0C10000890
1300001E30
0000006C00
000000C700
000004F100
00000AA000
00001F5000
00008E0000
0000E80000
0005F20000
000CC00000
ENDCHAR
STARTCHAR eight
ENCODING 56
SWIDTH 495 0
DWIDTH 10 0
BBX 9 14 0 0
BITMAP
004BCCA200
04F4008E10
0BC0001F60
0BD0001F60
09F6005E20
01DF83C300
002DFF4000
002CCFF600
03E507FF50
0CA0005FC0
1F80000DE0
0F90000CC0
09F4004F60
006CCCB400
ENDCHAR
STARTCHAR nine
ENCODING 57
SWIDTH 495 0
DWIDTH 10 0
BBX 9 14 0 0
BITMAP
005CCD9100
06F501CC00
0DC0004F60
2F90000FB0
3F80000DE0
1F90000CF0
0DD0000EE0
05F8008FD0
005CCA5FA0
0000004F60
000000BE10
000007F500
00029E5000
03AC820000
ENDCHAR
STARTCHAR colon
ENCODING 58
SWIDTH 245 0
DWIDTH 5 0
BBX 3 10 1 0
BITMAP
0200
9F70
8E60
0000
0000
0000
0000
0200
9F70
8E60
ENDCHAR
STARTCHAR semicolon
ENCODING 59
SWIDTH 245 0
DWIDTH 5 0
BBX 3 13 1 -3
BITMAP
0200
9F70
8E60
0000
0000
0000
0000
0200
BF80
AED0
04B0
0A40
7400
ENDCHAR
STARTCHAR less
ENCODING 60
SWIDTH 720 0
DWIDTH 14 0
BBX 12 12 1 -1
BITMAP
00000000003A
000000003BFA
0000004BFA30
00004CFA2000
005CFA200000
4CFA20000000
16DE81000000
0006DE810000
000005DE8200
00000005CF92
0000000004CF
000000000004
ENDCHAR
STARTCHAR equal
ENCODING 61
SWIDTH 720 0
DWIDTH 14 0
BBX 13 6 1 3
BITMAP
9CCCCCCCCCCC20
00000000000000
00000000000000
00000000000000
00000000000000
9CCCCCCCCCCC20
ENDCHAR
STARTCHAR greater
ENCODING 62
SWIDTH 720 0
DWIDTH 14 0
BBX 12 12 1 -1
BITMAP
760000000000
5ED710000000
017EE7100000
00017EE71000
0000017DE810
000000006FE8
00000005CFA2
000005DF9200
0005DE820000
06DE81000000
8E7100000000
310000000000
ENDCHAR
STARTCHAR question
ENCODING 63
SWIDTH 411 0
DWIDTH 8 0
BBX 8 14 0 0
BITMAP
02ABDB40
1E4009F3
5F4003F9
5F7002FA
051004F7
000009E1
00002E60
00009A00
0001E100
00049000
00024000
00011000
000DE200
000CD100
ENDCHAR
STARTCHAR at
ENCODING 64
SWIDTH 905 0
DWIDTH 18 0
BBX 16 17 1 -4
BITMAP
000016ACCBA50000
0006D820004BD300
008C200000006E30
05E20000000009D0
0D70019CC48701F5
5F101D900AF800AA
9C007E1002F8008C
BB00DB0001F8007D
CA00F90001F7007D
BB00F90001F7009A
9D00EB0003F700D6
5F208F301AE805C0
1E7009EB927EC910
07E2000000000000
00AD200000000000
0008E8300014A500
000027BDCCB72000
ENDCHAR
STARTCHAR A
ENCODING 65
SWIDTH 718 0
DWIDTH 14 0
BBX 15 14 0 0
BITMAP
0000008A00000000
000000EF20000000
000005FF80000000
00000B7FE0000000
00002E1BF5000000
00008906FC000000
0000E401FF300000
0006E000BF900000
000C80005FE10000
003FCCCCCFF70000
009B000008FD0000
01E4000001FF4000
09F0000000CFC100
CFFD30001DFFFE30
ENDCHAR
STARTCHAR B
ENCODING 66
SWIDTH 618 0
DWIDTH 12 0
BBX 12 14 0 0
BITMAP
3AEFEDDEB500
007F8001BF70
005F80002FE0
005F80000FF0
005F80002FC0
005F8002BD30
005FECDFA100
005F8002AE50
005F80000CF3
005F800008F8
005F800007F9
005F80000AF7
007F80006FD1
3BFFECCDC710
ENDCHAR
STARTCHAR C
ENCODING 67
SWIDTH 670 0
DWIDTH 13 0
BBX 12 14 1 0
BITMAP
0005ACCDB7C3
01AE50005EF3
0AF4000005F3
4FB0000000D3
9F6000000093
DF3000000000
EF2000000000
EF2000000000
DF3000000000
AF6000000000
5FB000000000
0BF400000035
01CE600017A1
0006BDCBA500
ENDCHAR
STARTCHAR D
ENCODING 68
SWIDTH 730 0
DWIDTH 15 0
BBX 14 14 0 0
BITMAP
3AFFEDEEB72000
007F80026EE600
005F800002DF50
005F8000004FD0
005F8000000DF4
005F8000000AF7
005F80000008F8
005F80000008F8
005F80000009F7
005F8000000BF4
005F8000001FD0
005F800000AF40
007F80003BE500
3AEFECCDC72000
ENDCHAR
STARTCHAR E
ENCODING 69
SWIDTH 626 0
DWIDTH 13 0
BBX 12 14 0 0
BITMAP
2AEFEDDDEFF4
007F800003D4
005F80000075
005F80000011
005F80000A00
005F80001B00
005F80007B00
005FDCCDFB00
005F80002B00
005F80000001
005F8000000B
005F8000004B
007F800003D9
3AEFEDDEEFF7
ENDCHAR
STARTCHAR F
ENCODING 70
SWIDTH 588 0
DWIDTH 12 0
BBX 12 14 0 0
BITMAP
3BFFFEEEFFF6
008F800002D6
005F80000057
005F80000012
005F80001A00
005F80006A00
005FDCCDFA00
005F80005A00
005F80001A00
005F80000000
005F80000000
005F80000000
008FB0000000
3DFFFE700000
ENDCHAR
STARTCHAR G
ENCODING 71
SWIDTH 720 0
DWIDTH 14 0
BBX 13 14 1 0
BITMAP
0005ACCDB7C300
01AE50005EF300
0AF3000005F300
4FA0000000D300
9F500000009300
DF200000000000
EF100000000000
FF200003DDDD90
EF3000000BF800
BF60000007F500
6FA0000007F500
0DF4000007F500
02DE50004DF400
0017CDCCC82000
ENDCHAR
STARTCHAR H
ENCODING 72
SWIDTH 777 0
DWIDTH 16 0
BBX 15 14 1 0
BITMAP
CFFFE9007EFFFC10
04FE100000DF5000
01FC000000AF3000
01FC000000AF2000
01FC000000AF2000
01FC000000AF2000
01FC000000AF2000
01FECCCCCCEF2000
01FC000000AF2000
01FC000000AF2000
01FC000000AF2000
01FC000000AF3000
03FE000000CF5000
CEFFE9007DFFFC10
ENDCHAR
STARTCHAR I
ENCODING 73
SWIDTH 357 0
DWIDTH 7 0
BBX 7 14 0 0
BITMAP
4DFFFD50
008FA000
005F7000
005F7000
005F7000
005F7000
005F7000
005F7000
005F7000
005F7000
005F7000
005F7000
008FA000
4DFFFD50
ENDCHAR
STARTCHAR J
ENCODING 74
SWIDTH 396 0
DWIDTH 8 0
BBX 8 14 0 0
BITMAP
02CFFFE6
0006FD00
0003FA00
0003FA00
0003FA00
0003FA00
0003FA00
0003FA00
0003FA00
0003FA00
0003FA00
8603F900
EF25F400
6DDC7000
ENDCHAR
STARTCHAR K
ENCODING 75
SWIDTH 702 0
DWIDTH 14 0
BBX 14 14 0 0
BITMAP
4DFFFD50AFFFD1
008FA0000CE500
005F70004E3000
005F7003D30000
005F703D300000
005F73D3000000
005FAE50000000
005FBFE3000000
005F74FE200000
005F705FE20000
005F7005FE2000
005F70006FD200
008FA0000CFD30
4DFFFD50AFFFFB
ENDCHAR
STARTCHAR L
ENCODING 76
SWIDTH 585 0
DWIDTH 12 0
BBX 12 14 0 0
BITMAP
2DFFFE500000
008FB0000000
005F80000000
005F80000000
005F80000000
005F80000000
005F80000000
005F80000000
005F80000000
005F80000000
005F80000074
005F800000D2
007F900008F0
19EFFCCCEFD0
ENDCHAR
STARTCHAR M
ENCODING 77
SWIDTH 895 0
DWIDTH 18 0
BBX 17 14 0 0
BITMAP
5DFFD00000001EFFC0
00BFF40000006FF700
008EFA000000CEF400
0088FF100003E9F400
0087AF70000988F400
00874FD0001E28F400
00870DF4006B08F400
008707FA00C508F400
008701EF12E008F400
0087009F788008F400
0087003FDE2008F400
0097000CFB0008F400
00CA0006F5000BF700
5DFFD301D004DFFFC0
ENDCHAR
STARTCHAR N
ENCODING 78
SWIDTH 742 0
DWIDTH 15 0
BBX 15 14 0 0
BITMAP
5EFF500005EFFE40
01DFE200001DC000
008FFC0000088000
0088EF8000087000
00875FF400087000
008708FD10087000
008700CFA0087000
0087002EF6087000
00870005FE287000
008700008FC87000
008700000CFE7000
0097000002EF7000
00CA0000005F7000
5DFFD30000087000
ENDCHAR
STARTCHAR O
ENCODING 79
SWIDTH 738 0
DWIDTH 15 0
BBX 13 14 1 0
BITMAP
0005BCCCA40000
01BE40018F9000
0AF4000008F700
4FB0000001EF10
9F60000000AF70
DF300000007FA0
EF200000006FB0
EF200000006FA0
DF300000007F90
AF600000009F50
4FB0000000DE10
0BF3000005F600
01BE40005E7000
0005BCCCA30000
ENDCHAR
STARTCHAR P
ENCODING 80
SWIDTH 569 0
DWIDTH 11 0
BBX 11 14 0 0
BITMAP
0AEFEDED9300
007F8004EF40
005F80006FB0
005F80002FD0
005F80002FC0
005F80005F70
005F8005EB00
005FDDCB6000
005F80000000
005F80000000
005F80000000
005F80000000
008FB0000000
1CFFFD600000
ENDCHAR
STARTCHAR Q
ENCODING 81
SWIDTH 737 0
DWIDTH 15 0
BBX 14 18 1 -4
BITMAP
0005BCCCA40000
01BE40018F8000
0AF3000008F700
4FA0000001EF10
9F50000000AF60
DF300000007F90
EF200000006FA0
FF200000006FA0
DF300000007F90
BF600000009F50
6FA0000000DE10
0CF3000006F600
02DD40005E8000
0018DDCEB40000
000000DF900000
0000005FF60000
00000008FF9200
0000000039CDD3
ENDCHAR
STARTCHAR R
ENCODING 82
SWIDTH 659 0
DWIDTH 13 0
BBX 14 14 0 0
BITMAP
1AEFEDDD930000
007F8003DF4000
005F80005FB000
005F80002FE000
005F80002FD000
005F80007F7000
005F8017FA0000
005FEDFD300000
005F80AF700000
005F801EF40000
005F8005FE1000
006F8000AFB000
008FA0001EF700
2CFFFD6005FFE3
ENDCHAR
STARTCHAR S
ENCODING 83
SWIDTH 504 0
DWIDTH 10 0
BBX 10 14 0 0
BITMAP
006CCDFFA0
06F3003EB0
0DC00005B0
0FD00000B0
0CFA000000
05FFC30000
005EFF9100
0001AFFD30
000004DFD1
0000002EF5
47000009F6
3D000008F3
3F91002EB0
2FFFCCD810
ENDCHAR
STARTCHAR T
ENCODING 84
SWIDTH 603 0
DWIDTH 12 0
BBX 12 14 0 0
BITMAP
8FECCFFCCEF9
9A000EE0009A
A3000EE0002A
70000EE00007
00000EE00000
00000EE00000
00000EE00000
00000EE00000
00000EE00000
00000EE00000
00000EE00000
00000EF00000
00002FF20000
000AEFFEB000
ENDCHAR
STARTCHAR U
ENCODING 85
SWIDTH 752 0
DWIDTH 15 0
BBX 15 14 0 0
BITMAP
7EFFFD2003DFFE80
00DF60000009E100
00AF30000006C000
00AF30000005C000
00AF30000005C000
00AF30000005C000
00AF30000005C000
00AF30000005C000
00AF30000005C000
009F40000006B000
007F600000078000
002FB000000C3000
0009F70001890000
00006BDCBB500000
ENDCHAR
STARTCHAR V
ENCODING 86
SWIDTH 680 0
DWIDTH 14 0
BBX 15 14 -1 0
BITMAP
2EFFFD20005EFF90
00BFD0000003F500
003FF1000005C000
000CF600000B6000
0005FC00001E1000
0000EF2000790000
00008F8000D30000
00002FE003D00000
00000BF509700000
000005FA0E100000
000000EF5A000000
0000008FE4000000
0000002FD0000000
0000000B70000000
ENDCHAR
STARTCHAR W
ENCODING 87
SWIDTH 944 0
DWIDTH 19 0
BBX 20 14 -1 0
BITMAP
2EFFFC05EFFFA003EFFB
01BFB0001DF500001F80
003FD00007F800001F10
000CF40002FD00004B00
0007F90000DF40009600
0001FE1002FF9000E100
0000AF60087EE104B000
00005FB00D19F5096000
00000EF24A04FB0E2000
000008F7A500DF4C0000
000003FDD0008FD70000
000000CF90002FF20000
0000006F30000CC00000
0000001C000006700000
ENDCHAR
STARTCHAR X
ENCODING 88
SWIDTH 664 0
DWIDTH 13 0
BBX 14 14 0 0
BITMAP
8EFFFB007EFFD1
01CFB00007E400
003FF2000D6000
0008FA008A0000
0000DF43D10000
00004FCC300000
000009FA000000
000009FF300000
00005C5FC00000
0002D20BF70000
000C6002FF3000
008B00008FC000
05F400003FF800
CFFE5005DFFFD2
ENDCHAR
STARTCHAR Y
ENCODING 89
SWIDTH 647 0
DWIDTH 13 0
BBX 15 14 -1 0
BITMAP
1DFFFD3004DFFD10
009FF100002F6000
000CF70000790000
0002FE1001D10000
00008F9009700000
00001EF32D000000
000006FBB5000000
000000CFB0000000
0000006F70000000
0000006F70000000
0000006F70000000
0000006F70000000
0000009FA0000000
00005DFFFD600000
ENDCHAR
STARTCHAR Z
ENCODING 90
SWIDTH 594 0
DWIDTH 12 0
BBX 12 14 0 0
BITMAP
09FECCCCDFF2
0AA10000BF80
0B200006FD10
0600001EF400
000000AF9000
000005FE1000
00001DF50000
00009FB00000
0003FE200000
000DF7000000
008FC0000054
03FF300000B2
0CF8000006F0
5FFCCCCCEFD0
ENDCHAR
STARTCHAR bracketleft
ENCODING 91
SWIDTH 349 0
DWIDTH 7 0
BBX 5 20 1 -4
BITMAP
3DCCC0
3F6000
3F6000
3F6000
3F6000
3F6000
3F6000
3F6000
3F6000
3F6000
3F6000
3F6000
3F6000
3F6000
3F6000
3F6000
3F6000
3F6000
3F6000
3DCCC0
ENDCHAR
STARTCHAR backslash
ENCODING 92
SWIDTH 385 0
DWIDTH 8 0
BBX 7 17 0 -3
BITMAP
2E000000
0C400000
08900000
03D00000
00D30000
00880000
004D0000
000E2000
00097000
0004C000
0000E200
0000A600
00005B00
00001E10
00000B60
000006A0
00000170
ENDCHAR
STARTCHAR bracketright
ENCODING 93
SWIDTH 349 0
DWIDTH 7 0
BBX 5 20 1 -4
BITMAP
CCCD20
006F30
006F30
006F30
006F30
006F30
006F30
006F30
006F30
006F30
006F30
006F30
006F30
006F30
006F30
006F30
006F30
006F30
006F30
CCCD20
ENDCHAR
STARTCHAR asciicircum
ENCODING 94
SWIDTH 480 0
DWIDTH 10 0
BBX 9 8 0 6
BITMAP
0000740000
0004ED0000
000B6C5000
003E05C000
00A700D400
03E1006C00
0A80000E40
2E100007B0
ENDCHAR
STARTCHAR underscore
ENCODING 95
SWIDTH 512 0
DWIDTH 10 0
BBX 11 1 0 -3
BITMAP
CCCCCCCCCC30
ENDCHAR
STARTCHAR grave
ENCODING 96
SWIDTH 222 0
DWIDTH 4 0
BBX 4 3 0 11
BITMAP
4FA0
05F2
0069
ENDCHAR
STARTCHAR a
ENCODING 97
SWIDTH 480 0
DWIDTH 10 0
BBX 10 10 0 0
BITMAP
007BCD8000
08F107F500
0CD001F900
034000FA00
000048FA00
008C72FA00
0BD100FA00
3F8000FA00
2FC003EB01
06ED928EA2
ENDCHAR
STARTCHAR b
ENCODING 98
SWIDTH 522 0
DWIDTH 10 0
BBX 10 14 0 0
BITMAP
6AE4000000
19F4000000
06F4000000
06F4000000
06F46DEB20
06FB736FD1
06F60008F6
06F40004FA
06F40002FB
06F40002FA
06F40003F7
06F40007F2
06F9003E60
029DDBB400
ENDCHAR
STARTCHAR c
ENCODING 99
SWIDTH 446 0
DWIDTH 9 0
BBX 9 10 0 0
BITMAP
003ACEC400
03E301EF10
0C80006D10
2F50000000
4F40000000
5F60000000
3FB0000020
0EF7001B30
05FFEDF900
005CFD8000
ENDCHAR
STARTCHAR d
ENCODING 100
SWIDTH 539 0
DWIDTH 11 0
BBX 11 14 0 0
BITMAP
0000018CD000
0000002DD000
0000000CD000
0000000CD000
0019CCCED000
01D7005FD000
0AC0000DD000
1F80000CD000
4F60000CD000
5F60000CD000
4F80000CD000
1FB0000CD000
08F6003ED000
008EDA7CE710
ENDCHAR
STARTCHAR e
ENCODING 101
SWIDTH 464 0
DWIDTH 9 0
BBX 9 10 0 0
BITMAP
004BCDA200
04D101DC00
0D60006F50
2FDCCCCD70
4F50000000
4F70000000
2FD0000030
0CFA101950
04FFFDFB00
003BEE9100
ENDCHAR
STARTCHAR f
ENCODING 102
SWIDTH 307 0
DWIDTH 6 0
BBX 8 15 0 0
BITMAP
0005BDA2
004D06F7
00AB0041
00DB0000
00EB0000
6CFECC20
00EB0000
00EB0000
00EB0000
00EB0000
00EB0000
00EB0000
00EB0000
02FD0000
8EFFE900
ENDCHAR
STARTCHAR g
ENCODING 103
SWIDTH 484 0
DWIDTH 10 0
BBX 10 15 0 -5
BITMAP
006CCFFEC5
07F403FD00
0DD000AF30
0EC0008F40
0BE0009F10
02D702E900
01BACB7000
0C90000000
0FFEDCB920
05FFFFFFE1
08500016F4
4F100000C3
8F100000C0
5F91001940
07DEB97100
ENDCHAR
STARTCHAR h
ENCODING 104
SWIDTH 577 0
DWIDTH 12 0
BBX 12 14 0 0
BITMAP
49DA00000000
14FA00000000
00FA00000000
00FA00000000
00FA49CE7000
00FE7008F300
00FA0002F800
00FA0001F900
00FA0000FA00
00FA0000FA00
00FA0000FA00
00FA0000FA00
01FC0002FC00
5EFFD26EFFD1
ENDCHAR
STARTCHAR i
ENCODING 105
SWIDTH 285 0
DWIDTH 6 0
BBX 6 14 0 0
BITMAP
01DC00
02ED00
001100
000000
29DA00
13FB00
00EB00
00EB00
00EB00
00EB00
00EB00
00EB00
01FC00
4EFFD2
ENDCHAR
STARTCHAR j
ENCODING 106
SWIDTH 263 0
DWIDTH 5 0
BBX 6 19 -2 -5
BITMAP
0003EA
0003FC
000010
000000
0039DA
0014FA
0000FA
0000FA
0000FA
0000FA
0000FA
0000FA
0000FA
0000FA
0000FA
0000F8
3201F6
CE25E1
6EEC30
ENDCHAR
STARTCHAR k
ENCODING 107
SWIDTH 542 0
DWIDTH 11 0
BBX 11 14 0 0
BITMAP
39DA00000000
02FA00000000
00FA00000000
00FA00000000
00FA03EFFD10
00FA007D4000
00FA05C10000
00FA5A100000
00FDF8000000
00FAAF600000
00FA0CF50000
00FA01DE3000
01FB002FE300
5EFFD28FFFA0
ENDCHAR
STARTCHAR l
ENCODING 108
SWIDTH 283 0
DWIDTH 6 0
BBX 6 14 0 0
BITMAP
39CA00
14FA00
00FA00
00FA00
00FA00
00FA00
00FA00
00FA00
00FA00
00FA00
00FA00
00FA00
02FC00
5EFFD2
ENDCHAR
STARTCHAR m
ENCODING 109
SWIDTH 852 0
DWIDTH 17 0
BBX 17 10 0 0
BITMAP
29DA29CE706AEC3000
00FD8008FC501DD000
00EB0004F80009F100
00EB0003F70008F200
00EB0003F70008F200
00EB0003F70008F200
00EB0003F70008F200
00EB0003F70008F200
01FC0005F9000AF400
4EFFD29EFFC0CFFE70
ENDCHAR
STARTCHAR n
ENCODING 110
SWIDTH 576 0
DWIDTH 12 0
BBX 12 10 0 0
BITMAP
29DA39CD7000
00FE7008F300
00EB0002F800
00EB0001F900
00EB0001F900
00EB0001F900
00EB0001F900
00EB0001F900
01FC0003FB00
4EFFD36EFFD1
ENDCHAR
STARTCHAR o
ENCODING 111
SWIDTH 514 0
DWIDTH 10 0
BBX 10 10 0 0
BITMAP
003ADCC600
03E8004F80
0CD0000AF2
2FA00006F7
4F900004F9
4F900004F8
2FA00005F6
0DE00008F1
04F9002E70
003BDCC500
ENDCHAR
STARTCHAR p
ENCODING 112
SWIDTH 537 0
DWIDTH 11 0
BBX 10 15 0 -5
BITMAP
4AD83BED50
03FC935DF3
01FA0003FB
01F80000EE
01F80000CF
01F80000CE
01F80000EC
01F90003F6
01FE401BB0
01FCCCC800
01F8000000
01F8000000
01F9000000
03FB000000
7EFFD60000
ENDCHAR
STARTCHAR q
ENCODING 113
SWIDTH 521 0
DWIDTH 10 0
BBX 11 15 0 -5
BITMAP
0019CCC7C000
02D7006FC000
0AB0000DC000
1F70000DC000
4F60000DC000
5F70000DC000
3F90000DC000
1ED0000DC000
08FA438FC000
008EEB3DC000
0000000DC000
0000000DC000
0000000DC000
0000001EE000
000008EFFD20
ENDCHAR
STARTCHAR r
ENCODING 114
SWIDTH 380 0
DWIDTH 8 0
BBX 8 10 0 0
BITMAP
18CA1BE4
14FAAAF5
00EF3010
00EB0000
00EB0000
00EB0000
00EB0000
00EB0000
01FC0000
5EFFD700
ENDCHAR
STARTCHAR s
ENCODING 115
SWIDTH 395 0
DWIDTH 8 0
BBX 8 10 0 0
BITMAP
03BCC9A0
0E6008B0
2F5000A0
1EE50000
05EFC300
002AFF70
00003DF2
370006F5
3E3008F2
3BBCCB40
ENDCHAR
STARTCHAR t
ENCODING 116
SWIDTH 315 0
DWIDTH 6 0
BBX 7 13 0 0
BITMAP
00380000
00B80000
06F80000
2CFDC900
02F80000
02F80000
02F80000
02F80000
02F80000
02F80000
02F80000
01FA0410
007EB500
ENDCHAR
STARTCHAR u
ENCODING 117
SWIDTH 570 0
DWIDTH 11 0
BBX 11 10 0 0
BITMAP
6CE7009DE600
05F70007F600
03F70004F600
03F70004F600
03F70004F600
03F70004F600
03F70004F600
01F90004F600
00DD102CF700
003CEA74FC50
ENDCHAR
STARTCHAR v
ENCODING 118
SWIDTH 481 0
DWIDTH 10 0
BBX 11 10 -1 0
BITMAP
3EFFC007EFD0
02EF00007C00
008F4000B500
003FA002D000
000CE1078000
0006F60C2000
0001EB3B0000
00009FA40000
00004FD00000
00000D700000
ENDCHAR
STARTCHAR w
ENCODING 119
SWIDTH 749 0
DWIDTH 15 0
BBX 17 10 -1 0
BITMAP
4EFFC08FFF603DFE30
02EF0006F90002F200
008F4000EC00069000
003FA001EF300B4000
000CF1069F801D0000
0006F60B1CD0670000
0001EC2A07F4B20000
00009FA401FAB00000
00003FD000BF500000
00000D70006E000000
ENDCHAR
STARTCHAR x
ENCODING 120
SWIDTH 479 0
DWIDTH 10 0
BBX 11 10 -1 0
BITMAP
0AFFF60DFE40
006FA004D200
000AF30B2000
0001EC750000
00005FB00000
00004EF40000
0002C2DD1000
000C404FA000
0099000BF600
1EFE307FFF80
ENDCHAR
STARTCHAR y
ENCODING 121
SWIDTH 483 0
DWIDTH 10 0
BBX 11 15 -1 -5
BITMAP
3EFFD107EFB0
02FF00007B00
009F4000B400
003FB001D000
000BF2058000
0005F80A3000
0000DE1C0000
00006F970000
00001EF20000
00000AB00000
000009600000
00001D100000
000088000000
0AD9D1000000
09EC30000000
ENDCHAR
STARTCHAR z
ENCODING 122
SWIDTH 458 0
DWIDTH 9 0
BBX 9 10 0 0
BITMAP
0FFDDDFF50
0E2003FC00
1A000CF300
01008F8000
0003FC0000
000CF30000
007F800130
02FD000670
0CF3001D60
5FFDDDFF50
ENDCHAR
STARTCHAR braceleft
ENCODING 123
SWIDTH 327 0
DWIDTH 7 0
BBX 6 19 0 -5
BITMAP
0007C8
00AC20
00F700
01F700
00F800
00D900
00CA00
00B900
01D400
6E4000
26C100
00B800
00CA00
00DA00
00E800
01F700
00F700
00BC10
0019C7
ENDCHAR
STARTCHAR bar
ENCODING 124
SWIDTH 267 0
DWIDTH 5 0
BBX 2 19 2 -5
BITMAP
E4
E4
E4
E4
E4
E4
E4
E4
E4
E4
E4
E4
E4
E4
E4
E4
E4
E4
E4
ENDCHAR
STARTCHAR braceright
ENCODING 125
SWIDTH 327 0
DWIDTH 7 0
BBX 7 19 0 -5
BITMAP
1CA30000
006F3000
000E8000
000E9000
000F8000
001F6000
002F5000
001F4000
000B8000
0001AE10
0006B400
001F4000
002F4000
001F6000
000F8000
000E9000
000D9000
004F4000
1CB50000
ENDCHAR
STARTCHAR asciitilde
ENCODING 126
SWIDTH 557 0
DWIDTH 11 0
BBX 11 4 0 3
BITMAP
000000000100
04BCB8425E40
2E4016ADC500
010000000000
ENDCHAR
STARTCHAR uni00A0
ENCODING 160
SWIDTH 235 0
DWIDTH 5 0
BBX 1 1 0 0
BITMAP
00
ENDCHAR
STARTCHAR exclamdown
ENCODING 161
SWIDTH 282 0
DWIDTH 6 0
BBX 3 14 1 -4
BITMAP
2EB0
3FD0
0110
0520
0940
0A60
0C70
0D80
0E90
1FA0
2FC0
3FD0
2FC0
0850
ENDCHAR
STARTCHAR cent
ENCODING 162
SWIDTH 495 0
DWIDTH 10 0
BBX 9 14 0 0
BITMAP
00000D0000
00001C0000
0007BFD800
00B82BAF70
07D02B2F80
0C903A0200
0F803A0000
1F90490000
0EC0490000
0AF4580070
03FE981950
005EFFE700
0000870000
0000760000
ENDCHAR
STARTCHAR sterling
ENCODING 163
SWIDTH 495 0
DWIDTH 10 0
BBX 10 14 0 0
BITMAP
00005BDC40
0004B01EF1
000C7005E2
001F600000
003F600000
004F700000
003F900000
0CCFECC500
000FC00000
000DC00000
000CA00000
3BCE700015
A32EF834B1
6DC56DFC20
ENDCHAR
STARTCHAR currency
ENCODING 164
SWIDTH 617 0
DWIDTH 12 0
BBX 12 10 0 1
BITMAP
1D50000002D4
05E8BCCC8D90
006E5002CC00
00C600001E20
00F100000B60
00F100000C50
00C700002F20
006F6003DC00
06E69CCB5CA0
1B40000001B4
ENDCHAR
STARTCHAR yen
ENCODING 165
SWIDTH 495 0
DWIDTH 10 0
BBX 10 13 0 0
BITMAP
DDDD506DDB
2EF60008B0
07FA000C20
01EF303B00
007FA09400
000DF3C000
0006FD6000
06CCFFCC70
0000DF0000
06CCFFCC70
0000DF0000
0001FF3000
007EFFE900
ENDCHAR
STARTCHAR brokenbar
ENCODING 166
SWIDTH 267 0
DWIDTH 5 0
BBX 2 15 2 -1
BITMAP
E4
E4
E4
E4
E4
E4
00
00
00
E4
E4
E4
E4
E4
E4
ENDCHAR
STARTCHAR section
ENCODING 167
SWIDTH 491 0
DWIDTH 10 0
BBX 8 19 1 -5
BITMAP
008CCB20
08A005B0
0D6006F0
0DA005B0
08F70000
01DF8000
019EF800
0B12DF50
4B002EE0
5E1004F4
2FB000C4
09FA00C1
01BFB830
001BF900
0000AF50
4D001DA0
7D0008B0
3D101C60
05CCC600
ENDCHAR
STARTCHAR dieresis
ENCODING 168
SWIDTH 392 0
DWIDTH 8 0
BBX 8 3 0 12
BITMAP
01000110
4FB00DE2
3E900BD1
ENDCHAR
STARTCHAR copyright
ENCODING 169
SWIDTH 781 0
DWIDTH 16 0
BBX 14 14 1 0
BITMAP
00017BCCA50000
005B510028B200
05A00000003C10
1B004CCDAA0490
7502F4007B00B1
B109D000090065
B00BB000000047
B00BB000000047
B108E000000065
7502E9102800B1
1B002ACB9104A0
06A00000002C10
006C510028B200
00027BCCA50000
ENDCHAR
STARTCHAR ordfeminine
ENCODING 170
SWIDTH 410 0
DWIDTH 8 0
BBX 8 8 0 5
BITMAP
03A9C900
0D801F50
07300E80
00169F80
06C40E80
2F400E80
3F815E93
09ED68E7
ENDCHAR
STARTCHAR guillemotleft
ENCODING 171
SWIDTH 517 0
DWIDTH 10 0
BBX 10 9 0 0
BITMAP
0000800071
000B500880
01B9008C00
1BC009E200
3F901EC000
04E502D800
004D202D40
0003B002C2
0000200010
ENDCHAR
STARTCHAR logicalnot
ENCODING 172
SWIDTH 720 0
DWIDTH 14 0
BBX 12 7 1 1
BITMAP
BFFFFFFFFFFB
2333333333BC
0000000000AC
0000000000AC
0000000000AC
0000000000AC
000000000078
ENDCHAR
STARTCHAR uni00AD
ENCODING 173
SWIDTH 315 0
DWIDTH 6 0
BBX 6 1 0 5
BITMAP
1CCCC5
ENDCHAR
STARTCHAR registered
ENCODING 174
SWIDTH 413 0
DWIDTH 8 0
BBX 8 8 0 7
BITMAP
00477600
05400270
17586344
34293A07
342BB307
17594854
06400280
00477600
ENDCHAR
STARTCHAR macron
ENCODING 175
SWIDTH 350 0
DWIDTH 7 0
BBX 7 1 0 12
BITMAP
5CCCCC50
ENDCHAR
STARTCHAR degree
ENCODING 176
SWIDTH 409 0
DWIDTH 8 0
BBX 7 6 1 8
BITMAP
07CC8100
8B108A00
D3001F10
D3001F10
8A108B00
07CC8100
ENDCHAR
STARTCHAR plusminus
ENCODING 177
SWIDTH 720 0
DWIDTH 14 0
BBX 13 13 1 0
BITMAP
00000480000000
000007D0000000
000007D0000000
000007D0000000
000007D0000000
9CCCCDFCCCCC20
000007D0000000
000007D0000000
000007D0000000
000007D0000000
000006B0000000
00000000000000
9CCCCCCCCCCC20
ENDCHAR
STARTCHAR twosuperior
ENCODING 178
SWIDTH 373 0
DWIDTH 7 0
BBX 7 10 0 5
BITMAP
03CED600
2A329F50
21001F90
00000F70
00005E10
0001D400
001B5000
01B50050
0B9445C0
6FFFFFA0
ENDCHAR
STARTCHAR threesuperior
ENCODING 179
SWIDTH 374 0
DWIDTH 7 0
BBX 7 10 0 5
BITMAP
04CFD500
2A43BF10
00005E10
0002A400
009FD500
00019F60
00000DB0
00000BA0
28202E30
3DEB9300
ENDCHAR
STARTCHAR acute
ENCODING 180
SWIDTH 222 0
DWIDTH 4 0
BBX 4 3 0 11
BITMAP
04FA
0BB1
3C10
ENDCHAR
STARTCHAR uni00B5
ENCODING 181
SWIDTH 556 0
DWIDTH 11 0
BBX 12 15 0 -5
BITMAP
08F5000AF100
07F3000BE000
07F1000BB000
07D0000B8000
07B0000D6000
07A0003F5000
08C000AC6000
09F506BAB041
0CBFDF57FEC0
0D69E902ED20
0E7000000000
0F8000000000
1F9000000000
1F9000000000
020000000000
ENDCHAR
STARTCHAR paragraph
ENCODING 182
SWIDTH 605 0
DWIDTH 12 0
BBX 10 17 1 -3
BITMAP
03BCEEDFE9
3F60C84F40
AE00C84F10
DC00C84F10
DC00C84F10
BE00C84F10
6F30C84F10
08D6D84F10
0015D84F10
0000C84F10
0000C84F10
0000C84F10
0000C84F10
0000C84F10
0000C84F10
0002E84F50
006BC63CB9
ENDCHAR
STARTCHAR periodcentered
ENCODING 183
SWIDTH 282 0
DWIDTH 6 0
BBX 3 3 1 4
BITMAP
0110
3FD0
3EB0
ENDCHAR
STARTCHAR cedilla
ENCODING 184
SWIDTH 247 0
DWIDTH 5 0
BBX 5 5 0 -5
BITMAP
044000
07C900
000E40
111E30
2AC700
ENDCHAR
STARTCHAR onesuperior
ENCODING 185
SWIDTH 343 0
DWIDTH 7 0
BBX 6 10 0 5
BITMAP
16BE30
157F30
004F30
004F30
004F30
004F30
004F30
004F30
004F40
08DFD9
ENDCHAR
STARTCHAR ordmasculine
ENCODING 186
SWIDTH 432 0
DWIDTH 9 0
BBX 8 8 0 5
BITMAP
008CCC50
0AC104F5
3F5000BD
5F30009F
6F30009F
3F5000BC
0BC103F5
018CBC50
ENDCHAR
STARTCHAR guillemotright
ENCODING 187
SWIDTH 517 0
DWIDTH 10 0
BBX 9 9 1 0
BITMAP
8100620000
4C101C2000
07C104E300
00BD208E30
007F503F80
03E601D900
1D500B8000
A500780000
2000200000
ENDCHAR
STARTCHAR onequarter
ENCODING 188
SWIDTH 861 0
DWIDTH 17 0
BBX 17 16 0 -1
BITMAP
000000000000820000
026900000005B00000
17BF0000000D200000
007F00000079000000
007F000001D1000000
007F00000970000000
007F00003D00008300
007F0000B40008F400
008F1005B0004BF400
09BCA50D3002C3F400
00000079000B42F400
000001D1008802F400
0000097001DCCCFD80
00003D00000002F400
0000B500000002F400
000150000000000000
ENDCHAR
STARTCHAR onehalf
ENCODING 189
SWIDTH 889 0
DWIDTH 18 0
BBX 18 16 0 -1
BITMAP
000000000000820000
026900000005B00000
17BF0000000D200000
007F00000079000000
007F000001D1000000
007F00000970000000
007F00003D008DD910
007F0000B408625F80
008F1005B003000BC0
09BCA50D3000000DB0
000000790000003F50
000001D1000002D700
0000097000002D6012
00003D000003D40092
0000B500001CDCCCD0
000150000000000000
ENDCHAR
STARTCHAR threequarters
ENCODING 190
SWIDTH 861 0
DWIDTH 17 0
BBX 17 16 0 -1
BITMAP
000000000000820000
02ACB4000005B00000
19109F10000D200000
00005F100079000000
0003B50001D1000000
00AFD6000970000000
00007F503D00007200
00000E80B40008F400
2A303E35B0004BF400
2CDA930D3001C3F400
00000079000B42F400
000001D1008802F400
0000097001DCCCFD80
00003D00000002F400
0000B500000002F400
000150000000000000
ENDCHAR
STARTCHAR questiondown
ENCODING 191
SWIDTH 411 0
DWIDTH 8 0
BBX 8 14 0 -4
BITMAP
000AE300
000CF300
00001000
00015000
00058000
000B5000
006D0000
03F50000
0BC00000
3F800051
6F6003F9
4F7000E9
0CD202E3
018CCA30
ENDCHAR
STARTCHAR Agrave
ENCODING 192
SWIDTH 718 0
DWIDTH 14 0
BBX 15 17 0 0
BITMAP
0000077100000000
000005DB00000000
0000001990000000
0000008A00000000
000000EF20000000
000005FF80000000
00000B7FE0000000
00002E1BF5000000
00008906FC000000
0000E401FF300000
0006E000BF900000
000C80005FE10000
003FCCCCCFF70000
009B000008FD0000
01E4000001FF4000
09F0000000CFC100
CFFD30001DFFFE30
ENDCHAR
STARTCHAR Aacute
ENCODING 193
SWIDTH 718 0
DWIDTH 14 0
BBX 15 17 0 0
BITMAP
0000000782000000
0000009E60000000
000006B200000000
0000008A00000000
000000EF20000000
000005FF80000000
00000B7FE0000000
00002E1BF5000000
00008906FC000000
0000E401FF300000
0006E000BF900000
000C80005FE10000
003FCCCCCFF70000
009B000008FD0000
01E4000001FF4000
09F0000000CFC100
CFFD30001DFFFE30
ENDCHAR
STARTCHAR Acircumflex
ENCODING 194
SWIDTH 718 0
DWIDTH 14 0
BBX 15 17 0 0
BITMAP
000001DF30000000
00000BB9D1000000
000079006A000000
0000008A00000000
000000EF20000000
000005FF80000000
00000B7FE0000000
00002E1BF5000000
00008906FC000000
0000E401FF300000
0006E000BF900000
000C80005FE10000
003FCCCCCFF70000
009B000008FD0000
01E4000001FF4000
09F0000000CFC100
CFFD30001DFFFE30
ENDCHAR
STARTCHAR Atilde
ENCODING 195
SWIDTH 718 0
DWIDTH 14 0
BBX 15 17 0 0
BITMAP
00004BC736400000
0000803AD8000000
0000000000000000
0000008A00000000
000000EF20000000
000005FF80000000
00000B7FE0000000
00002E1BF5000000
00008906FC000000
0000E401FF300000
0006E000BF900000
000C80005FE10000
003FCCCCCFF70000
009B000008FD0000
01E4000001FF4000
09F0000000CFC100
CFFD30001DFFFE30
ENDCHAR
STARTCHAR Adieresis
ENCODING 196
SWIDTH 718 0
DWIDTH 14 0
BBX 15 18 0 0
BITMAP
0000110001000000
0002FD00AF400000
0001DB009E300000
0000000000000000
0000008A00000000
000000EF20000000
000005FF80000000
00000B7FE0000000
00002E1BF5000000
00008906FC000000
0000E401FF300000
0006E000BF900000
000C80005FE10000
003FCCCCCFF70000
009B000008FD0000
01E4000001FF4000
09F0000000CFC100
CFFD30001DFFFE30
ENDCHAR
STARTCHAR Aring
ENCODING 197
SWIDTH 718 0
DWIDTH 14 0
BBX 15 18 0 0
BITMAP
000004BC50000000
00000C11D1000000
00000D11D1000000
000004BC50000000
0000008A00000000
000000EF20000000
000005FF80000000
00000B7FE0000000
00002E1BF5000000
00008906FC000000
0000E401FF300000
0006E000BF900000
000C80005FE10000
003FCCCCCFF70000
009B000008FD0000
01E4000001FF4000
09F0000000CFC100
CFFD30001DFFFE30
ENDCHAR
STARTCHAR AE
ENCODING 198
SWIDTH 894 0
DWIDTH 18 0
BBX 19 14 -1 0
BITMAP
0000003BFFFEDDEFF900
00000003CBF10001B900
000000095BF100003A00
0000002D0BF100000700
000000A60BF100000000
000003E10BF100091000
00000B700BF1001D1000
00003FCCCEFCCCFF1000
0000B8000BF1001D1000
0004E1000BF100091000
000C60000BF100000420
005C00000BF100000C20
02D900000DF100018E00
5FFFB008EFFEDDEFFC00
ENDCHAR
STARTCHAR Ccedilla
ENCODING 199
SWIDTH 670 0
DWIDTH 13 0
BBX 12 19 1 -5
BITMAP
0005ACCDB7C3
01AE50005EF3
0AF4000005F3
4FB0000000D3
9F6000000093
DF3000000000
EF2000000000
EF2000000000
DF3000000000
AF6000000000
5FB000000000
0BF400000035
01CE600017A1
0006BDCBA500
000008000000
00000AC60000
0000004E0000
0000205D0000
00005BC40000
ENDCHAR
STARTCHAR Egrave
ENCODING 200
SWIDTH 626 0
DWIDTH 13 0
BBX 12 17 0 0
BITMAP
000068300000
00002BE20000
0000006C1000
2AEFEDDDEFF4
007F800003D4
005F80000075
005F80000011
005F80000A00
005F80001B00
005F80007B00
005FDCCDFB00
005F80002B00
005F80000001
005F8000000B
005F8000004B
007F800003D9
3AEFEDDEEFF7
ENDCHAR
STARTCHAR Eacute
ENCODING 201
SWIDTH 626 0
DWIDTH 13 0
BBX 12 17 0 0
BITMAP
000000584000
000004F91000
00002C400000
2AEFEDDDEFF4
007F800003D4
005F80000075
005F80000011
005F80000A00
005F80001B00
005F80007B00
005FDCCDFB00
005F80002B00
005F80000001
005F8000000B
005F8000004B
007F800003D9
3AEFEDDEEFF7
ENDCHAR
STARTCHAR Ecircumflex
ENCODING 202
SWIDTH 626 0
DWIDTH 13 0
BBX 12 17 0 0
BITMAP
00000AF80000
00006D7E4000
0003B103C100
2AEFEDDDEFF4
007F800003D4
005F80000075
005F80000011
005F80000A00
005F80001B00
005F80007B00
005FDCCDFB00
005F80002B00
005F80000001
005F8000000B
005F8000004B
007F800003D9
3AEFEDDEEFF7
ENDCHAR
STARTCHAR Edieresis
ENCODING 203
SWIDTH 626 0
DWIDTH 13 0
BBX 12 18 0 0
BITMAP
000010002000
000CF305F900
000AE204E700
000000000000
2AEFEDDDEFF4
007F800003D4
005F80000075
005F80000011
005F80000A00
005F80001B00
005F80007B00
005FDCCDFB00
005F80002B00
005F80000001
005F8000000B
005F8000004B
007F800003D9
3AEFEDDEEFF7
ENDCHAR
STARTCHAR Igrave
ENCODING 204
SWIDTH 357 0
DWIDTH 7 0
BBX 7 17 0 0
BITMAP
04850000
019F4000
0004C200
4DFFFD50
008FA000
005F7000
005F7000
005F7000
005F7000
005F7000
005F7000
005F7000
005F7000
005F7000
005F7000
008FA000
4DFFFD50
ENDCHAR
STARTCHAR Iacute
ENCODING 205
SWIDTH 357 0
DWIDTH 7 0
BBX 7 17 0 0
BITMAP
00038600
002EB200
01C60000
4DFFFD50
008FA000
005F7000
005F7000
005F7000
005F7000
005F7000
005F7000
005F7000
005F7000
005F7000
005F7000
008FA000
4DFFFD50
ENDCHAR
STARTCHAR Icircumflex
ENCODING 206
SWIDTH 357 0
DWIDTH 7 0
BBX 7 17 0 0
BITMAP
007FA000
04E7D600
1C301B30
4DFFFD50
008FA000
005F7000
005F7000
005F7000
005F7000
005F7000
005F7000
005F7000
005F7000
005F7000
005F7000
008FA000
4DFFFD50
ENDCHAR
STARTCHAR Idieresis
ENCODING 207
SWIDTH 357 0
DWIDTH 7 0
BBX 7 18 0 0
BITMAP
02000100
9F503FB0
7E402EA0
00000000
4DFFFD50
008FA000
005F7000
005F7000
005F7000
005F7000
005F7000
005F7000
005F7000
005F7000
005F7000
005F7000
008FA000
4DFFFD50
ENDCHAR
STARTCHAR Eth
ENCODING 208
SWIDTH 737 0
DWIDTH 15 0
BBX 14 14 0 0
BITMAP
2AEFFDEEC82000
006F90016DF700
004F900001DF60
004F9000004FE1
004F9000000DF6
004F90000009F9
004F90000008FA
2CDFECCC0007FA
004F90000008F8
004F9000000BF6
004F9000001EE1
004F900000AF60
005F90003AF700
2AEFECCDC82000
ENDCHAR
STARTCHAR Ntilde
ENCODING 209
SWIDTH 742 0
DWIDTH 15 0
BBX 15 17 0 0
BITMAP
000009CA43800000
00005217CB300000
0000000000000000
5EFF500005EFFE40
01DFE200001DC000
008FFC0000088000
0088EF8000087000
00875FF400087000
008708FD10087000
008700CFA0087000
0087002EF6087000
00870005FE287000
008700008FC87000
008700000CFE7000
0097000002EF7000
00CA0000005F7000
5DFFD30000087000
ENDCHAR
STARTCHAR Ograve
ENCODING 210
SWIDTH 738 0
DWIDTH 15 0
BBX 13 17 1 0
BITMAP
00006830000000
00002BE2000000
0000006C100000
0005BCCCA40000
01BE40018F9000
0AF4000008F700
4FB0000001EF10
9F60000000AF70
DF300000007FA0
EF200000006FB0
EF200000006FA0
DF300000007F90
AF600000009F50
4FB0000000DE10
0BF3000005F600
01BE40005E7000
0005BCCCA30000
ENDCHAR
STARTCHAR Oacute
ENCODING 211
SWIDTH 738 0
DWIDTH 15 0
BBX 13 17 1 0
BITMAP
00000058400000
000004F9100000
00003C40000000
0005BCCCA40000
01BE40018F9000
0AF4000008F700
4FB0000001EF10
9F60000000AF70
DF300000007FA0
EF200000006FB0
EF200000006FA0
DF300000007F90
AF600000009F50
4FB0000000DE10
0BF3000005F600
01BE40005E7000
0005BCCCA30000
ENDCHAR
STARTCHAR Ocircumflex
ENCODING 212
SWIDTH 738 0
DWIDTH 15 0
BBX 13 17 1 0
BITMAP
00000AF7000000
00007D7E400000
0003B103C10000
0005BCCCA40000
01BE40018F9000
0AF4000008F700
4FB0000001EF10
9F60000000AF70
DF300000007FA0
EF200000006FB0
EF200000006FA0
DF300000007F90
AF600000009F50
4FB0000000DE10
0BF3000005F600
01BE40005E7000
0005BCCCA30000
ENDCHAR
STARTCHAR Otilde
ENCODING 213
SWIDTH 738 0
DWIDTH 15 0
BBX 13 17 1 0
BITMAP
0001AC93370000
0007118DA10000
00000000000000
0005BCCCA40000
01BE40018F9000
0AF4000008F700
4FB0000001EF10
9F60000000AF70
DF300000007FA0
EF200000006FB0
EF200000006FA0
DF300000007F90
AF600000009F50
4FB0000000DE10
0BF3000005F600
01BE40005E7000
0005BCCCA30000
ENDCHAR
STARTCHAR Odieresis
ENCODING 214
SWIDTH 738 0
DWIDTH 15 0
BBX 13 18 1 0
BITMAP
00001000200000
000CF206F80000
000AE205E70000
00000000000000
0005BCCCA40000
01BE40018F9000
0AF4000008F700
4FB0000001EF10
9F60000000AF70
DF300000007FA0
EF200000006FB0
EF200000006FA0
DF300000007F90
AF600000009F50
4FB0000000DE10
0BF3000005F600
01BE40005E7000
0005BCCCA30000
ENDCHAR
STARTCHAR multiply
ENCODING 215
SWIDTH 720 0
DWIDTH 14 0
BBX 12 12 1 -1
BITMAP
181000000064
2EB1000006F7
03EC10006F70
003EC106F700
0003EC7F8000
00003EF80000
00006FEC1000
0006F83EC100
006F8003EC10
06F800003EC1
3F80000003E9
040000000021
ENDCHAR
STARTCHAR Oslash
ENCODING 216
SWIDTH 737 0
DWIDTH 15 0
BBX 13 15 1 -1
BITMAP
0005BCCDA47500
01BE40018FD000
0AF300001EF700
4FA00000B5FE10
9F50000770BF60
DF30004B008F90
EF2001C1006FB0
FF200B40006FA0
DF308700007F90
AF64B000009F50
5FCC100000DE10
0CF6000005F600
09ED40005E7000
4A16CCCCA30000
01000000000000
ENDCHAR
STARTCHAR Ugrave
ENCODING 217
SWIDTH 752 0
DWIDTH 15 0
BBX 15 17 0 0
BITMAP
0000018700000000
0000006EA0000000
00000001A8000000
7EFFFD2003DFFE80
00DF60000009E100
00AF30000006C000
00AF30000005C000
00AF30000005C000
00AF30000005C000
00AF30000005C000
00AF30000005C000
00AF30000005C000
009F40000006B000
007F600000078000
002FB000000C3000
0009F70001890000
00006BDCBB500000
ENDCHAR
STARTCHAR Uacute
ENCODING 218
SWIDTH 752 0
DWIDTH 15 0
BBX 15 17 0 0
BITMAP
0000000178100000
0000000AE5000000
0000008A10000000
7EFFFD2003DFFE80
00DF60000009E100
00AF30000006C000
00AF30000005C000
00AF30000005C000
00AF30000005C000
00AF30000005C000
00AF30000005C000
00AF30000005C000
009F40000006B000
007F600000078000
002FB000000C3000
0009F70001890000
00006BDCBB500000
ENDCHAR
STARTCHAR Ucircumflex
ENCODING 219
SWIDTH 752 0
DWIDTH 15 0
BBX 15 17 0 0
BITMAP
0000002EE2000000
000000CAAC000000
0000097007800000
7EFFFD2003DFFE80
00DF60000009E100
00AF30000006C000
00AF30000005C000
00AF30000005C000
00AF30000005C000
00AF30000005C000
00AF30000005C000
00AF30000005C000
009F40000006B000
007F600000078000
002FB000000C3000
0009F70001890000
00006BDCBB500000
ENDCHAR
STARTCHAR Udieresis
ENCODING 220
SWIDTH 752 0
DWIDTH 15 0
BBX 15 18 0 0
BITMAP
0000010000100000
00003FB00CF30000
00002E900AE20000
0000000000000000
7EFFFD2003DFFE80
00DF60000009E100
00AF30000006C000
00AF30000005C000
00AF30000005C000
00AF30000005C000
00AF30000005C000
00AF30000005C000
00AF30000005C000
009F40000006B000
007F600000078000
002FB000000C3000
0009F70001890000
00006BDCBB500000
ENDCHAR
STARTCHAR Yacute
ENCODING 221
SWIDTH 647 0
DWIDTH 13 0
BBX 15 17 -1 0
BITMAP
0000000287000000
0000001CD4000000
000000A810000000
1DFFFD3004DFFD10
009FF100002F6000
000CF70000790000
0002FE1001D10000
00008F9009700000
00001EF32D000000
000006FBB5000000
000000CFB0000000
0000006F70000000
0000006F70000000
0000006F70000000
0000006F70000000
0000009FA0000000
00005DFFFD600000
ENDCHAR
STARTCHAR Thorn
ENCODING 222
SWIDTH 572 0
DWIDTH 11 0
BBX 11 14 0 0
BITMAP
4DFFFE800000
008FC1000000
005F80000000
005FDCDB7100
005F7006EE20
005F70007FA0
005F70004FC0
005F70004FB0
005F70007F70
005F7005EB00
005FDCCA5000
005F70000000
008FA0000000
4DFFFD800000
ENDCHAR
STARTCHAR germandbls
ENCODING 223
SWIDTH 563 0
DWIDTH 11 0
BBX 11 15 0 0
BITMAP
00039AA92000
003E300BD100
00AC0005F500
00DB0005F500
00EB0009E100
4CFB049A2000
00EB09C60000
00EB003CD300
00EB0001ED10
00EB00008F60
00EB00004F90
00EB00004F90
00EB1A205F60
01FB4F909D10
6DFB09EA9200
ENDCHAR
STARTCHAR agrave
ENCODING 224
SWIDTH 480 0
DWIDTH 10 0
BBX 10 14 0 0
BITMAP
005F800000
0007E10000
0000870000
0000000000
007BCD8000
08F107F500
0CD001F900
034000FA00
000048FA00
008C72FA00
0BD100FA00
3F8000FA00
2FC003EB01
06ED928EA2
ENDCHAR
STARTCHAR aacute
ENCODING 225
SWIDTH 480 0
DWIDTH 10 0
BBX 10 14 0 0
BITMAP
00004F9000
0000CB0000
0004B10000
0000000000
007BCD8000
08F107F500
0CD001F900
034000FA00
000048FA00
008C72FA00
0BD100FA00
3F8000FA00
2FC003EB01
06ED928EA2
ENDCHAR
STARTCHAR acircumflex
ENCODING 226
SWIDTH 480 0
DWIDTH 10 0
BBX 10 14 0 0
BITMAP
0006FA0000
002E5D5000
00B301B200
0000000000
007BCD8000
08F107F500
0CD001F900
034000FA00
000048FA00
008C72FA00
0BD100FA00
3F8000FA00
2FC003EB01
06ED928EA2
ENDCHAR
STARTCHAR atilde
ENCODING 227
SWIDTH 480 0
DWIDTH 10 0
BBX 10 13 0 0
BITMAP
008CA43800
05306CB300
0000000000
007BCD8000
08F107F500
0CD001F900
034000FA00
000048FA00
008C72FA00
0BD100FA00
3F8000FA00
2FC003EB01
06ED928EA2
ENDCHAR
STARTCHAR adieresis
ENCODING 228
SWIDTH 480 0
DWIDTH 10 0
BBX 10 15 0 0
BITMAP
0020001000
08F603FC00
07E502EA00
0000000000
0000000000
007BCD8000
08F107F500
0CD001F900
034000FA00
000048FA00
008C72FA00
0BD100FA00
3F8000FA00
2FC003EB01
06ED928EA2
ENDCHAR
STARTCHAR aring
ENCODING 229
SWIDTH 480 0
DWIDTH 10 0
BBX 10 15 0 0
BITMAP
0009CA1000
0059068000
0059068000
0009CA1000
0000000000
007BCD8000
08F107F500
0CD001F900
034000FA00
000048FA00
008C72FA00
0BD100FA00
3F8000FA00
2FC003EB01
06ED928EA2
ENDCHAR
STARTCHAR ae
ENCODING 230
SWIDTH 709 0
DWIDTH 14 0
BBX 14 10 0 0
BITMAP
029CCD53BCD910
0CD007FD202EB0
076003F90008F3
000028FDCCCCD6
004BA6F8000000
07E402F9000000
1F9000FD000003
3F8002EF9101B3
1FC0193EFFDFA0
05ED8103BEE800
ENDCHAR
STARTCHAR ccedilla
ENCODING 231
SWIDTH 446 0
DWIDTH 9 0
BBX 9 15 0 -5
BITMAP
003ACEC300
03E402EE10
0C90008F20
2F50000100
4F40000000
5F50000000
3F80000000
0EE1000340
07FC436B00
007DFE9100
0000900000
0000900000
0000CC6000
000006C000
0007BD5000
ENDCHAR
STARTCHAR egrave
ENCODING 232
SWIDTH 464 0
DWIDTH 9 0
BBX 9 14 0 0
BITMAP
003EB00000
0004F30000
00005A0000
0000000000
004BCDA200
04D101DC00
0D60006F50
2FDCCCCD70
4F50000000
4F70000000
2FD0000030
0CFA101950
04FFFDFB00
003BEE9100
ENDCHAR
STARTCHAR eacute
ENCODING 233
SWIDTH 464 0
DWIDTH 9 0
BBX 9 14 0 0
BITMAP
00002FC000
00008D1000
0001D20000
0000000000
004BCDA200
04D101DC00
0D60006F50
2FDCCCCD70
4F50000000
4F70000000
2FD0000030
0CFA101950
04FFFDFB00
003BEE9100
ENDCHAR
STARTCHAR ecircumflex
ENCODING 234
SWIDTH 464 0
DWIDTH 9 0
BBX 9 14 0 0
BITMAP
0003FC0000
001D7B9000
009500A400
0000000000
004BCDA200
04D101DC00
0D60006F50
2FDCCCCD70
4F50000000
4F70000000
2FD0000030
0CFA101950
04FFFDFB00
003BEE9100
ENDCHAR
STARTCHAR edieresis
ENCODING 235
SWIDTH 464 0
DWIDTH 9 0
BBX 9 15 0 0
BITMAP
0010001100
05F901EE10
04E800CD10
0000000000
0000000000
004BCDA200
04D101DC00
0D60006F50
2FDCCCCD70
4F50000000
4F70000000
2FD0000030
0CFA101950
04FFFDFB00
003BEE9100
ENDCHAR
STARTCHAR igrave
ENCODING 236
SWIDTH 285 0
DWIDTH 6 0
BBX 6 14 0 0
BITMAP
7F6000
09D000
00A500
000000
29DA00
13FB00
00EB00
00EB00
00EB00
00EB00
00EB00
00EB00
01FC00
4EFFD2
ENDCHAR
STARTCHAR iacute
ENCODING 237
SWIDTH 285 0
DWIDTH 6 0
BBX 6 14 0 0
BITMAP
006F70
00D900
05A000
000000
29DA00
13FB00
00EB00
00EB00
00EB00
00EB00
00EB00
00EB00
01FC00
4EFFD2
ENDCHAR
STARTCHAR icircumflex
ENCODING 238
SWIDTH 285 0
DWIDTH 6 0
BBX 6 14 0 0
BITMAP
07F700
2E7E20
A404A0
200020
29DA00
13FB00
00EB00
00EB00
00EB00
00EB00
00EB00
00EB00
01FC00
4EFFD2
ENDCHAR
STARTCHAR idieresis
ENCODING 239
SWIDTH 285 0
DWIDTH 6 0
BBX 7 14 -1 0
BITMAP
5E606E50
6F808F70
02000200
00000000
029DA000
013FB000
000EB000
000EB000
000EB000
000EB000
000EB000
000EB000
001FC000
04EFFD20
ENDCHAR
STARTCHAR eth
ENCODING 240
SWIDTH 532 0
DWIDTH 11 0
BBX 10 15 0 0
BITMAP
019BDA3023
001019FBA3
00003ADF20
0001811EA0
00000009F1
003ACCA7F5
03E7004EF7
0CD00009F9
2F900005FA
4F800004F9
4F900005F8
2FA00007F4
0DE0000BD0
04F8004F50
004BDCB400
ENDCHAR
STARTCHAR ntilde
ENCODING 241
SWIDTH 576 0
DWIDTH 12 0
BBX 12 13 0 0
BITMAP
0004CC738200
000803AD7000
000000000000
29DA39CD7000
00FE7008F300
00EB0002F800
00EB0001F900
00EB0001F900
00EB0001F900
00EB0001F900
00EB0001F900
01FC0003FB00
4EFFD36EFFD1
ENDCHAR
STARTCHAR ograve
ENCODING 242
SWIDTH 514 0
DWIDTH 10 0
BBX 10 14 0 0
BITMAP
000CF20000
0001C90000
00001C1000
0000000000
003ADCC600
03E8004F80
0CD0000AF2
2FA00006F7
4F900004F9
4F900004F8
2FA00005F6
0DE00008F1
04F9002E70
003BDCC500
ENDCHAR
STARTCHAR oacute
ENCODING 243
SWIDTH 514 0
DWIDTH 10 0
BBX 10 14 0 0
BITMAP
00000BF300
00003F5000
0000A60000
0000000000
003ADCC600
03E8004F80
0CD0000AF2
2FA00006F7
4F900004F9
4F900004F8
2FA00005F6
0DE00008F1
04F9002E70
003BDCC500
ENDCHAR
STARTCHAR ocircumflex
ENCODING 244
SWIDTH 514 0
DWIDTH 10 0
BBX 10 14 0 0
BITMAP
0000CF4000
0008B6D100
004A005A00
0000000000
003ADCC600
03E8004F80
0CD0000AF2
2FA00006F7
4F900004F9
4F900004F8
2FA00005F6
0DE00008F1
04F9002E70
003BDCC500
ENDCHAR
STARTCHAR otilde
ENCODING 245
SWIDTH 514 0
DWIDTH 10 0
BBX 10 13 0 0
BITMAP
002BC83650
008029D900
0000000000
003ADCC600
03E8004F80
0CD0000AF2
2FA00006F7
4F900004F9
4F900004F8
2FA00005F6
0DE00008F1
04F9002E70
003BDCC500
ENDCHAR
STARTCHAR odieresis
ENCODING 246
SWIDTH 514 0
DWIDTH 10 0
BBX 10 15 0 0
BITMAP
0011000200
01EE109F60
00CD107E40
0000000000
0000000000
003ADCC600
03E8004F80
0CD0000AF2
2FA00006F7
4F900004F9
4F900004F8
2FA00005F6
0DE00008F1
04F9002E70
003BDCC500
ENDCHAR
STARTCHAR divide
ENCODING 247
SWIDTH 720 0
DWIDTH 14 0
BBX 13 11 1 0
BITMAP
00000AE2000000
00000CF3000000
00000010000000
00000000000000
00000000000000
BFFFFFFFFFFF20
23333333333300
00000000000000
00000010000000
00000CF3000000
00000AE2000000
ENDCHAR
STARTCHAR oslash
ENCODING 248
SWIDTH 514 0
DWIDTH 10 0
BBX 10 10 0 0
BITMAP
003ADCC890
03E8007F70
0CE000ACF2
2FA00766F6
4F904A04F8
4F92B104F8
2FBB2005F6
0CF50008F1
07F8002E70
1B3BCCC500
ENDCHAR
STARTCHAR ugrave
ENCODING 249
SWIDTH 570 0
DWIDTH 11 0
BBX 11 14 0 0
BITMAP
0007F6000000
00009D000000
00000A500000
000000000000
6CE7009DE600
05F70007F600
03F70004F600
03F70004F600
03F70004F600
03F70004F600
03F70004F600
01F90004F600
00DD102CF700
003CEA74FC50
ENDCHAR
STARTCHAR uacute
ENCODING 250
SWIDTH 570 0
DWIDTH 11 0
BBX 11 14 0 0
BITMAP
000006F70000
00000D900000
00005A000000
000000000000
6CE7009DE600
05F70007F600
03F70004F600
03F70004F600
03F70004F600
03F70004F600
03F70004F600
01F90004F600
00DD102CF700
003CEA74FC50
ENDCHAR
STARTCHAR ucircumflex
ENCODING 251
SWIDTH 570 0
DWIDTH 11 0
BBX 11 14 0 0
BITMAP
00008F800000
0004D5D40000
001B202B1000
000000000000
6CE7009DE600
05F70007F600
03F70004F600
03F70004F600
03F70004F600
03F70004F600
03F70004F600
01F90004F600
00DD102CF700
003CEA74FC50
ENDCHAR
STARTCHAR udieresis
ENCODING 252
SWIDTH 570 0
DWIDTH 11 0
BBX 11 15 0 0
BITMAP
000100010000
00AF404FA000
008E303E8000
000000000000
000000000000
6CE7009DE600
05F70007F600
03F70004F600
03F70004F600
03F70004F600
03F70004F600
03F70004F600
01F90004F600
00DD102CF700
003CEA74FC50
ENDCHAR
STARTCHAR yacute
ENCODING 253
SWIDTH 483 0
DWIDTH 10 0
BBX 11 19 -1 -5
BITMAP
000000BF3000
000003F50000
00000A600000
000000000000
3EFFD107EFB0
02FF00007B00
009F4000B400
003FB001D000
000BF2058000
0005F80A3000
0000DE1C0000
00006F970000
00001EF20000
00000AB00000
000009600000
00001D100000
000088000000
0AD9D1000000
09EC30000000
ENDCHAR
STARTCHAR thorn
ENCODING 254
SWIDTH 524 0
DWIDTH 10 0
BBX 10 19 0 -5
BITMAP
6AE4000000
19F4000000
06F4000000
06F4000000
06F46DEB20
06FB737FE1
06F60007F7
06F40003FA
06F40001FB
06F40001FA
06F40003F7
06F40007F2
06FC202E70
06FBDCC500
06F4000000
06F4000000
06F4000000
08F7000000
BFFFD30000
ENDCHAR
STARTCHAR ydieresis
ENCODING 255
SWIDTH 483 0
DWIDTH 10 0
BBX 11 20 -1 -5
BITMAP
000110002000
001EE109F600
000CD107E400
000000000000
000000000000
3EFFD107EFB0
02FF00007B00
009F4000B400
003FB001D000
000BF2058000
0005F80A3000
0000DE1C0000
00006F970000
00001EF20000
00000AB00000
000009600000
00001D100000
000088000000
0AD9D1000000
09EC30000000
ENDCHAR
STARTCHAR Amacron
ENCODING 256
SWIDTH 718 0
DWIDTH 14 0
BBX 15 16 0 0
BITMAP
0000ACCCCC000000
0000000000000000
0000008A00000000
000000EF20000000
000005FF80000000
00000B7FE0000000
00002E1BF5000000
00008906FC000000
0000E401FF300000
0006E000BF900000
000C80005FE10000
003FCCCCCFF70000
009B000008FD0000
01E4000001FF4000
09F0000000CFC100
CFFD30001DFFFE30
ENDCHAR
STARTCHAR amacron
ENCODING 257
SWIDTH 480 0
DWIDTH 10 0
BBX 10 13 0 0
BITMAP
03CCCCC600
0000000000
0000000000
007BCD8000
08F107F500
0CD001F900
034000FA00
000048FA00
008C72FA00
0BD100FA00
3F8000FA00
2FC003EB01
06ED928EA2
ENDCHAR
STARTCHAR Abreve
ENCODING 258
SWIDTH 718 0
DWIDTH 14 0
BBX 15 19 0 0
BITMAP
0000100001000000
0000A0000A000000
0000770059000000
000007BC91000000
0000000000000000
0000008A00000000
000000EF20000000
000005FF80000000
00000B7FE0000000
00002E1BF5000000
00008906FC000000
0000E401FF300000
0006E000BF900000
000C80005FE10000
003FCCCCCFF70000
009B000008FD0000
01E4000001FF4000
09F0000000CFC100
CFFD30001DFFFE30
ENDCHAR
STARTCHAR abreve
ENCODING 259
SWIDTH 480 0
DWIDTH 10 0
BBX 10 15 0 0
BITMAP
0000000100
0370004600
00B201A200
003ACB4000
0000000000
007BCD8000
08F107F500
0CD001F900
034000FA00
000048FA00
008C72FA00
0BD100FA00
3F8000FA00
2FC003EB01
06ED928EA2
ENDCHAR
STARTCHAR Aogonek
ENCODING 260
SWIDTH 719 0
DWIDTH 14 0
BBX 15 19 0 -5
BITMAP
0000008B00000000
000000EF20000000
000005FF80000000
00000B7FE0000000
00002E1BF6000000
00008A06FC000000
0000E401FF300000
0005E000AF900000
000C90005FF10000
003FCCCCCFF70000
009B000009FD0000
01E4000003FF5000
08F0000000CFD100
CFFD300002DFFE40
0000000076000000
00000007A0000000
0000000E50000000
0000000E70210000
00000007EB700000
ENDCHAR
STARTCHAR aogonek
ENCODING 261
SWIDTH 480 0
DWIDTH 10 0
BBX 10 15 0 -5
BITMAP
007BCD8000
08F106F500
0CD001F900
033000FA00
000159FA00
019C61FA00
0CC100FA00
3F8000FA00
1FC005EB12
06ED928FE2
0000005E30
000003E300
000009B000
000009C014
000002DC91
ENDCHAR
STARTCHAR Cacute
ENCODING 262
SWIDTH 670 0
DWIDTH 13 0
BBX 12 17 1 0
BITMAP
000000485000
000003EB2000
00001C600000
0005ACCDB7C3
01AE50005EF3
0AF4000005F3
4FB0000000D3
9F6000000093
DF3000000000
EF2000000000
EF2000000000
DF3000000000
AF6000000000
5FB000000000
0BF400000035
01CE600017A1
0006BDCBA500
ENDCHAR
STARTCHAR cacute
ENCODING 263
SWIDTH 446 0
DWIDTH 9 0
BBX 9 14 0 0
BITMAP
00002FC000
00008D1000
0001D20000
0000000000
003ACEC400
03E301EF10
0C80006D10
2F50000000
4F40000000
5F60000000
3FB0000020
0EF7001B30
05FFEDF900
005CFD8000
ENDCHAR
STARTCHAR Ccircumflex
ENCODING 264
SWIDTH 670 0
DWIDTH 13 0
BBX 12 17 1 0
BITMAP
000008FA0000
00004E7E6000
0002C202B200
0005ACCDB7C3
01AE50005EF3
0AF4000005F3
4FB0000000D3
9F6000000093
DF3000000000
EF2000000000
EF2000000000
DF3000000000
AF6000000000
5FB000000000
0BF400000035
01CE600017A1
0006BDCBA500
ENDCHAR
STARTCHAR ccircumflex
ENCODING 265
SWIDTH 446 0
DWIDTH 9 0
BBX 9 14 0 0
BITMAP
0003FC0000
001D7B8000
009500A400
0000000000
003ACEC400
03E301EF10
0C80006D10
2F50000000
4F40000000
5F60000000
3FB0000020
0EF7001B30
05FFEDF900
005CFD8000
ENDCHAR
STARTCHAR Cdotaccent
ENCODING 266
SWIDTH 670 0
DWIDTH 13 0
BBX 12 18 1 0
BITMAP
000000200000
000006F80000
000005E60000
000000000000
0005ACCDB7C3
01AE50005EF3
0AF4000005F3
4FB0000000D3
9F6000000093
DF3000000000
EF2000000000
EF2000000000
DF3000000000
AF6000000000
5FB000000000
0BF400000035
01CE600017A1
0006BDCBA500
ENDCHAR
STARTCHAR cdotaccent
ENCODING 267
SWIDTH 446 0
DWIDTH 9 0
BBX 9 15 0 0
BITMAP
0000100000
0003FC0000
0002EA0000
0000000000
0000000000
003ACEC400
03E301EF10
0C80006D10
2F50000000
4F40000000
5F60000000
3FB0000020
0EF7001B30
05FFEDF900
005CFD8000
ENDCHAR
STARTCHAR Ccaron
ENCODING 268
SWIDTH 670 0
DWIDTH 13 0
BBX 12 17 1 0
BITMAP
0002C302B200
00004E7E6000
000008FA0000
0005ACCDB7C3
01AE50005EF3
0AF4000005F3
4FB0000000D3
9F6000000093
DF3000000000
EF2000000000
EF2000000000
DF3000000000
AF6000000000
5FB000000000
0BF400000035
01CE600017A1
0006BDCBA500
ENDCHAR
STARTCHAR ccaron
ENCODING 269
SWIDTH 446 0
DWIDTH 9 0
BBX 9 14 0 0
BITMAP
009500A400
001D6A8000
0003FC0000
0000000000
003ACEC400
03E301EF10
0C80006D10
2F50000000
4F40000000
5F60000000
3FB0000020
0EF7001B30
05FFEDF900
005CFD8000
ENDCHAR
STARTCHAR Dcaron
ENCODING 270
SWIDTH 730 0
DWIDTH 15 0
BBX 14 17 0 0
BITMAP
0000A600960000
00001D9BA00000
000004FD100000
3AFFEDEEB72000
007F80026EE600
005F800002DF50
005F8000004FD0
005F8000000DF4
005F8000000AF7
005F80000008F8
005F80000008F8
005F80000009F7
005F8000000BF4
005F8000001FD0
005F800000AF40
007F80003BE500
3AEFECCDC72000
ENDCHAR
STARTCHAR dcaron
ENCODING 271
SWIDTH 626 0
DWIDTH 13 0
BBX 13 14 0 0
BITMAP
0000018CD08F10
0000002DD09E00
0000000CD0A900
0000000CD0B200
0019CCCED00000
01D7005FD00000
0AC0000DD00000
1F80000CD00000
4F60000CD00000
5F60000CD00000
4F80000CD00000
1FB0000CD00000
08F6003ED00000
008EDA7CE71000
ENDCHAR
STARTCHAR Dcroat
ENCODING 272
SWIDTH 733 0
DWIDTH 15 0
BBX 14 14 0 0
BITMAP
3BFFEDEEB72000
007F80016EE600
005F800002EF50
005F8000005FD0
005F8000000EF4
005F8000000BF8
005F80000009F9
3CDFDCCB0009F9
005F8000000AF7
005F8000000CF4
005F8000002FD0
005F800000BF50
007F80003BE600
3AEFECCDC72000
ENDCHAR
STARTCHAR dcroat
ENCODING 273
SWIDTH 540 0
DWIDTH 11 0
BBX 11 14 0 0
BITMAP
0000019CD000
0000001DD000
0000ACCEFC30
0000000CD000
0019CCBED000
01D7004FD000
0AC0000ED000
1F80000CD000
4F60000CD000
5F60000CD000
4F80000CD000
1FB0000CD000
08F6003EE000
008EDA7CE710
ENDCHAR
STARTCHAR Emacron
ENCODING 274
SWIDTH 626 0
DWIDTH 13 0
BBX 12 16 0 0
BITMAP
0006CCCCC400
000000000000
2AEFEDDDEFF4
007F800003D4
005F80000075
005F80000011
005F80000A00
005F80001B00
005F80007B00
005FDCCDFB00
005F80002B00
005F80000001
005F8000000B
005F8000004B
007F800003D9
3AEFEDDEEFF7
ENDCHAR
STARTCHAR emacron
ENCODING 275
SWIDTH 464 0
DWIDTH 9 0
BBX 9 13 0 0
BITMAP
01CCCCC900
0000000000
0000000000
004BCDA200
04D101DC00
0D60006F50
2FDCCCCD70
4F50000000
4F70000000
2FD0000030
0CFA101950
04FFFDFB00
003BEE9100
ENDCHAR
STARTCHAR Ebreve
ENCODING 276
SWIDTH 626 0
DWIDTH 13 0
BBX 12 19 0 0
BITMAP
000100000100
000730007300
0002B102B000
00004BCA2000
000000000000
2AEFEDDDEFF4
007F800003D4
005F80000075
005F80000011
005F80000A00
005F80001B00
005F80007B00
005FDCCDFB00
005F80002B00
005F80000001
005F8000000B
005F8000004B
007F800003D9
3AEFEDDEEFF7
ENDCHAR
STARTCHAR ebreve
ENCODING 277
SWIDTH 464 0
DWIDTH 9 0
BBX 9 15 0 0
BITMAP
0010000100
00A0001900
00A3008400
0019CB6000
0000000000
004BCDA200
04D101DC00
0D60006F50
2FDCCCCD70
4F50000000
4F70000000
2FD0000030
0CFA101950
04FFFDFB00
003BEE9100
ENDCHAR
STARTCHAR Edotaccent
ENCODING 278
SWIDTH 626 0
DWIDTH 13 0
BBX 12 18 0 0
BITMAP
000000200000
000008F60000
000007E50000
000000000000
2AEFEDDDEFF4
007F800003D4
005F80000075
005F80000011
005F80000A00
005F80001B00
005F80007B00
005FDCCDFB00
005F80002B00
005F80000001
005F8000000B
005F8000004B
007F800003D9
3AEFEDDEEFF7
ENDCHAR
STARTCHAR edotaccent
ENCODING 279
SWIDTH 464 0
DWIDTH 9 0
BBX 9 15 0 0
BITMAP
0000110000
0003FD0000
0002DB0000
0000000000
0000000000
004BCDA200
04D101DC00
0D60006F50
2FDCCCCD70
4F50000000
4F70000000
2FD0000030
0CFA101950
04FFFDFB00
003BEE9100
ENDCHAR
STARTCHAR Eogonek
ENCODING 280
SWIDTH 625 0
DWIDTH 13 0
BBX 12 19 0 -5
BITMAP
28EFDCCCDFF3
007F700002D4
005F70000074
005F70000011
005F70000A00
005F70001B00
005F70007B00
005FDCCDFB00
005F70002A00
005F70000000
005F7000000B
005F7000003B
007F700001C9
28EFDCCCDFF7
000000002C20
00000000C400
00000005F000
00000005F103
00000001BDA3
ENDCHAR
STARTCHAR eogonek
ENCODING 281
SWIDTH 464 0
DWIDTH 9 0
BBX 9 15 0 -5
BITMAP
004BCD9100
04E302EA00
0D90008F30
2F60006F70
4FDCCCCD80
4F50000000
2FA0000000
0CF7000670
04FFEDEE10
003BEFE400
00003D3000
0001E30000
0007D00000
0007E00300
0001CDA200
ENDCHAR
STARTCHAR Ecaron
ENCODING 282
SWIDTH 626 0
DWIDTH 13 0
BBX 12 17 0 0
BITMAP
0003C203C100
00006E7E4000
00000AF70000
2AEFEDDDEFF4
007F800003D4
005F80000075
005F80000011
005F80000A00
005F80001B00
005F80007B00
005FDCCDFB00
005F80002B00
005F80000001
005F8000000B
005F8000004B
007F800003D9
3AEFEDDEEFF7
ENDCHAR
STARTCHAR ecaron
ENCODING 283
SWIDTH 464 0
DWIDTH 9 0
BBX 9 14 0 0
BITMAP
0095009400
001D6A9000
0003FC0000
0000000000
004BCDA200
04D101DC00
0D60006F50
2FDCCCCD70
4F50000000
4F70000000
2FD0000030
0CFA101950
04FFFDFB00
003BEE9100
ENDCHAR
STARTCHAR Gcircumflex
ENCODING 284
SWIDTH 720 0
DWIDTH 14 0
BBX 13 17 1 0
BITMAP
000008FA000000
00004E7E600000
0002C202C20000
0005ACCDB7C300
01AE50005EF300
0AF3000005F300
4FA0000000D300
9F500000009300
DF200000000000
EF100000000000
FF200003DDDD90
EF3000000BF800
BF60000007F500
6FA0000007F500
0DF4000007F500
02DE50004DF400
0017CDCCC82000
ENDCHAR
STARTCHAR gcircumflex
ENCODING 285
SWIDTH 484 0
DWIDTH 10 0
BBX 10 19 0 -5
BITMAP
0003FC0000
001D7B9000
009500A400
0000000000
006CCFFEC5
07F403FD00
0DD000AF30
0EC0008F40
0BE0009F10
02D702E900
01BACB7000
0C90000000
0FFEDCB920
05FFFFFFE1
08500016F4
4F100000C3
8F100000C0
5F91001940
07DEB97100
ENDCHAR
STARTCHAR Gbreve
ENCODING 286
SWIDTH 720 0
DWIDTH 14 0
BBX 13 19 1 0
BITMAP
00010000010000
00055000550000
0001C201B10000
00003BCB300000
00000000000000
0005ACCDB7C300
01AE50005EF300
0AF3000005F300
4FA0000000D300
9F500000009300
DF200000000000
EF100000000000
FF200003DDDD90
EF3000000BF800
BF60000007F500
6FA0000007F500
0DF4000007F500
02DE50004DF400
0017CDCCC82000
ENDCHAR
STARTCHAR gbreve
ENCODING 287
SWIDTH 484 0
DWIDTH 10 0
BBX 10 20 0 -5
BITMAP
0010000100
00A0001900
00A3008400
0019CB6000
0000000000
006CCFFEC5
07F403FD00
0DD000AF30
0EC0008F40
0BE0009F10
02D702E900
01BACB7000
0C90000000
0FFEDCB920
05FFFFFFE1
08500016F4
4F100000C3
8F100000C0
5F91001940
07DEB97100
ENDCHAR
STARTCHAR Gdotaccent
ENCODING 288
SWIDTH 720 0
DWIDTH 14 0
BBX 13 18 1 0
BITMAP
00000020000000
000007F8000000
000005E6000000
00000000000000
0005ACCDB7C300
01AE50005EF300
0AF3000005F300
4FA0000000D300
9F500000009300
DF200000000000
EF100000000000
FF200003DDDD90
EF3000000BF800
BF60000007F500
6FA0000007F500
0DF4000007F500
02DE50004DF400
0017CDCCC82000
ENDCHAR
STARTCHAR gdotaccent
ENCODING 289
SWIDTH 484 0
DWIDTH 10 0
BBX 10 20 0 -5
BITMAP
0000110000
0003FD0000
0002DB0000
0000000000
0000000000
006CCFFEC5
07F403FD00
0DD000AF30
0EC0008F40
0BE0009F10
02D702E900
01BACB7000
0C90000000
0FFEDCB920
05FFFFFFE1
08500016F4
4F100000C3
8F100000C0
5F91001940
07DEB97100
ENDCHAR
STARTCHAR Gcommaaccent
ENCODING 290
SWIDTH 720 0
DWIDTH 14 0
BBX 13 20 1 -6
BITMAP
0005ACCDB7C300
01AE50005EF300
0AF3000005F300
4FA0000000D300
9F500000009300
DF200000000000
EF100000000000
FF200003DDDD90
EF3000000BF800
BF60000007F500
6FA0000007F500
0DF4000007F500
02DE50004DF400
0017CDCCC82000
00000110000000
00000DF4000000
00000DF8000000
00000086000000
000006A0000000
00000300000000
ENDCHAR
STARTCHAR gcommaaccent
ENCODING 291
SWIDTH 484 0
DWIDTH 10 0
BBX 10 21 0 -5
BITMAP
0000050000
0001B50000
0007910000
0008FE0000
0003EC0000
0000000000
006CCFFEC5
07F403FD00
0DD000AF30
0EC0008F40
0BE0009F10
02D702E900
01BACB7000
0C90000000
0FFEDCB920
05FFFFFFE1
08500016F4
4F100000C3
8F100000C0
5F91001940
07DEB97100
ENDCHAR
STARTCHAR Hcircumflex
ENCODING 292
SWIDTH 777 0
DWIDTH 16 0
BBX 15 17 0 0
BITMAP
0000004FD1000000
000001E8CA000000
00000B5009600000
3DFFFD500BFFFEA0
008FB000003FF100
005F8000000FD000
005F8000000ED000
005F8000000ED000
005F8000000ED000
005F8000000ED000
005FDCCCCCCFD000
005F8000000ED000
005F8000000ED000
005F8000000ED000
005F8000000ED000
008FA000001FF100
3CFFFD500BEFFEA0
ENDCHAR
STARTCHAR hcircumflex
ENCODING 293
SWIDTH 577 0
DWIDTH 12 0
BBX 12 18 0 0
BITMAP
0000AF800000
0006D7E40000
003C203C1000
000000000000
49DA00000000
14FA00000000
00FA00000000
00FA00000000
00FA49CE7000
00FE7008F300
00FA0002F800
00FA0001F900
00FA0000FA00
00FA0000FA00
00FA0000FA00
00FA0000FA00
01FC0002FC00
5EFFD26EFFD1
ENDCHAR
STARTCHAR Hbar
ENCODING 294
SWIDTH 788 0
DWIDTH 16 0
BBX 15 14 0 0
BITMAP
2DFFFE7009EFFFC0
007FC000002FF300
004F9000000DF000
004F9000000DF000
2CDFECCCCCCFFCB0
004F9000000DF000
004F9000000DF000
004FECCCCCCFF000
004F9000000DF000
004F9000000DF000
004F9000000DF000
004F9000000DF000
006FB000001EF200
2CFFFD7009EFFEC0
ENDCHAR
STARTCHAR hbar
ENCODING 295
SWIDTH 579 0
DWIDTH 12 0
BBX 12 14 0 0
BITMAP
4ADB00000000
01FB00000000
6CFECCB00000
00EB00000000
00EB39CE8000
00EE7007F400
00EB0002F800
00EB0000FA00
00EB0000FA00
00EB0000FA00
00EB0000FA00
00EB0000FA00
01FC0002FC00
4EFFD25EFFD2
ENDCHAR
STARTCHAR Itilde
ENCODING 296
SWIDTH 357 0
DWIDTH 7 0
BBX 7 17 0 0
BITMAP
09CA4380
5217CB30
00000000
4DFFFD50
008FA000
005F7000
005F7000
005F7000
005F7000
005F7000
005F7000
005F7000
005F7000
005F7000
005F7000
008FA000
4DFFFD50
ENDCHAR
STARTCHAR itilde
ENCODING 297
SWIDTH 285 0
DWIDTH 6 0
BBX 7 14 -1 0
BITMAP
05C60170
070B3630
3402C800
00000000
029DA000
013FB000
000EB000
000EB000
000EB000
000EB000
000EB000
000EB000
001FC000
04EFFD20
ENDCHAR
STARTCHAR Imacron
ENCODING 298
SWIDTH 357 0
DWIDTH 7 0
BBX 7 16 0 0
BITMAP
4CCCCC60
00000000
4DFFFD50
008FA000
005F7000
005F7000
005F7000
005F7000
005F7000
005F7000
005F7000
005F7000
005F7000
005F7000
008FA000
4DFFFD50
ENDCHAR
STARTCHAR imacron
ENCODING 299
SWIDTH 285 0
DWIDTH 6 0
BBX 7 13 -1 0
BITMAP
1CCCCC10
00000000
00000000
029DA000
013FB000
000EB000
000EB000
000EB000
000EB000
000EB000
000EB000
001FC000
04EFFD20
ENDCHAR
STARTCHAR Ibreve
ENCODING 300
SWIDTH 357 0
DWIDTH 7 0
BBX 7 19 0 0
BITMAP
10000010
46000460
1C201B20
03ACB400
00000000
4DFFFD50
008FA000
005F7000
005F7000
005F7000
005F7000
005F7000
005F7000
005F7000
005F7000
005F7000
005F7000
008FA000
4DFFFD50
ENDCHAR
STARTCHAR ibreve
ENCODING 301
SWIDTH 285 0
DWIDTH 6 0
BBX 7 14 -1 0
BITMAP
19000910
0B203A00
02ACA200
00000000
029DA000
013FB000
000EB000
000EB000
000EB000
000EB000
000EB000
000EB000
001FC000
04EFFD20
ENDCHAR
STARTCHAR Iogonek
ENCODING 302
SWIDTH 357 0
DWIDTH 7 0
BBX 7 19 0 -5
BITMAP
4DFFFD50
008FA000
005F7000
005F7000
005F7000
005F7000
005F7000
005F7000
005F7000
005F7000
005F7000
005F7000
008FA000
4DFFFD50
001B3000
00A60000
03F20000
03F30300
00AEB400
ENDCHAR
STARTCHAR iogonek
ENCODING 303
SWIDTH 285 0
DWIDTH 6 0
BBX 6 19 0 -5
BITMAP
01DC00
02ED00
001100
000000
29DA00
13FB00
00EB00
00EB00
00EB00
00EB00
00EB00
00EB00
01FC00
4EFFD2
00A500
088000
1F4000
1F5030
08EB60
ENDCHAR
STARTCHAR Idotaccent
ENCODING 304
SWIDTH 357 0
DWIDTH 7 0
BBX 7 18 0 0
BITMAP
00020000
006F9000
004E7000
00000000
4DFFFD50
008FA000
005F7000
005F7000
005F7000
005F7000
005F7000
005F7000
005F7000
005F7000
005F7000
005F7000
008FA000
4DFFFD50
ENDCHAR
STARTCHAR dotlessi
ENCODING 305
SWIDTH 285 0
DWIDTH 6 0
BBX 6 10 0 0
BITMAP
29DA00
13FB00
00EB00
00EB00
00EB00
00EB00
00EB00
00EB00
01FC00
4EFFD2
ENDCHAR
STARTCHAR IJ
ENCODING 306
SWIDTH 753 0
DWIDTH 15 0
BBX 15 14 0 0
BITMAP
4DFFFD500CFFFE80
008FA000004FE100
005F7000001FC000
005F7000001FC000
005F7000001FC000
005F7000001FC000
005F7000001FC000
005F7000001FC000
005F7000001FC000
005F7000001FC000
005F7000001FC000
005F7006701FB000
008FA00CF43F6000
4DFFFD54DEC80000
ENDCHAR
STARTCHAR ij
ENCODING 307
SWIDTH 548 0
DWIDTH 11 0
BBX 10 19 0 -5
BITMAP
01DC0006E6
02ED0008F7
0011000020
0000000000
29DA006AE5
13FB0028F5
00EB0004F5
00EB0004F5
00EB0004F5
00EB0004F5
00EB0004F5
00EB0004F5
01FC0004F5
4EFFD204F5
00000004F5
00000005F4
00004106F1
0002FB19A0
00009EEA10
ENDCHAR
STARTCHAR Jcircumflex
ENCODING 308
SWIDTH 396 0
DWIDTH 8 0
BBX 8 17 0 0
BITMAP
0005FC10
002E8C90
00B501A5
02CFFFE6
0006FD00
0003FA00
0003FA00
0003FA00
0003FA00
0003FA00
0003FA00
0003FA00
0003FA00
0003FA00
8603F900
EF25F400
6DDC7000
ENDCHAR
STARTCHAR jcircumflex
ENCODING 309
SWIDTH 263 0
DWIDTH 5 0
BBX 8 19 -2 -5
BITMAP
0007F900
003E5D50
01B301B2
00000000
0039DA00
0014FA00
0000FA00
0000FA00
0000FA00
0000FA00
0000FA00
0000FA00
0000FA00
0000FA00
0000FA00
0000F800
3201F600
CE25E100
6EEC3000
ENDCHAR
STARTCHAR Kcommaaccent
ENCODING 310
SWIDTH 702 0
DWIDTH 14 0
BBX 14 20 0 -6
BITMAP
4DFFFD50AFFFD1
008FA0000CE500
005F70004E3000
005F7003D30000
005F703D300000
005F73D3000000
005FAE50000000
005FBFE3000000
005F74FE200000
005F705FE20000
005F7005FE2000
005F70006FD200
008FA0000CFD30
4DFFFD50AFFFFB
00000011000000
000001EE200000
000001EF600000
0000000B400000
00000089000000
00000030000000
ENDCHAR
STARTCHAR kcommaaccent
ENCODING 311
SWIDTH 542 0
DWIDTH 11 0
BBX 11 20 0 -6
BITMAP
39DA00000000
02FA00000000
00FA00000000
00FA00000000
00FA03EFFD10
00FA007D4000
00FA05C10000
00FA5A100000
00FDF8000000
00FAAF600000
00FA0CF50000
00FA01DE3000
01FB002FE300
5EFFD28FFFA0
000002000000
0000AF800000
00009FC00000
000004A00000
00004B200000
000030000000
ENDCHAR
STARTCHAR kgreenlandic
ENCODING 312
SWIDTH 542 0
DWIDTH 11 0
BBX 11 10 0 0
BITMAP
39DB00DFFD10
14FB003F6000
00EB02D30000
00EB2C300000
00ECD8000000
00EBCF500000
00EB1CF40000
00EB01DE3000
01FC002EE300
4EFFD27FFFA0
ENDCHAR
STARTCHAR Lacute
ENCODING 313
SWIDTH 585 0
DWIDTH 12 0
BBX 12 17 0 0
BITMAP
000058400000
0004F9100000
002C40000000
2DFFFE500000
008FB0000000
005F80000000
005F80000000
005F80000000
005F80000000
005F80000000
005F80000000
005F80000000
005F80000000
005F80000074
005F800000D2
007F900008F0
19EFFCCCEFD0
ENDCHAR
STARTCHAR lacute
ENCODING 314
SWIDTH 283 0
DWIDTH 6 0
BBX 6 18 0 0
BITMAP
000782
009E60
07B200
000000
39CA00
14FA00
00FA00
00FA00
00FA00
00FA00
00FA00
00FA00
00FA00
00FA00
00FA00
00FA00
02FC00
5EFFD2
ENDCHAR
STARTCHAR Lcommaaccent
ENCODING 315
SWIDTH 585 0
DWIDTH 12 0
BBX 12 20 0 -6
BITMAP
2DFFFE500000
008FB0000000
005F80000000
005F80000000
005F80000000
005F80000000
005F80000000
005F80000000
005F80000000
005F80000000
005F80000074
005F800000D2
007F900008F0
19EFFCCCEFD0
000001000000
00004FD00000
00004EF20000
000000D10000
00001A600000
000012000000
ENDCHAR
STARTCHAR lcommaaccent
ENCODING 316
SWIDTH 283 0
DWIDTH 6 0
BBX 6 20 0 -6
BITMAP
39CA00
14FA00
00FA00
00FA00
00FA00
00FA00
00FA00
00FA00
00FA00
00FA00
00FA00
00FA00
02FC00
5EFFD2
001000
04FD00
04EF20
000D10
01A600
012000
ENDCHAR
STARTCHAR Lcaron
ENCODING 317
SWIDTH 585 0
DWIDTH 12 0
BBX 12 14 0 0
BITMAP
2DFFFE507F20
008FB0008E00
005F80009A00
005F8000A300
005F80000000
005F80000000
005F80000000
005F80000000
005F80000000
005F80000000
005F80000074
005F800000D2
007F900008F0
19EFFCCCEFD0
ENDCHAR
STARTCHAR lcaron
ENCODING 318
SWIDTH 366 0
DWIDTH 7 0
BBX 7 14 0 0
BITMAP
39CA0BD0
14FA0CB0
00FA0D60
00FA0C00
00FA0000
00FA0000
00FA0000
00FA0000
00FA0000
00FA0000
00FA0000
00FA0000
02FC0000
5EFFD200
ENDCHAR
STARTCHAR Ldot
ENCODING 319
SWIDTH 605 0
DWIDTH 12 0
BBX 12 14 0 0
BITMAP
2DFFFE500000
008FB0000000
005F80000000
005F80000000
005F80000200
005F80005F90
005F80004E80
005F80000000
005F80000000
005F80000000
005F80000074
005F800000D2
007F900008F0
19EFFCCCEFD0
ENDCHAR
STARTCHAR ldot
ENCODING 320
SWIDTH 357 0
DWIDTH 7 0
BBX 8 14 0 0
BITMAP
39CA0000
14FA0000
00FA0000
00FA0000
00FA0020
00FA09F6
00FA07E5
00FA0000
00FA0000
00FA0000
00FA0000
00FA0000
02FC0000
5EFFD200
ENDCHAR
STARTCHAR Lslash
ENCODING 321
SWIDTH 590 0
DWIDTH 12 0
BBX 12 14 0 0
BITMAP
1CFFFE700000
007FC0000000
004F90000000
004F90000000
004F902A0000
004F98B20000
004FE6000000
01AF90000000
2C8F90000000
014F90000000
004F90000056
004F900000B3
005FA00006F1
09DFFDCCEFE0
ENDCHAR
STARTCHAR lslash
ENCODING 322
SWIDTH 290 0
DWIDTH 6 0
BBX 6 14 0 0
BITMAP
28CB00
14FC00
00EC00
00EC00
00EC22
00EEC3
01ED10
4CEC00
51EC00
00EC00
00EC00
00EC00
01FD00
3DFFD3
ENDCHAR
STARTCHAR Nacute
ENCODING 323
SWIDTH 742 0
DWIDTH 15 0
BBX 15 17 0 0
BITMAP
0000000386000000
0000002EB2000000
000001C600000000
5EFF500005EFFE40
01DFE200001DC000
008FFC0000088000
0088EF8000087000
00875FF400087000
008708FD10087000
008700CFA0087000
0087002EF6087000
00870005FE287000
008700008FC87000
008700000CFE7000
0097000002EF7000
00CA0000005F7000
5DFFD30000087000
ENDCHAR
STARTCHAR nacute
ENCODING 324
SWIDTH 576 0
DWIDTH 12 0
BBX 12 14 0 0
BITMAP
000000DE1000
000005E30000
00000C300000
000000000000
29DA39CD7000
00FE7008F300
00EB0002F800
00EB0001F900
00EB0001F900
00EB0001F900
00EB0001F900
00EB0001F900
01FC0003FB00
4EFFD36EFFD1
ENDCHAR
STARTCHAR Ncommaaccent
ENCODING 325
SWIDTH 742 0
DWIDTH 15 0
BBX 15 20 0 -6
BITMAP
5EFF500005EFFE40
01DFE200001DC000
008FFC0000088000
0088EF8000087000
00875FF400087000
008708FD10087000
008700CFA0087000
0087002EF6087000
00870005FE287000
008700008FC87000
008700000CFE7000
0097000002EF7000
00CA0000005F7000
5DFFD30000087000
0000001100000000
000000DF40000000
000000DF80000000
0000000860000000
0000006A00000000
0000003000000000
ENDCHAR
STARTCHAR ncommaaccent
ENCODING 326
SWIDTH 576 0
DWIDTH 12 0
BBX 12 16 0 -6
BITMAP
29DA39CD7000
00FE7008F300
00EB0002F800
00EB0001F900
00EB0001F900
00EB0001F900
00EB0001F900
00EB0001F900
01FC0003FB00
4EFFD36EFFD1
000002000000
00007FA00000
00007EE00000
000002C00000
00002B400000
000021000000
ENDCHAR
STARTCHAR Ncaron
ENCODING 327
SWIDTH 742 0
DWIDTH 15 0
BBX 15 17 0 0
BITMAP
00001C301B300000
000004E7D6000000
0000007FA0000000
5EFF500005EFFE40
01DFE200001DC000
008FFC0000088000
0088EF8000087000
00875FF400087000
008708FD10087000
008700CFA0087000
0087002EF6087000
00870005FE287000
008700008FC87000
008700000CFE7000
0097000002EF7000
00CA0000005F7000
5DFFD30000087000
ENDCHAR
STARTCHAR ncaron
ENCODING 328
SWIDTH 576 0
DWIDTH 12 0
BBX 12 14 0 0
BITMAP
000780077000
0000B88B0000
00001EE20000
000000000000
29DA39CD7000
00FE7008F300
00EB0002F800
00EB0001F900
00EB0001F900
00EB0001F900
00EB0001F900
00EB0001F900
01FC0003FB00
4EFFD36EFFD1
ENDCHAR
STARTCHAR napostrophe
ENCODING 329
SWIDTH 576 0
DWIDTH 12 0
BBX 15 14 -3 0
BITMAP
BE50000000000000
DFB0000000000000
16A0000000000000
0B30000000000000
83029DA39CD70000
00000FE7008F3000
00000EB0002F8000
00000EB0001F9000
00000EB0001F9000
00000EB0001F9000
00000EB0001F9000
00000EB0001F9000
00001FC0003FB000
0004EFFD36EFFD10
ENDCHAR
STARTCHAR Eng
ENCODING 330
SWIDTH 742 0
DWIDTH 15 0
BBX 15 19 0 -5
BITMAP
5EFF500005EFFE40
01DFE200000CC000
008FFB0000098000
0089EF7000087000
00875FF300087000
008709FD10087000
008701DF90087000
0087003FF4087000
00870007FE187000
00870000BFB87000
008700002EFE7000
0097000005FF7000
00CA0000009F7000
5DFFD300001D7000
0000000000087000
0000000000086000
00000006300B4000
0000002FE25D0000
00000009EEB30000
ENDCHAR
STARTCHAR eng
ENCODING 331
SWIDTH 559 0
DWIDTH 11 0
BBX 10 15 0 -5
BITMAP
29DA39CD60
00FE7008F3
00EB0002F7
00EB0001F9
00EB0001F9
00EB0001F9
00EB0001F9
00EB0001F9
01FC0001F9
4EFFD301F9
00000001F9
00000001F8
00003302F5
0000DE25E1
00006EEB30
ENDCHAR
STARTCHAR Omacron
ENCODING 332
SWIDTH 738 0
DWIDTH 15 0
BBX 13 16 1 0
BITMAP
0007CCCCC40000
00000000000000
0005BCCCA40000
01BE40018F9000
0AF4000008F700
4FB0000001EF10
9F60000000AF70
DF300000007FA0
EF200000006FB0
EF200000006FA0
DF300000007F90
AF600000009F50
4FB0000000DE10
0BF3000005F600
01BE40005E7000
0005BCCCA30000
ENDCHAR
STARTCHAR omacron
ENCODING 333
SWIDTH 514 0
DWIDTH 10 0
BBX 10 13 0 0
BITMAP
008CCCCC10
0000000000
0000000000
003ADCC600
03E8004F80
0CD0000AF2
2FA00006F7
4F900004F9
4F900004F8
2FA00005F6
0DE00008F1
04F9002E70
003BDCC500
ENDCHAR
STARTCHAR Obreve
ENCODING 334
SWIDTH 738 0
DWIDTH 15 0
BBX 13 19 1 0
BITMAP
00010000010000
00073000730000
0003B102B00000
00005BCA200000
00000000000000
0005BCCCA40000
01BE40018F9000
0AF4000008F700
4FB0000001EF10
9F60000000AF70
DF300000007FA0
EF200000006FB0
EF200000006FA0
DF300000007F90
AF600000009F50
4FB0000000DE10
0BF3000005F600
01BE40005E7000
0005BCCCA30000
ENDCHAR
STARTCHAR obreve
ENCODING 335
SWIDTH 514 0
DWIDTH 10 0
BBX 10 15 0 0
BITMAP
0010000100
0091000900
0058003A00
0006BC9100
0000000000
003ADCC600
03E8004F80
0CD0000AF2
2FA00006F7
4F900004F9
4F900004F8
2FA00005F6
0DE00008F1
04F9002E70
003BDCC500
ENDCHAR
STARTCHAR Ohungarumlaut
ENCODING 336
SWIDTH 738 0
DWIDTH 15 0
BBX 13 17 1 0
BITMAP
000003D95D7000
00000CB2DA0000
00006A08800000
0005BCCCA40000
01BE40018F9000
0AF4000008F700
4FB0000001EF10
9F60000000AF70
DF300000007FA0
EF200000006FB0
EF200000006FA0
DF300000007F90
AF600000009F50
4FB0000000DE10
0BF3000005F600
01BE40005E7000
0005BCCCA30000
ENDCHAR
STARTCHAR ohungarumlaut
ENCODING 337
SWIDTH 514 0
DWIDTH 10 0
BBX 10 14 0 0
BITMAP
00009F5ED1
0001E76E20
000780C300
0000000000
003ADCC600
03E8004F80
0CD0000AF2
2FA00006F7
4F900004F9
4F900004F8
2FA00005F6
0DE00008F1
04F9002E70
003BDCC500
ENDCHAR
STARTCHAR OE
ENCODING 338
SWIDTH 945 0
DWIDTH 19 0
BBX 18 14 1 0
BITMAP
0005BCCFFFEDDEFF90
01BE5002EF10001AA0
0AF40000CF100001A0
4FB00000CF10000030
9F600000CF10009100
DF300000CF1001D100
EF200000CFCCCFF100
EF200000CF1001C100
DF400000CF10009100
AF600000CF10000000
5FA00000CF10000074
0BF30000CF100000D2
01CE4002EF100019F0
0006BCCEFFEDDEFFD0
ENDCHAR
STARTCHAR oe
ENCODING 339
SWIDTH 807 0
DWIDTH 16 0
BBX 16 10 0 0
BITMAP
003ADCB404BCD910
03E8006F9D102EB0
0CD0000CF60008F3
2FA00008FDCCCCD5
4F800006F5000000
4F900006F7000000
2FA00007FD000013
0DE0000AFF9101B3
04F8004D3EFFDF90
003BDBA202BEE800
ENDCHAR
STARTCHAR Racute
ENCODING 340
SWIDTH 659 0
DWIDTH 13 0
BBX 14 17 0 0
BITMAP
00000068300000
000006F8000000
00004C30000000
1AEFEDDD930000
007F8003DF4000
005F80005FB000
005F80002FE000
005F80002FD000
005F80007F7000
005F8017FA0000
005FEDFD300000
005F80AF700000
005F801EF40000
005F8005FE1000
006F8000AFB000
008FA0001EF700
2CFFFD6005FFE3
ENDCHAR
STARTCHAR racute
ENCODING 341
SWIDTH 380 0
DWIDTH 8 0
BBX 8 14 0 0
BITMAP
0001ED10
0007E200
000C3000
00000000
18CA1BE4
14FAAAF5
00EF3010
00EB0000
00EB0000
00EB0000
00EB0000
00EB0000
01FC0000
5EFFD700
ENDCHAR
STARTCHAR Rcommaaccent
ENCODING 342
SWIDTH 659 0
DWIDTH 13 0
BBX 14 20 0 -6
BITMAP
1AEFEDDD930000
007F8003DF4000
005F80005FB000
005F80002FE000
005F80002FD000
005F80007F7000
005F8017FA0000
005FEDFD300000
005F80AF700000
005F801EF40000
005F8005FE1000
006F8000AFB000
008FA0001EF700
2CFFFD6005FFE3
00000020000000
000007FB000000
000006EF000000
0000002D000000
000002B4000000
00000210000000
ENDCHAR
STARTCHAR rcommaaccent
ENCODING 343
SWIDTH 380 0
DWIDTH 8 0
BBX 8 16 0 -6
BITMAP
18CA1BE4
14FAAAF5
00EF3010
00EB0000
00EB0000
00EB0000
00EB0000
00EB0000
01FC0000
5EFFD700
00110000
01EF3000
01DF7000
00095000
007A0000
00300000
ENDCHAR
STARTCHAR Rcaron
ENCODING 344
SWIDTH 659 0
DWIDTH 13 0
BBX 14 17 0 0
BITMAP
0005A104B00000
00009C7E200000
00000CF5000000
1AEFEDDD930000
007F8003DF4000
005F80005FB000
005F80002FE000
005F80002FD000
005F80007F7000
005F8017FA0000
005FEDFD300000
005F80AF700000
005F801EF40000
005F8005FE1000
006F8000AFB000
008FA0001EF700
2CFFFD6005FFE3
ENDCHAR
STARTCHAR rcaron
ENCODING 345
SWIDTH 380 0
DWIDTH 8 0
BBX 8 14 0 0
BITMAP
08700860
00C79A00
002ED100
00000000
18CA1BE4
14FAAAF5
00EF3010
00EB0000
00EB0000
00EB0000
00EB0000
00EB0000
01FC0000
5EFFD700
ENDCHAR
STARTCHAR Sacute
ENCODING 346
SWIDTH 504 0
DWIDTH 10 0
BBX 10 17 0 0
BITMAP
0000178100
0000AE5000
0008A10000
006CCDFFA0
06F3003EB0
0DC00005B0
0FD00000B0
0CFA000000
05FFC30000
005EFF9100
0001AFFD30
000004DFD1
0000002EF5
47000009F6
3D000008F3
3F91002EB0
2FFFCCD810
ENDCHAR
STARTCHAR sacute
ENCODING 347
SWIDTH 394 0
DWIDTH 8 0
BBX 8 14 0 0
BITMAP
0000DE10
0005E300
000C3000
00000000
03BCC9A0
0E6008B0
2F5000A0
1EE50000
05EFC300
002AFF70
00003DF2
370006F5
3E3008F2
3BBCCB40
ENDCHAR
STARTCHAR Scircumflex
ENCODING 348
SWIDTH 504 0
DWIDTH 10 0
BBX 10 17 0 0
BITMAP
0002EE2000
000CAAC000
0097007800
006CCDFFA0
06F3003EB0
0DC00005B0
0FD00000B0
0CFA000000
05FFC30000
005EFF9100
0001AFFD30
000004DFD1
0000002EF5
47000009F6
3D000008F3
3F91002EB0
2FFFCCD810
ENDCHAR
STARTCHAR scircumflex
ENCODING 349
SWIDTH 394 0
DWIDTH 8 0
BBX 8 14 0 0
BITMAP
001EE200
00B98B00
07800770
00000000
03BCC9A0
0E6008B0
2F5000A0
1EE50000
05EFC300
002AFF70
00003DF2
370006F5
3E3008F2
3BBCCB40
ENDCHAR
STARTCHAR uni015E
ENCODING 350
SWIDTH 504 0
DWIDTH 10 0
BBX 10 19 0 -5
BITMAP
006CCDFFA0
06F3003EB0
0DC00005B0
0FD00000B0
0CFA000000
05FFC30000
005EFF9100
0001AFFD30
000004DFD1
0000002EF5
47000009F6
3D000008F3
3F91002EB0
2FFFDCD810
0000900000
0000CC5000
000006D000
000206C000
0006BB3000
ENDCHAR
STARTCHAR uni015F
ENCODING 351
SWIDTH 394 0
DWIDTH 8 0
BBX 8 15 0 -5
BITMAP
03BCC9A0
0E6008B0
2F5000A0
1EE50000
05EFC300
002AFF70
00003DF2
370006F5
3E3008F2
3BBCCB40
00090000
000CC400
00007C00
00207B00
006CB200
ENDCHAR
STARTCHAR Scaron
ENCODING 352
SWIDTH 504 0
DWIDTH 10 0
BBX 10 17 0 0
BITMAP
0079006A00
000BB9D100
0001EF3000
006CCDFFA0
06F3003EB0
0DC00005B0
0FD00000B0
0CFA000000
05FFC30000
005EFF9100
0001AFFD30
000004DFD1
0000002EF5
47000009F6
3D000008F3
3F91002EB0
2FFFCCD810
ENDCHAR
STARTCHAR scaron
ENCODING 353
SWIDTH 394 0
DWIDTH 8 0
BBX 8 14 0 0
BITMAP
07700770
00B88B00
002EE100
00000000
03BCC9A0
0E6008B0
2F5000A0
1EE50000
05EFC300
002AFF70
00003DF2
370006F5
3E3008F2
3BBCCB40
ENDCHAR
STARTCHAR uni0162
ENCODING 354
SWIDTH 603 0
DWIDTH 12 0
BBX 12 19 0 -5
BITMAP
8FECCFFCCEF9
9A000EE0009A
A3000EE0002A
70000EE00007
00000EE00000
00000EE00000
00000EE00000
00000EE00000
00000EE00000
00000EE00000
00000EE00000
00000EF00000
00002FF20000
000AEFFEB000
000008000000
00000AC60000
0000004F0000
0000204E0000
00004BC40000
ENDCHAR
STARTCHAR uni0163
ENCODING 355
SWIDTH 315 0
DWIDTH 6 0
BBX 7 18 0 -5
BITMAP
00380000
00B80000
06F80000
2CFDC900
02F80000
02F80000
02F80000
02F80000
02F80000
02F80000
02F80000
01FA0410
007EB500
00090000
001CB300
00009A00
00209900
008CA100
ENDCHAR
STARTCHAR Tcaron
ENCODING 356
SWIDTH 603 0
DWIDTH 12 0
BBX 12 17 0 0
BITMAP
000880069000
0000CB9D1000
00002EE30000
8FECCFFCCEF9
9A000EE0009A
A3000EE0002A
70000EE00007
00000EE00000
00000EE00000
00000EE00000
00000EE00000
00000EE00000
00000EE00000
00000EE00000
00000EF00000
00002FF20000
000AEFFEB000
ENDCHAR
STARTCHAR tcaron
ENCODING 357
SWIDTH 353 0
DWIDTH 7 0
BBX 7 14 0 0
BITMAP
00000CC0
00380DA0
00B80E50
06F80C00
2CFDC900
02F80000
02F80000
02F80000
02F80000
02F80000
02F80000
02F80000
01FA0410
007EB500
ENDCHAR
STARTCHAR Tbar
ENCODING 358
SWIDTH 603 0
DWIDTH 12 0
BBX 12 14 0 0
BITMAP
8FECCFFCCEF9
9A000EE0009A
A3000EE0002A
70000EE00007
00000EE00000
00000EE00000
005CCFFCC600
00000EE00000
00000EE00000
00000EE00000
00000EE00000
00000EF00000
00002FF20000
000AEFFEB000
ENDCHAR
STARTCHAR tbar
ENCODING 359
SWIDTH 328 0
DWIDTH 7 0
BBX 7 13 0 0
BITMAP
00290000
00A90000
05F80000
2CFECA00
01F80000
01F80000
2CFECA00
01F80000
01F80000
01F80000
01F90000
00EB0410
007EB600
ENDCHAR
STARTCHAR Utilde
ENCODING 360
SWIDTH 752 0
DWIDTH 15 0
BBX 15 17 0 0
BITMAP
000005CB62720000
00001704BD700000
0000000000000000
7EFFFD2003DFFE80
00DF60000009E100
00AF30000006C000
00AF30000005C000
00AF30000005C000
00AF30000005C000
00AF30000005C000
00AF30000005C000
00AF30000005C000
009F40000006B000
007F600000078000
002FB000000C3000
0009F70001890000
00006BDCBB500000
ENDCHAR
STARTCHAR utilde
ENCODING 361
SWIDTH 570 0
DWIDTH 11 0
BBX 11 13 0 0
BITMAP
0019C9437000
006217CB2000
000000000000
6CE7009DE600
05F70007F600
03F70004F600
03F70004F600
03F70004F600
03F70004F600
03F70004F600
01F90004F600
00DD102CF700
003CEA74FC50
ENDCHAR
STARTCHAR Umacron
ENCODING 362
SWIDTH 752 0
DWIDTH 15 0
BBX 15 16 0 0
BITMAP
00000BCCCCB00000
0000000000000000
7EFFFD2003DFFE80
00DF60000009E100
00AF30000006C000
00AF30000005C000
00AF30000005C000
00AF30000005C000
00AF30000005C000
00AF30000005C000
00AF30000005C000
009F40000006B000
007F600000078000
002FB000000C3000
0009F70001890000
00006BDCBB500000
ENDCHAR
STARTCHAR umacron
ENCODING 363
SWIDTH 570 0
DWIDTH 11 0
BBX 11 13 0 0
BITMAP
005CCCCC5000
000000000000
000000000000
6CE7009DE600
05F70007F600
03F70004F600
03F70004F600
03F70004F600
03F70004F600
03F70004F600
01F90004F600
00DD102CF700
003CEA74FC50
ENDCHAR
STARTCHAR Ubreve
ENCODING 364
SWIDTH 752 0
DWIDTH 15 0
BBX 15 19 0 0
BITMAP
0000010000100000
00000A0000A00000
0000096007700000
0000018CC8000000
0000000000000000
7EFFFD2003DFFE80
00DF60000009E100
00AF30000006C000
00AF30000005C000
00AF30000005C000
00AF30000005C000
00AF30000005C000
00AF30000005C000
00AF30000005C000
009F40000006B000
007F600000078000
002FB000000C3000
0009F70001890000
00006BDCBB500000
ENDCHAR
STARTCHAR ubreve
ENCODING 365
SWIDTH 570 0
DWIDTH 11 0
BBX 11 15 0 0
BITMAP
001000001000
005500064000
001B101B1000
0004BCB30000
000000000000
6CE7009DE600
05F70007F600
03F70004F600
03F70004F600
03F70004F600
03F70004F600
03F70004F600
01F90004F600
00DD102CF700
003CEA74FC50
ENDCHAR
STARTCHAR Uring
ENCODING 366
SWIDTH 752 0
DWIDTH 15 0
BBX 15 18 0 0
BITMAP
0000005CB4000000
000000D11D000000
000000D11D000000
0000005CC4000000
7EFFFD2003DFFE80
00DF60000009E100
00AF30000006C000
00AF30000005C000
00AF30000005C000
00AF30000005C000
00AF30000005C000
00AF30000005C000
00AF30000005C000
009F40000006B000
007F600000078000
002FB000000C3000
0009F70001890000
00006BDCBB500000
ENDCHAR
STARTCHAR uring
ENCODING 367
SWIDTH 570 0
DWIDTH 11 0
BBX 11 15 0 0
BITMAP
0001AC900000
000770860000
000770860000
0001AC910000
000000000000
6CE7009DE600
05F70007F600
03F70004F600
03F70004F600
03F70004F600
03F70004F600
03F70004F600
01F90004F600
00DD102CF700
003CEA74FC50
ENDCHAR
STARTCHAR Uhungarumlaut
ENCODING 368
SWIDTH 752 0
DWIDTH 15 0
BBX 15 17 0 0
BITMAP
00000008D4AC3000
0000003F65E40000
000000B51C300000
7EFFFD2003DFFE80
00DF60000009E100
00AF30000006C000
00AF30000005C000
00AF30000005C000
00AF30000005C000
00AF30000005C000
00AF30000005C000
00AF30000005C000
009F40000006B000
007F600000078000
002FB000000C3000
0009F70001890000
00006BDCBB500000
ENDCHAR
STARTCHAR uhungarumlaut
ENCODING 369
SWIDTH 570 0
DWIDTH 11 0
BBX 11 14 0 0
BITMAP
00005F8AF300
0000BB2F6000
0003C1870000
000000000000
6CE7009DE600
05F70007F600
03F70004F600
03F70004F600
03F70004F600
03F70004F600
03F70004F600
01F90004F600
00DD102CF700
003CEA74FC50
ENDCHAR
STARTCHAR Uogonek
ENCODING 370
SWIDTH 753 0
DWIDTH 15 0
BBX 15 19 0 -5
BITMAP
7EFFFD2003DFFE80
00DF60000009F100
00AF30000006D000
00AF30000005C000
00AF30000005C000
00AF30000005C000
00AF30000005C000
00AF30000005C000
00AF30000005C000
009F40000006B000
007F60000007A000
002FB000000C6000
0009F700018E1000
00006BDCCFF50000
00000002EA200000
0000000C80000000
0000004F10000000
0000004F10400000
0000000ADA300000
ENDCHAR
STARTCHAR uogonek
ENCODING 371
SWIDTH 570 0
DWIDTH 11 0
BBX 11 15 0 -5
BITMAP
6CE7009DE600
05F70007F600
03F70004F600
03F70004F600
03F70004F600
03F70004F600
03F70004F600
01F90004F600
00DD102CF700
003CEA74FD50
0000001B7000
0000009A0000
000000F50000
000000F60310
0000007EB600
ENDCHAR
STARTCHAR Wcircumflex
ENCODING 372
SWIDTH 944 0
DWIDTH 19 0
BBX 20 17 -1 0
BITMAP
000000001DF500000000
000000009C8E20000000
00000006A005B0000000
2EFFFC05EFFFA003EFFB
01BFB0001DF500001F80
003FD00007F800001F10
000CF40002FD00004B00
0007F90000DF40009600
0001FE1002FF9000E100
0000AF60087EE104B000
00005FB00D19F5096000
00000EF24A04FB0E2000
000008F7A500DF4C0000
000003FDD0008FD70000
000000CF90002FF20000
0000006F30000CC00000
0000001C000006700000
ENDCHAR
STARTCHAR wcircumflex
ENCODING 373
SWIDTH 749 0
DWIDTH 15 0
BBX 17 14 -1 0
BITMAP
00000008F800000000
0000004D5D30000000
000001B202B1000000
000000000000000000
4EFFC08FFF603DFE30
02EF0006F90002F200
008F4000EC00069000
003FA001EF300B4000
000CF1069F801D0000
0006F60B1CD0670000
0001EC2A07F4B20000
00009FA401FAB00000
00003FD000BF500000
00000D70006E000000
ENDCHAR
STARTCHAR Ycircumflex
ENCODING 374
SWIDTH 647 0
DWIDTH 13 0
BBX 15 17 -1 0
BITMAP
0000004FD1000000
000001E8CA000000
00000B5009600000
1DFFFD3004DFFD10
009FF100002F6000
000CF70000790000
0002FE1001D10000
00008F9009700000
00001EF32D000000
000006FBB5000000
000000CFB0000000
0000006F70000000
0000006F70000000
0000006F70000000
0000006F70000000
0000009FA0000000
00005DFFFD600000
ENDCHAR
STARTCHAR ycircumflex
ENCODING 375
SWIDTH 483 0
DWIDTH 10 0
BBX 11 19 -1 -5
BITMAP
00000CF40000
00008B6D1000
0004A005A000
000000000000
3EFFD107EFB0
02FF00007B00
009F4000B400
003FB001D000
000BF2058000
0005F80A3000
0000DE1C0000
00006F970000
00001EF20000
00000AB00000
000009600000
00001D100000
000088000000
0AD9D1000000
09EC30000000
ENDCHAR
STARTCHAR Ydieresis
ENCODING 376
SWIDTH 647 0
DWIDTH 13 0
BBX 15 18 -1 0
BITMAP
0000020001100000
00006F801EE10000
00004E700CD00000
0000000000000000
1DFFFD3004DFFD10
009FF100002F6000
000CF70000790000
0002FE1001D10000
00008F9009700000
00001EF32D000000
000006FBB5000000
000000CFB0000000
0000006F70000000
0000006F70000000
0000006F70000000
0000006F70000000
0000009FA0000000
00005DFFFD600000
ENDCHAR
STARTCHAR Zacute
ENCODING 377
SWIDTH 594 0
DWIDTH 12 0
BBX 12 17 0 0
BITMAP
000000683000
000006F81000
00004C300000
09FECCCCDFF2
0AA10000BF80
0B200006FD10
0600001EF400
000000AF9000
000005FE1000
00001DF50000
00009FB00000
0003FE200000
000DF7000000
008FC0000054
03FF300000B2
0CF8000006F0
5FFCCCCCEFD0
ENDCHAR
STARTCHAR zacute
ENCODING 378
SWIDTH 458 0
DWIDTH 9 0
BBX 9 14 0 0
BITMAP
00002FC000
00009D1000
0001C20000
0000000000
0FFDDDFF50
0E2003FC00
1A000CF300
01008F8000
0003FC0000
000CF30000
007F800130
02FD000670
0CF3001D60
5FFDDDFF50
ENDCHAR
STARTCHAR Zdotaccent
ENCODING 379
SWIDTH 594 0
DWIDTH 12 0
BBX 12 18 0 0
BITMAP
000000100000
00000AF40000
000009E30000
000000000000
09FECCCCDFF2
0AA10000BF80
0B200006FD10
0600001EF400
000000AF9000
000005FE1000
00001DF50000
00009FB00000
0003FE200000
000DF7000000
008FC0000054
03FF300000B2
0CF8000006F0
5FFCCCCCEFD0
ENDCHAR
STARTCHAR zdotaccent
ENCODING 380
SWIDTH 458 0
DWIDTH 9 0
BBX 9 15 0 0
BITMAP
0000100000
0003FC0000
0002EA0000
0000000000
0000000000
0FFDDDFF50
0E2003FC00
1A000CF300
01008F8000
0003FC0000
000CF30000
007F800130
02FD000670
0CF3001D60
5FFDDDFF50
ENDCHAR
STARTCHAR Zcaron
ENCODING 381
SWIDTH 594 0
DWIDTH 12 0
BBX 12 17 0 0
BITMAP
0005B104B000
00008D7E2000
00000CF60000
09FECCCCDFF2
0AA10000BF80
0B200006FD10
0600001EF400
000000AF9000
000005FE1000
00001DF50000
00009FB00000
0003FE200000
000DF7000000
008FC0000054
03FF300000B2
0CF8000006F0
5FFCCCCCEFD0
ENDCHAR
STARTCHAR zcaron
ENCODING 382
SWIDTH 458 0
DWIDTH 9 0
BBX 9 14 0 0
BITMAP
009500A400
001D6A8000
0003FC0000
0000000000
0FFDDDFF50
0E2003FC00
1A000CF300
01008F8000
0003FC0000
000CF30000
007F800130
02FD000670
0CF3001D60
5FFDDDFF50
ENDCHAR
STARTCHAR longs
ENCODING 383
SWIDTH 285 0
DWIDTH 6 0
BBX 8 15 0 0
BITMAP
0005BDA2
004D06F7
00AB0041
00DB0000
00EB0000
6CFB0000
00EB0000
00EB0000
00EB0000
00EB0000
00EB0000
00EB0000
00EB0000
02FD0000
8EFFE900
ENDCHAR
STARTCHAR uni0180
ENCODING 384
SWIDTH 522 0
DWIDTH 10 0
BBX 10 14 0 0
BITMAP
7BE4000000
07F4000000
ADFDCCC200
06F4000000
06F46DEB20
06FB736FD1
06F60008F6
06F40004FA
06F40002FB
06F40002FA
06F40003F7
06F40007F2
06F9003E60
029DDBB400
ENDCHAR
STARTCHAR uni0188
ENCODING 392
SWIDTH 446 0
DWIDTH 9 0
BBX 11 14 0 0
BITMAP
00000006CE40
0000001A0CA0
000000560110
000000750000
003ACEE60000
03E301EE1000
0C80006D1000
2F5000000000
4F4000000000
5F6000000000
3FB000002000
0EF7001B3000
05FFEDF90000
005CFD800000
ENDCHAR
STARTCHAR uni0190
ENCODING 400
SWIDTH 518 0
DWIDTH 10 0
BBX 10 14 0 0
BITMAP
004ADCEB50
06F8003EF4
0DF00008F7
0EE0000030
0AF2000000
009C300000
0008FEC300
02DC300000
0CF2000000
2FD0000000
2FC0000000
1FE1000016
08F90002A3
006CECB810
ENDCHAR
STARTCHAR uni0192
ENCODING 402
SWIDTH 301 0
DWIDTH 6 0
BBX 10 20 -2 -5
BITMAP
000006BDA1
00005D07F7
0000BA0041
0000EA0000
0000FA0000
006CFECC10
0000FA0000
0000FA0000
0000FA0000
0000FA0000
0000FA0000
0000FA0000
0000FA0000
0000FA0000
0000FA0000
0000F90000
0000F80000
3201F60000
BE13E20000
4DEC400000
ENDCHAR
STARTCHAR uni0195
ENCODING 405
SWIDTH 798 0
DWIDTH 16 0
BBX 15 14 0 0
BITMAP
49DA000000000000
14FA000000000000
00FA000000000000
00FA000000000000
00FA49DD40008D10
00FE700AE1006F80
00FA0005F5000BC0
00FA0004F60003F0
00FA0003F70000E0
00FA0003F70000C0
00FA0003F70000A0
00FA0002F8000260
01FC0000DB001910
5EFFD2003CDB9200
ENDCHAR
STARTCHAR uni0199
ENCODING 409
SWIDTH 538 0
DWIDTH 11 0
BBX 11 15 0 0
BITMAP
0004ADC60000
004C12DF1000
00B900250000
00F900000000
01F900000000
01F904EFFC00
01F9008D3000
01F906B10000
01F969000000
01FDF7000000
01F9BF500000
01F91CF40000
01F902DE2000
03FA003FD200
6EFFD19FFF90
ENDCHAR
STARTCHAR uni019A
ENCODING 410
SWIDTH 287 0
DWIDTH 6 0
BBX 6 14 0 0
BITMAP
28CA00
14FB00
00EB00
00EB00
00EB00
00EB00
5CFEC3
00EB00
00EB00
00EB00
00EB00
00EB00
01FC00
4EFFD3
ENDCHAR
STARTCHAR uni019B
ENCODING 411
SWIDTH 495 0
DWIDTH 10 0
BBX 12 14 -1 0
BITMAP
02DE80000000
05FFE6194000
00313EC50000
0006CB600000
000602C00000
000004F30000
00000CE80000
00005F7C0000
0000CE185000
0005F703B000
000DE100D200
006F70008700
01EF10004D10
2EFFD104EFD1
ENDCHAR
STARTCHAR uni019E
ENCODING 414
SWIDTH 559 0
DWIDTH 11 0
BBX 12 15 0 -5
BITMAP
29DA39CD6000
00FE7008F300
00EB0003F700
00EB0001F900
00EB0001F900
00EB0001F900
00EB0001F900
00EB0001F900
01FC0001F900
4EFFD301F900
00000001F900
00000001F900
00000001F900
00000001FB00
00000001FFD2
ENDCHAR
STARTCHAR Ohorn
ENCODING 416
SWIDTH 737 0
DWIDTH 15 0
BBX 14 17 1 0
BITMAP
00000000000450
00000000000AF3
000000000005E1
0005BCCEFFCA30
01BE40018FA000
0AF3000008F800
4FA0000001EF20
AF50000000AF70
DF300000007F90
EF200000006FB0
EF200000006FA0
DF300000007F80
AF600000009F40
5FA0000000DD00
0BF3000006F500
01BD40005E7000
0006BCCCA30000
ENDCHAR
STARTCHAR ohorn
ENCODING 417
SWIDTH 516 0
DWIDTH 10 0
BBX 11 13 0 0
BITMAP
000000008C00
000000006F20
000000004D00
003ADDFFB300
03E8004F6000
0CD0000AE100
2FA00006F600
4F900004F800
4F900004F800
2FA00005F600
0DE00008F100
04F9002E7000
003BDCC50000
ENDCHAR
STARTCHAR uni01A5
ENCODING 421
SWIDTH 522 0
DWIDTH 10 0
BBX 10 19 0 -5
BITMAP
0007BDB400
009804EB00
01F4000000
05F4000000
06F46DEB20
06FB737FD1
06F50008F6
06F40003FA
06F40001FB
06F40002FA
06F40003F7
06F40007F2
06FC202E70
06FACCC500
06F4000000
06F4000000
06F4000000
08F7000000
BFFFD20000
ENDCHAR
STARTCHAR uni01AA
ENCODING 426
SWIDTH 298 0
DWIDTH 6 0
BBX 10 19 -2 -5
BITMAP
05BCA00000
1A00B90000
47007E0000
1B208F2000
03ABBF3000
00006F4000
00006F4000
00006F4000
00006F4000
00006F4000
00006F4000
00006F4000
00006F4000
00006F4000
00006F4000
00005F4000
00003F4013
00000D60BF
000003BDE7
ENDCHAR
STARTCHAR uni01AB
ENCODING 427
SWIDTH 321 0
DWIDTH 6 0
BBX 7 18 0 -5
BITMAP
00140000
00880000
04F80000
2CFDC900
02F80000
02F80000
02F80000
02F80000
02F80000
02F80000
02F80000
01FA0420
007EBD40
00000A40
00000A30
00200B10
00E71C00
007EB400
ENDCHAR
STARTCHAR uni01AD
ENCODING 429
SWIDTH 315 0
DWIDTH 6 0
BBX 8 15 0 0
BITMAP
0005BDC6
005C03EF
00C80024
01F80000
06F80000
2CFDC900
02F80000
02F80000
02F80000
02F80000
02F80000
02F80000
02F80000
01FA0410
007EB500
ENDCHAR
STARTCHAR Uhorn
ENCODING 431
SWIDTH 762 0
DWIDTH 15 0
BBX 17 18 0 0
BITMAP
000000000000002600
000000000000008F60
000000000000003F60
000000000000002E10
7EFFFD2003DFFEA300
00DF60000009F10000
00AF30000006D00000
00AF30000005C00000
00AF30000005C00000
00AF30000005C00000
00AF30000005C00000
00AF30000005C00000
00AF30000005C00000
009F40000006B00000
007F60000007800000
002FB000000C300000
0009F6000188000000
00006BDCBB50000000
ENDCHAR
STARTCHAR uhorn
ENCODING 432
SWIDTH 574 0
DWIDTH 11 0
BBX 12 13 0 0
BITMAP
0000000001E5
0000000000D9
0000000001B6
5BE7008CED80
27F70039F600
03F70004F600
03F70004F600
03F70004F600
03F70004F600
03F70004F600
02F90004F600
00DD102CF700
003CEA74FC50
ENDCHAR
STARTCHAR uni01B5
ENCODING 437
SWIDTH 594 0
DWIDTH 12 0
BBX 12 14 0 0
BITMAP
09FECCCCDFF2
0AA10000BF80
0B200005FD00
0600001EF300
000000AF9000
000004FD1000
008CCEFDC900
00009F900000
0003FE100000
000DF6000000
008FC0000054
02FF300000B2
0CF8000006F0
5FFCCCCCEFD0
ENDCHAR
STARTCHAR uni01BA
ENCODING 442
SWIDTH 430 0
DWIDTH 9 0
BBX 8 15 0 -5
BITMAP
5FDCCEF7
5A003FB0
5401DD10
000BE200
007F5100
00BCEFA1
000008F8
000001FC
000002FA
00001BF4
004AD920
09A30000
1B0003B1
1D102EF2
05CCDB50
ENDCHAR
STARTCHAR uni01BB
ENCODING 443
SWIDTH 508 0
DWIDTH 10 0
BBX 10 14 0 0
BITMAP
004ACEA200
058002DE20
1900005F80
0100003FB0
0000003FB0
0000005F70
000000AE10
0BCCCDFDC5
00001D5000
0001C50000
001B600023
00B60000B3
0AFDDDDEF1
5FFFFFFFD0
ENDCHAR
STARTCHAR uni01BE
ENCODING 446
SWIDTH 406 0
DWIDTH 8 0
BBX 8 13 0 0
BITMAP
001A0000
008B0000
05FB0000
2CFECC10
00EB0000
00BD7200
00019F70
00000AF3
000005F7
000004F8
370005F6
3E200AE1
3BBCDB20
ENDCHAR
STARTCHAR uni01C0
ENCODING 448
SWIDTH 250 0
DWIDTH 5 0
BBX 3 14 1 0
BITMAP
4F40
4F40
4F40
4F40
4F40
4F40
4F40
4F40
4F40
4F40
4F40
4F40
4F40
4F40
ENDCHAR
STARTCHAR uni01C1
ENCODING 449
SWIDTH 423 0
DWIDTH 8 0
BBX 6 14 1 0
BITMAP
4F40DB
4F40DB
4F40DB
4F40DB
4F40DB
4F40DB
4F40DB
4F40DB
4F40DB
4F40DB
4F40DB
4F40DB
4F40DB
4F40DB
ENDCHAR
STARTCHAR uni01C2
ENCODING 450
SWIDTH 422 0
DWIDTH 8 0
BBX 8 14 0 0
BITMAP
0009F000
0009F000
0009F000
0009F000
2CCEFCC7
0009F000
0009F000
2CCEFCC7
0009F000
0009F000
0009F000
0009F000
0009F000
0009F000
ENDCHAR
STARTCHAR uni01C3
ENCODING 451
SWIDTH 245 0
DWIDTH 5 0
BBX 3 14 1 0
BITMAP
5E40
7F60
7F60
6F50
5F30
4F20
3F10
2F00
1E00
0D00
0600
0200
8F60
7E50
ENDCHAR
STARTCHAR uni01DE
ENCODING 478
SWIDTH 718 0
DWIDTH 14 0
BBX 15 18 0 0
BITMAP
0000BCCCCD000000
0002FD00AF400000
0001DB009E300000
0000000000000000
0000008A00000000
000000EF20000000
000005FF80000000
00000B7FE0000000
00002E1BF5000000
00008906FC000000
0000E401FF300000
0006E000BF900000
000C80005FE10000
003FCCCCCFF70000
009B000008FD0000
01E4000001FF4000
09F0000000CFC100
CFFD30001DFFFE30
ENDCHAR
STARTCHAR uni01DF
ENCODING 479
SWIDTH 480 0
DWIDTH 10 0
BBX 10 16 0 0
BITMAP
03CCCCC600
0020001000
08F603FC00
07E502EA00
0000000000
0000000000
007BCD8000
08F107F500
0CD001F900
034000FA00
000048FA00
008C72FA00
0BD100FA00
3F8000FA00
2FC003EB01
06ED928EA2
ENDCHAR
STARTCHAR uni01F0
ENCODING 496
SWIDTH 263 0
DWIDTH 5 0
BBX 8 19 -2 -5
BITMAP
01B301B2
003D5D50
0007F900
00000000
0039DA00
0014FA00
0000FA00
0000FA00
0000FA00
0000FA00
0000FA00
0000FA00
0000FA00
0000FA00
0000FA00
0000F800
3201F600
CE25E100
6EEC3000
ENDCHAR
STARTCHAR Aringacute
ENCODING 506
SWIDTH 718 0
DWIDTH 14 0
BBX 15 21 0 0
BITMAP
0000000782000000
0000009E60000000
000006B200000000
000004BC50000000
00000C11D1000000
00000D11D1000000
000004BC50000000
0000008A00000000
000000EF20000000
000005FF80000000
00000B7FE0000000
00002E1BF5000000
00008906FC000000
0000E401FF300000
0006E000BF900000
000C80005FE10000
003FCCCCCFF70000
009B000008FD0000
01E4000001FF4000
09F0000000CFC100
CFFD30001DFFFE30
ENDCHAR
STARTCHAR aringacute
ENCODING 507
SWIDTH 480 0
DWIDTH 10 0
BBX 10 18 0 0
BITMAP
0000386000
0002EB2000
001C600000
0009CA1000
0059068000
0059068000
0009CA1000
0000000000
007BCD8000
08F107F500
0CD001F900
034000FA00
000048FA00
008C72FA00
0BD100FA00
3F8000FA00
2FC003EB01
06ED928EA2
ENDCHAR
STARTCHAR AEacute
ENCODING 508
SWIDTH 894 0
DWIDTH 18 0
BBX 19 17 -1 0
BITMAP
00000000000068300000
000000000006F8000000
00000000004C30000000
0000003BFFFEDDEFF900
00000003CBF10001B900
000000095BF100003A00
0000002D0BF100000700
000000A60BF100000000
000003E10BF100091000
00000B700BF1001D1000
00003FCCCEFCCCFF1000
0000B8000BF1001D1000
0004E1000BF100091000
000C60000BF100000420
005C00000BF100000C20
02D900000DF100018E00
5FFFB008EFFEDDEFFC00
ENDCHAR
STARTCHAR aeacute
ENCODING 509
SWIDTH 709 0
DWIDTH 14 0
BBX 14 14 0 0
BITMAP
0000007F700000
000000E8000000
00000690000000
00000000000000
029CCD53BCD910
0CD007FD202EB0
076003F90008F3
000028FDCCCCD6
004BA6F8000000
07E402F9000000
1F9000FD000003
3F8002EF9101B3
1FC0193EFFDFA0
05ED8103BEE800
ENDCHAR
STARTCHAR Oslashacute
ENCODING 510
SWIDTH 737 0
DWIDTH 15 0
BBX 13 18 1 -1
BITMAP
00000058400000
000005F9100000
00003C40000000
0005BCCDA47500
01BE40018FD000
0AF300001EF700
4FA00000B5FE10
9F50000770BF60
DF30004B008F90
EF2001C1006FB0
FF200B40006FA0
DF308700007F90
AF64B000009F50
5FCC100000DE10
0CF6000005F600
09ED40005E7000
4A16CCCCA30000
01000000000000
ENDCHAR
STARTCHAR oslashacute
ENCODING 511
SWIDTH 514 0
DWIDTH 10 0
BBX 10 14 0 0
BITMAP
00002FC000
00009D1000
0001C20000
0000000000
003ADCC890
03E8007F70
0CE000ACF2
2FA00766F6
4F904A04F8
4F92B104F8
2FBB2005F6
0CF50008F1
07F8002E70
1B3BCCC500
ENDCHAR
STARTCHAR uni0218
ENCODING 536
SWIDTH 504 0
DWIDTH 10 0
BBX 10 20 0 -6
BITMAP
006CCDFFA0
06F3003EB0
0DC00005B0
0FD00000B0
0CFA000000
05FFC30000
005EFF9100
0001AFFD30
000004DFD1
0000002EF5
47000009F6
3D000008F3
3F91002EB0
2FFFCCD810
0000110000
0003FE1000
0003EF3000
00000D2000
0001970000
0001200000
ENDCHAR
STARTCHAR uni0219
ENCODING 537
SWIDTH 394 0
DWIDTH 8 0
BBX 8 16 0 -6
BITMAP
03BCC9A0
0E6008B0
2F5000A0
1EE50000
05EFC300
002AFF70
00003DF2
370006F5
3E3008F2
3BBCCB40
00011000
004FD100
003EF300
0000D100
00196000
00120000
ENDCHAR
STARTCHAR uni021A
ENCODING 538
SWIDTH 603 0
DWIDTH 12 0
BBX 12 20 0 -6
BITMAP
8FECCFFCCEF9
9A000EE0009A
A3000EE0002A
70000EE00007
00000EE00000
00000EE00000
00000EE00000
00000EE00000
00000EE00000
00000EE00000
00000EE00000
00000EF00000
00002FF20000
000AEFFEB000
000001100000
00002EE20000
00001EF60000
000000B40000
000008900000
000003000000
ENDCHAR
STARTCHAR uni021B
ENCODING 539
SWIDTH 315 0
DWIDTH 6 0
BBX 7 19 0 -6
BITMAP
00380000
00B80000
06F80000
2CFDC900
02F80000
02F80000
02F80000
02F80000
02F80000
02F80000
02F80000
01FA0410
007EB500
00020000
006FC000
005EF100
0001D000
002A5000
00210000
ENDCHAR
STARTCHAR uni0221
ENCODING 545
SWIDTH 674 0
DWIDTH 13 0
BBX 14 17 0 -3
BITMAP
0000018CD00000
0000002DD00000
0000000CD00000
0000000CD00000
0019CCCED00000
01D7004FD00000
0AB0000CD00000
1F80000CD00000
4F60000CD00000
5F70000CD00000
4FA0000CD02AC2
1FF6003DD1B248
08FFEEBAE93185
008EE912CFBB60
00000000930000
00000003900000
00000008200000
ENDCHAR
STARTCHAR uni0228
ENCODING 552
SWIDTH 626 0
DWIDTH 13 0
BBX 12 19 0 -5
BITMAP
2AEFEDDDEFF4
007F800003D4
005F80000075
005F80000011
005F80000A00
005F80001B00
005F80007B00
005FDCCDFB00
005F80002B00
005F80000001
005F8000000B
005F8000004B
007F800003D9
3AEFEDEEEFF7
000003500000
000006CA0000
0000000D5000
0000111D4000
00002AC80000
ENDCHAR
STARTCHAR uni0229
ENCODING 553
SWIDTH 464 0
DWIDTH 9 0
BBX 9 15 0 -5
BITMAP
004BCDA200
04D101DC00
0D60006F50
2FDCCCCD70
4F50000000
4F70000000
2FD0000030
0CFA101950
04FFFDFB00
003BFE9100
0000900000
0001CC3000
000008A000
0002099000
0008CB2000
ENDCHAR
STARTCHAR uni0234
ENCODING 564
SWIDTH 399 0
DWIDTH 8 0
BBX 8 17 0 -3
BITMAP
6AE40000
29F40000
06F40000
06F40000
06F40000
06F40000
06F40000
06F40000
06F40000
06F40000
06F408C8
06F4760D
05F8804C
009FCBA2
00480000
00B10000
03700000
ENDCHAR
STARTCHAR uni0235
ENCODING 565
SWIDTH 702 0
DWIDTH 14 0
BBX 15 13 0 -3
BITMAP
29DA39DD50000000
00FE700BE1000000
00EB0005F5000000
00EB0004F6000000
00EB0004F6000000
00EB0004F6000000
00EB0004F605C900
00EB0003F6480A10
01FC0002F8A02B00
4EFFD3008EDBA200
000000001A000000
0000000093000000
0000000190000000
ENDCHAR
STARTCHAR uni0236
ENCODING 566
SWIDTH 406 0
DWIDTH 8 0
BBX 9 16 0 -3
BITMAP
0038000000
00B8000000
06F8000000
2CFDCB0000
02F8000000
02F8000000
02F8000000
02F8000000
02F8000000
02F805CA00
02F84A0830
01FAB12B10
006EDBA300
001B000000
0084000000
00A0000000
ENDCHAR
STARTCHAR uni0237
ENCODING 567
SWIDTH 263 0
DWIDTH 5 0
BBX 6 15 -2 -5
BITMAP
0039DA
0014FA
0000FA
0000FA
0000FA
0000FA
0000FA
0000FA
0000FA
0000FA
0000FA
0000F8
3201F6
CE25E1
6EEC30
ENDCHAR
STARTCHAR uni0250
ENCODING 592
SWIDTH 475 0
DWIDTH 10 0
BBX 9 10 0 0
BITMAP
6CE27BEB10
23F9104F90
03F7001FA0
03F7006F40
03F749C400
03FD730000
03F7001500
01F8005F40
00CD108E10
002BDBB300
ENDCHAR
STARTCHAR uni0251
ENCODING 593
SWIDTH 542 0
DWIDTH 11 0
BBX 11 10 0 0
BITMAP
0019CCC7D000
01D7006FD000
0AC0000DD000
1F70000CD000
4F60000CD000
5F60000CD000
4F70000CD000
1FB0000CD000
08F6003ED000
008ECA7CE710
ENDCHAR
STARTCHAR uni0252
ENCODING 594
SWIDTH 544 0
DWIDTH 11 0
BBX 11 10 0 0
BITMAP
3AE95CED7000
01FE734CF600
00FA0001ED00
00FA0000BF10
00FA00009F20
00FA00009F10
00FA0000AD00
00FA0001E800
00FF300AC000
00D7CCC81000
ENDCHAR
STARTCHAR uni0253
ENCODING 595
SWIDTH 518 0
DWIDTH 10 0
BBX 9 15 1 0
BITMAP
007BDA3000
09707FA000
2F30053000
6F30000000
7F30000000
7F36DEB200
7FB637FC00
7F40009F50
7F30005F80
7F30003F90
7F30003F80
7F30004F60
7F30009E10
7F8003E500
3ADDBB4000
ENDCHAR
STARTCHAR uni0254
ENCODING 596
SWIDTH 454 0
DWIDTH 9 0
BBX 9 10 0 0
BITMAP
007DFC5000
08FDEFF600
2B2007FE00
310000BF30
0000006F50
0000004F50
0000004F20
1D60008C00
1EE103D300
04CDCB3000
ENDCHAR
STARTCHAR uni0255
ENCODING 597
SWIDTH 447 0
DWIDTH 9 0
BBX 9 13 0 -3
BITMAP
003ACEC400
03E401EE10
0C80007E10
2F50000000
4F40000000
5F50000000
3F801AC900
0EE2B30A30
06FE600B20
007EEBB500
0083000000
00B0000000
0130000000
ENDCHAR
STARTCHAR uni0256
ENCODING 598
SWIDTH 528 0
DWIDTH 11 0
BBX 13 19 0 -5
BITMAP
0000018CD00000
0000002ED00000
0000000CD00000
0000000CD00000
0019CCCED00000
01D8005FD00000
0AC0000DD00000
1F80000CD00000
4F60000CD00000
5F70000CD00000
4F80000CD00000
1FD0000CD00000
08FB448ED00000
008EEB4CD00000
0000000BD00000
0000000AD00000
00000008D00420
00000003F12FA0
000000006CEC30
ENDCHAR
STARTCHAR uni0257
ENCODING 599
SWIDTH 542 0
DWIDTH 11 0
BBX 13 15 0 0
BITMAP
000000003ACC40
00000001E31ED0
00000007D00350
0000000AD00000
0000000CD00000
0019CCCED00000
01D7005FD00000
0AC0000DD00000
1F80000CD00000
4F60000CD00000
5F60000CD00000
4F80000CD00000
1FB0000CD00000
08F6003ED00000
008EDA7CE72000
ENDCHAR
STARTCHAR uni0258
ENCODING 600
SWIDTH 466 0
DWIDTH 9 0
BBX 9 10 0 0
BITMAP
006CCC8000
07F4009A00
1EB0001F30
3DDCCCCF70
0000001F90
0000003F90
2200008F70
1C3006FF20
07FEEFF800
007DFC6000
ENDCHAR
STARTCHAR uni0259
ENCODING 601
SWIDTH 464 0
DWIDTH 9 0
BBX 9 10 0 0
BITMAP
007DFC6000
08FDEFF700
3A1005EF20
0000006F60
0000001F80
4DDCCCCF80
3FA0001F60
0DD0005F20
06F501C800
006DCC6000
ENDCHAR
STARTCHAR uni025A
ENCODING 602
SWIDTH 642 0
DWIDTH 13 0
BBX 13 10 0 0
BITMAP
007DEC60000000
09FDEFF8000000
381005EF6B7060
0000006F74CB40
0000001F900000
4DDCCCCF800000
3FA0001F600000
0DD0005F200000
06F501C7000000
006DCC60000000
ENDCHAR
STARTCHAR uni025B
ENCODING 603
SWIDTH 399 0
DWIDTH 8 0
BBX 8 10 0 0
BITMAP
02ACCD91
0EB007F6
1F800051
08D30000
007FD800
09E30000
3F800000
4F800000
1EC10056
03BDCB60
ENDCHAR
STARTCHAR uni025C
ENCODING 604
SWIDTH 398 0
DWIDTH 8 0
BBX 8 10 0 0
BITMAP
19DCDA20
7F600CD0
150009F1
00003D70
008DF700
00003E90
000009F2
000008F3
65001CD0
07BCDA20
ENDCHAR
STARTCHAR uni025D
ENCODING 605
SWIDTH 575 0
DWIDTH 12 0
BBX 12 10 0 0
BITMAP
19DCCA300000
7F500CD05000
020009F8E335
00003A407CA1
008DFA200000
00003ED00000
000009F30000
000008F30000
65001CC00000
07BCD9100000
ENDCHAR
STARTCHAR uni025E
ENCODING 606
SWIDTH 500 0
DWIDTH 10 0
BBX 10 10 0 0
BITMAP
0019CCDA20
02E9000CD0
0BD00008F1
2F70003D80
4F507DF700
4F50002D80
2F700008F3
0BC00008F4
02E8002EE1
0029CCDA20
ENDCHAR
STARTCHAR uni025F
ENCODING 607
SWIDTH 272 0
DWIDTH 5 0
BBX 8 15 -2 -5
BITMAP
003ADB00
0012FB00
0000EB00
0000EB00
006CFEC3
0000EB00
0000EB00
0000EB00
0000EB00
0000EB00
0000EB00
0000E900
3300F600
BF34E100
5DFC3000
ENDCHAR
STARTCHAR uni0260
ENCODING 608
SWIDTH 541 0
DWIDTH 11 0
BBX 14 20 0 -5
BITMAP
0000000029CC80
00000001D21CF5
00000007D00171
0000000BC00000
0000000CC00000
0019CCAEC00000
02D7006FC00000
0AB0000DC00000
1F70000DC00000
4F60000DC00000
5F70000DC00000
3F90000DC00000
1ED0000DC00000
08FA438FC00000
008EEB3DC00000
0000000DC00000
0000000DA00000
0870001F600000
0CF600AD100000
02AECC91000000
ENDCHAR
STARTCHAR uni0261
ENCODING 609
SWIDTH 521 0
DWIDTH 10 0
BBX 9 15 0 -5
BITMAP
0019CCC7B0
02D7006FC0
0AB0000DC0
1F70000DC0
4F60000DC0
5F70000DC0
3F90000DC0
1ED0000DC0
08FA438FC0
008EEB3DC0
0000000DC0
0000000DA0
0870001F60
0CF600AD10
02AECC9100
ENDCHAR
STARTCHAR uni0262
ENCODING 610
SWIDTH 535 0
DWIDTH 11 0
BBX 11 10 0 0
BITMAP
0019CCEFF400
02EA1007F400
0BE10000B400
2FA000006400
4F8000000000
4F90007DDD40
2FB00006F500
0DE10004F400
04FB1007F400
003ADCCB5000
ENDCHAR
STARTCHAR uni0263
ENCODING 611
SWIDTH 479 0
DWIDTH 10 0
BBX 11 15 -1 -5
BITMAP
3EFFC007EFC0
02EE00007C00
009F3000B500
003F9002D000
000DE0078000
0007F50C2000
0001FB3B0000
0000AF950000
00005FE00000
00000ED00000
00003FF40000
000096F90000
0000D0BC0000
0000E0AB0000
00008CD30000
ENDCHAR
STARTCHAR uni0264
ENCODING 612
SWIDTH 466 0
DWIDTH 9 0
BBX 10 10 0 0
BITMAP
4CCC47BD70
DA04F807F2
7408AE2290
002A0EA000
008408F100
00C005F400
00C003F600
00C003F500
00B308E100
003CCC3000
ENDCHAR
STARTCHAR uni0265
ENCODING 613
SWIDTH 553 0
DWIDTH 11 0
BBX 11 15 0 -5
BITMAP
4AD70039D700
27F70027F700
03F70003F700
03F70003F700
03F70003F700
03F70003F700
03F80003F700
01F90003F700
00CD102BF700
002CEA84F700
00000003F700
00000003F700
00000003F700
00000003F900
00000003FFD0
ENDCHAR
STARTCHAR uni0266
ENCODING 614
SWIDTH 577 0
DWIDTH 12 0
BBX 12 15 0 0
BITMAP
0003ADC70000
003D12DF2000
00AA00270000
00EA00000000
00FA00000000
00FA49CE7000
00FE7008F300
00FA0002F800
00FA0001F900
00FA0000FA00
00FA0000FA00
00FA0000FA00
00FA0000FA00
02FC0002FC00
5EFFD26EFFD1
ENDCHAR
STARTCHAR uni0267
ENCODING 615
SWIDTH 562 0
DWIDTH 11 0
BBX 10 20 0 -5
BITMAP
0003ADC700
003D12DF20
00AA002700
00EA000000
00FA000000
00FA49CE60
00FE7008F3
00FA0002F7
00FA0001F9
00FA0000FA
00FA0000FA
00FA0000FA
00FA0000FA
02FC0000FA
5EFFD200FA
00000000F9
00000001F8
00003302F5
0000DE25E1
00006EEC30
ENDCHAR
STARTCHAR uni0268
ENCODING 616
SWIDTH 295 0
DWIDTH 6 0
BBX 6 14 0 0
BITMAP
01DD00
01EE10
001100
000000
29CC00
03EC00
00DC00
00DC00
4CFEC3
00DC00
00DC00
00DC00
00ED00
3DFFD3
ENDCHAR
STARTCHAR uni0269
ENCODING 617
SWIDTH 286 0
DWIDTH 6 0
BBX 7 10 0 0
BITMAP
4AD70000
27F70000
03F70000
03F70000
03F70000
03F70000
03F70000
03F70000
01F90410
008EB500
ENDCHAR
STARTCHAR uni026A
ENCODING 618
SWIDTH 287 0
DWIDTH 6 0
BBX 6 10 0 0
BITMAP
4EFFD2
01FC00
00EB00
00EB00
00EB00
00EB00
00EB00
00EB00
01FC00
4DFFD2
ENDCHAR
STARTCHAR uni026B
ENCODING 619
SWIDTH 290 0
DWIDTH 6 0
BBX 6 14 0 0
BITMAP
39DA00
12FB00
00EB00
00EB00
00EB01
4CFB18
80EEB3
10EB00
00EB00
00EB00
00EB00
00EB00
01FC00
4EFFD3
ENDCHAR
STARTCHAR uni026C
ENCODING 620
SWIDTH 318 0
DWIDTH 6 0
BBX 8 14 -1 0
BITMAP
007BE400
0007F400
0006F400
0006F400
04CDF400
0E36F400
1F16F424
0D97F9B1
02BEFA10
0006F400
0006F400
0006F400
0007F600
009FFFA0
ENDCHAR
STARTCHAR uni026D
ENCODING 621
SWIDTH 248 0
DWIDTH 5 0
BBX 7 19 0 -5
BITMAP
5AE40000
3AF40000
06F40000
06F40000
06F40000
06F40000
06F40000
06F40000
06F40000
06F40000
06F40000
06F40000
06F40000
06F40000
06F40000
05F40000
02F50130
00C81CF0
002BEE80
ENDCHAR
STARTCHAR uni026E
ENCODING 622
SWIDTH 590 0
DWIDTH 12 0
BBX 12 19 0 -5
BITMAP
39DA00000000
02FA00000000
00FA00000000
00FA00000000
00FECCCCCFF2
00FA00007F80
00FA0003FC00
00FA000CF300
00FA007F7000
00FA03FC0000
00FA06DD8200
00FA0003BF60
02FC00000DF2
5EFFD20007F6
0000000005F7
0000000007F6
0005C1000BE1
0007F8007E40
00019ECB9200
ENDCHAR
STARTCHAR uni026F
ENCODING 623
SWIDTH 846 0
DWIDTH 17 0
BBX 17 10 0 0
BITMAP
4AD7007BE2018CE000
17F7002BF2003DE000
03F70008F2000BE000
03F70008F2000BE000
03F70008F2000BE000
03F70008F2000BE000
03F70008F2000BE000
02F80008F3000BE000
00DC105DF8008EE000
003CEA609EC92AD920
ENDCHAR
STARTCHAR uni0270
ENCODING 624
SWIDTH 826 0
DWIDTH 17 0
BBX 17 15 0 -5
BITMAP
4AD7007BE2018CE000
27F7003BF2003DE000
03F70008F2000BE000
03F70008F2000BE000
03F70008F2000BE000
03F70008F2000BE000
03F70008F2000BE000
02F80008F3000BE000
00DC105DF8008EE000
003CEA609EC93AE000
0000000000000AE000
0000000000000AE000
0000000000000AE000
0000000000000AF100
0000000000000AFE60
ENDCHAR
STARTCHAR uni0271
ENCODING 625
SWIDTH 835 0
DWIDTH 17 0
BBX 16 15 0 -5
BITMAP
29EA29CE806AEC30
00FE8008FD501DC0
00EB0004F70009F1
00EB0003F70008F2
00EB0003F70008F2
00EB0003F70008F2
00EB0003F70008F2
00EB0003F70008F2
01FC0005F90008F2
4EFFD29EFFC008F2
00000000000008F2
00000000000008F1
00000000015009D0
0000000005F90C70
0000000001BFD800
ENDCHAR
STARTCHAR uni0272
ENCODING 626
SWIDTH 574 0
DWIDTH 11 0
BBX 14 15 -2 -5
BITMAP
0029D929DD6000
0001FD7009F300
0000FB0003F700
0000FA0001F800
0000FA0001F900
0000FA0001F900
0000FA0001F900
0000FA0001F900
0000FA0003FB00
0000FA007EFFD1
0000FA00000000
0000F800000000
3301F500000000
DE35E100000000
6EEB3000000000
ENDCHAR
STARTCHAR uni0273
ENCODING 627
SWIDTH 563 0
DWIDTH 11 0
BBX 14 15 0 -5
BITMAP
2AD939CD600000
00FE7008F20000
00FB0003F70000
00FA0001F90000
00FA0001F90000
00FA0001F90000
00FA0001F90000
00FA0001F90000
02FC0001F90000
4EFFD201F90000
00000001F90000
00000000E90000
00000000CA0051
000000006D18F5
0000000007DFB1
ENDCHAR
STARTCHAR uni0274
ENCODING 628
SWIDTH 568 0
DWIDTH 11 0
BBX 12 10 0 0
BITMAP
8FF90009FFD1
05FF60006D00
02DFF3003A00
02A6FD103900
02A08FB03900
02A00BF83900
02A001DF7900
02A0003EF900
05C00005F900
7EFD10007900
ENDCHAR
STARTCHAR uni0275
ENCODING 629
SWIDTH 514 0
DWIDTH 10 0
BBX 10 10 0 0
BITMAP
003ACDC600
03E7005F80
0CD00009F2
2F900006F7
4FECCCCDF9
4F900005F8
2FB00006F6
0DE10009F1
04F9003E70
003BDCC500
ENDCHAR
STARTCHAR uni0276
ENCODING 630
SWIDTH 732 0
DWIDTH 15 0
BBX 14 10 0 0
BITMAP
003ADCEFECCDF6
03E9003F900067
0CE1001F900014
2FB0001F900740
4F90001FECDF40
4F90001F900840
2FB0001F900540
0CE0001F900007
04F8003F90004C
003ADCEFECCDF9
ENDCHAR
STARTCHAR uni0277
ENCODING 631
SWIDTH 672 0
DWIDTH 13 0
BBX 13 10 0 0
BITMAP
0003ACCCB60000
008E50002BD200
06F4000000CC00
0EC00052006F50
3F9006FC003FA0
5F8004FB001FB0
4F9001F8002FB0
1FC000D5006F70
07F4049A01CD10
007DC914BDA200
ENDCHAR
STARTCHAR uni0278
ENCODING 632
SWIDTH 658 0
DWIDTH 13 0
BBX 13 19 0 -5
BITMAP
00005AE5000000
000016F5000000
000004F5000000
000004F5000000
0018DDFDDA3000
02DC24F52CF500
0AF204F501EE10
1FB004F5009F50
4F8004F5006F70
4F8004F5006F60
2FB004F5008F30
0DE104F500CC00
04FB14F507E300
003ACCFCB92000
000004F5000000
000004F5000000
000004F5000000
000006F7000000
00008EFFB00000
ENDCHAR
STARTCHAR uni0279
ENCODING 633
SWIDTH 380 0
DWIDTH 8 0
BBX 7 10 0 0
BITMAP
00CFFFC0
0004FA00
0001F800
0001F800
0001F800
0001F800
0001F800
0108F800
BEA7FB30
9E71EA60
ENDCHAR
STARTCHAR uni027A
ENCODING 634
SWIDTH 374 0
DWIDTH 7 0
BBX 7 14 0 0
BITMAP
0039D800
0025F800
0001F800
0001F800
0001F800
0001F800
0001F800
0001F800
0001F800
0001F800
0001F800
0108F800
BEA7FB30
9E71EA60
ENDCHAR
STARTCHAR uni027B
ENCODING 635
SWIDTH 375 0
DWIDTH 8 0
BBX 10 15 0 -5
BITMAP
00CFFFC000
0004FA0000
0001F80000
0001F80000
0001F80000
0001F80000
0001F80000
0108F80000
BE97F80000
9E71F80000
0001F80000
0000E90000
0000C90161
00006D19F5
000008DFB1
ENDCHAR
STARTCHAR uni027C
ENCODING 636
SWIDTH 378 0
DWIDTH 8 0
BBX 8 15 0 -5
BITMAP
28C92CE3
15FABBF5
00FF3010
00FA0000
00FA0000
00FA0000
00FA0000
00FA0000
00FA0000
00FA0000
00FA0000
00FA0000
00FA0000
02FC0000
5EFFD600
ENDCHAR
STARTCHAR uni027D
ENCODING 637
SWIDTH 373 0
DWIDTH 7 0
BBX 8 15 0 -5
BITMAP
39D82CE2
15F9ABF3
01FE2010
01F90000
01F80000
01F80000
01F80000
01F80000
01F80000
01F80000
01F80000
00F90000
00DA0040
007D09F4
0008EEB1
ENDCHAR
STARTCHAR uni027E
ENCODING 638
SWIDTH 371 0
DWIDTH 7 0
BBX 8 10 0 0
BITMAP
0007BEB1
006C06E3
00C90000
00F90000
01F80000
01F80000
01F80000
01F80000
03FB0000
7EFFD500
ENDCHAR
STARTCHAR uni027F
ENCODING 639
SWIDTH 371 0
DWIDTH 7 0
BBX 7 10 0 0
BITMAP
7EDA2000
BC16C000
0003F300
0002F600
0002F800
0002F800
0002F800
0002F800
0004F900
00CFFFC0
ENDCHAR
STARTCHAR uni0280
ENCODING 640
SWIDTH 494 0
DWIDTH 10 0
BBX 11 10 0 0
BITMAP
2AFEBCB40000
00FB009F2000
00EB004F6000
00EB005F5000
00EB02DB1000
00EEEF600000
00EB2EC10000
00EB05FB0000
01FB009F8000
4EFFC11DFD20
ENDCHAR
STARTCHAR uni0281
ENCODING 641
SWIDTH 494 0
DWIDTH 10 0
BBX 11 10 0 0
BITMAP
4EFFC11DFD20
01FB009F8000
00EB05FB0000
00EB2EC10000
00EEEF600000
00EB03DC1000
00EB005F5000
00EB004F6000
00FB009F2000
2BFECCB40000
ENDCHAR
STARTCHAR uni0282
ENCODING 642
SWIDTH 395 0
DWIDTH 8 0
BBX 8 15 0 -5
BITMAP
03BCC9A0
0E6007B0
2F5000A0
1EE60000
05EFC300
002AFF70
24004DF2
3A0006F5
3F4008F2
3DBCCB40
2B000000
2B000000
0C002000
0B16F000
03BE8000
ENDCHAR
STARTCHAR uni0283
ENCODING 643
SWIDTH 253 0
DWIDTH 5 0
BBX 10 20 -2 -5
BITMAP
000008CD70
0000891BF2
0001E60160
0003F50000
0004F50000
0004F50000
0004F50000
0004F50000
0004F50000
0004F50000
0004F50000
0004F50000
0004F50000
0004F50000
0004F50000
0004F50000
0004F40000
3105F20000
FA07C00000
8EDB200000
ENDCHAR
STARTCHAR uni0284
ENCODING 644
SWIDTH 286 0
DWIDTH 6 0
BBX 10 19 -2 -5
BITMAP
000006BEC2
00005E14D4
0000AB0000
0000DB0000
0000EB0000
0000FB0000
0000FB0000
0000FB0000
0000FB0000
0000FB0000
0000FB0000
0000FB0000
0000FB0000
007CFEC300
0000FA0000
0000F90000
0001F50000
8D23D00000
4DDA200000
ENDCHAR
STARTCHAR uni0285
ENCODING 645
SWIDTH 361 0
DWIDTH 7 0
BBX 10 15 0 -5
BITMAP
5DDA200000
CC14D00000
2102F40000
0001F70000
0001F80000
0001F80000
0001F80000
0001F80000
0001F80000
0001F80000
0001F80000
0000F80000
0000D90040
00008B07F4
000019CEA1
ENDCHAR
STARTCHAR uni0286
ENCODING 646
SWIDTH 253 0
DWIDTH 5 0
BBX 10 20 -2 -5
BITMAP
000008CD70
0000891CF2
0000E60160
0003F50000
0004F50000
0004F50000
0004F50000
0004F50000
0004F50000
0004F50000
0004F50000
0004F50000
0004F50000
0004F50000
0004F50000
0004F50000
18BDF80000
9605FBB000
A308E02000
3CCC300000
ENDCHAR
STARTCHAR uni0287
ENCODING 647
SWIDTH 315 0
DWIDTH 6 0
BBX 6 13 0 -3
BITMAP
3AEB00
505F50
003F60
003F70
003F70
003F70
003F70
003F70
003F70
5CCFD5
003FA0
003E10
003800
ENDCHAR
STARTCHAR uni0288
ENCODING 648
SWIDTH 309 0
DWIDTH 6 0
BBX 8 18 0 -5
BITMAP
00040000
00790000
03E90000
2DFFEC00
01F90000
01F90000
01F90000
01F90000
01F90000
01F90000
01F90000
01F90000
01F90000
01F90000
00F90000
00CA0050
006D19F5
0008DFB1
ENDCHAR
STARTCHAR uni0289
ENCODING 649
SWIDTH 580 0
DWIDTH 12 0
BBX 11 10 0 0
BITMAP
4CE9008CE700
03F90005F800
01F90002F800
01F90002F800
5CFECCCCFDB0
01F90002F800
01F90002F800
00FA0002F800
00CE202BF800
002CEB82FC60
ENDCHAR
STARTCHAR uni028A
ENCODING 650
SWIDTH 548 0
DWIDTH 11 0
BBX 11 10 0 0
BITMAP
0BEF404FEB00
005B000B5000
01D40005D100
08E00001E700
0EC00000CE00
2FB00000BF10
1FC00000CF10
0CE10001FB00
04F9001AE300
003ADCD92000
ENDCHAR
STARTCHAR uni028B
ENCODING 651
SWIDTH 530 0
DWIDTH 11 0
BBX 10 10 0 0
BITMAP
6CE7000D90
05F7000CF3
03F70002F7
03F700008A
03F700004A
03F7000039
03F8000055
01F9000091
00BE200550
0019DCA400
ENDCHAR
STARTCHAR uni028C
ENCODING 652
SWIDTH 495 0
DWIDTH 10 0
BBX 11 10 -1 0
BITMAP
00000B900000
00002FE10000
00008AF60000
0000D1EC0000
000590AF2000
000B304F8000
002D000DE000
00870008F500
01E30003FC00
2EFE402DFFD0
ENDCHAR
STARTCHAR uni028D
ENCODING 653
SWIDTH 764 0
DWIDTH 15 0
BBX 17 10 -1 0
BITMAP
00000C70005E100000
00003FD000BF500000
00009BF302BEB00000
0000D2F8085AF20000
000580CD0C05F80000
000B306F8800EE0000
002D001FF2008F5000
0078000BF1002FA000
01D40007F7000DF300
1EFE404EFFA0AFFE60
ENDCHAR
STARTCHAR uni028E
ENCODING 654
SWIDTH 492 0
DWIDTH 10 0
BBX 12 14 -1 0
BITMAP
00000005DE60
0000004DAD70
000000C40000
000004B00000
00000A600000
00002F700000
00007EE00000
0000C6F60000
000491ED0000
000A407F6000
001D001ED000
00790008F500
00D40003FD00
1DFE403DFFD1
ENDCHAR
STARTCHAR uni028F
ENCODING 655
SWIDTH 454 0
DWIDTH 9 0
BBX 11 10 -1 0
BITMAP
4EFF9008FE50
02ED0000C200
006F60067000
000BE21B0000
0002EA940000
00007FA00000
00002F800000
00002F800000
00004F900000
0007EFFC0000
ENDCHAR
STARTCHAR uni0290
ENCODING 656
SWIDTH 458 0
DWIDTH 9 0
BBX 12 15 0 -5
BITMAP
0FECCCEF5000
0E2004FC0000
1A000DF20000
00008F700000
0003FC000000
000CF3000000
007F80012000
02ED10067000
0BF4001C6000
5FFCCCEF5000
000000094000
000000084000
000000075011
0000000390C9
000000008CD4
ENDCHAR
STARTCHAR uni0291
ENCODING 657
SWIDTH 458 0
DWIDTH 9 0
BBX 9 13 0 -3
BITMAP
0FECCCEF50
0E1004FC00
18000DF200
00008F7000
0003FC0000
000CF30000
007F819C60
02ED1A41D0
0BF45701B0
5FFCECAA30
0006600000
000C000000
0066000000
ENDCHAR
STARTCHAR uni0292
ENCODING 658
SWIDTH 443 0
DWIDTH 9 0
BBX 9 15 0 -5
BITMAP
2FECCCFF20
3C1006F900
37002ED100
0000BF4000
0006F90000
002ED10000
006ED82000
00003BF600
000000CF20
0000006F70
0000005F80
0000006F70
5D1000AE20
7F9006E500
09ECB92000
ENDCHAR
STARTCHAR uni0293
ENCODING 659
SWIDTH 443 0
DWIDTH 9 0
BBX 9 18 0 -8
BITMAP
2FECCCFF20
3D1006F900
37001EE100
0100AF5000
0004FA0000
001DE20000
007FB40000
00138EC300
000002EE10
0000009F50
0000006F70
1AC5006F60
590A40AF10
2C11B5F700
04BBEE4000
00000B2000
000003A000
0000009200
ENDCHAR
STARTCHAR uni0294
ENCODING 660
SWIDTH 383 0
DWIDTH 8 0
BBX 8 15 0 0
BITMAP
03ACDA20
2E801BD1
7F3005F6
160003F8
000003F8
000006F5
00000DC0
0003CB20
00CC3000
00FA0000
00FA0000
00FA0000
00FA0000
02FC0000
6EFFD500
ENDCHAR
STARTCHAR uni0295
ENCODING 661
SWIDTH 383 0
DWIDTH 8 0
BBX 8 14 0 0
BITMAP
04CCCB30
4F600BE0
CE0008F1
ED000010
DD000000
8F300000
1BC20000
005A9400
0000FA00
0000FA00
0000FA00
0000FA00
0002FB00
009EFFD2
ENDCHAR
STARTCHAR uni0296
ENCODING 662
SWIDTH 408 0
DWIDTH 8 0
BBX 8 14 0 0
BITMAP
18CD0000
13ED0000
00CD0000
00CD0000
00CD0000
00CD0000
006B9300
00005F60
000009F2
000004F7
000003F8
5E2004F6
4F5008E1
06B9AA20
ENDCHAR
STARTCHAR uni0297
ENCODING 663
SWIDTH 437 0
DWIDTH 9 0
BBX 9 14 0 -4
BITMAP
0019CEC300
01D702EE10
08D0008F20
0D80000100
2F60000000
4F40000000
5F40000000
4F50000000
3F70000000
0FA0000000
0AE2000240
03EC204B10
004DFFB200
0000210000
ENDCHAR
STARTCHAR uni0298
ENCODING 664
SWIDTH 736 0
DWIDTH 15 0
BBX 15 14 0 0
BITMAP
00005BCCCA400000
002CC30006E90000
01DC1000004F9000
08F300000009F400
0ED000000003FA00
3F90006C3000EE00
5F8000EF9000CF00
5F80008E4000CF10
3FA000000000EE00
0ED000000003FA00
08F400000009F400
01CC1000004F9000
001CC30006EA0000
00006BDCDA400000
ENDCHAR
STARTCHAR uni0299
ENCODING 665
SWIDTH 485 0
DWIDTH 10 0
BBX 9 10 0 0
BITMAP
3BFECDC500
00FB008F40
00EB005F70
00EB00AF30
00EECFC300
00EB018D30
00EB000ED0
00EB000DF0
00FB003FB0
4CFECCD810
ENDCHAR
STARTCHAR uni029A
ENCODING 666
SWIDTH 500 0
DWIDTH 10 0
BBX 10 10 0 0
BITMAP
02ADCC9100
0EC0009E20
1F80000DB0
08D30008F2
007FD705F4
09D20005F4
3F800007F2
4F80000CB0
1EE2008E20
02ADCC9200
ENDCHAR
STARTCHAR uni029B
ENCODING 667
SWIDTH 536 0
DWIDTH 11 0
BBX 13 14 0 0
BITMAP
0000000008CE40
000000004A0C90
00000000750110
00000000950000
0018CCDFF40000
02EA1005F40000
0BE10000940000
2FA00000220000
4F900000000000
4F90007DDD4000
2FB00006F60000
0DE10004F40000
04FB1006F40000
003ADCCB500000
ENDCHAR
STARTCHAR uni029C
ENCODING 668
SWIDTH 599 0
DWIDTH 12 0
BBX 12 10 0 0
BITMAP
4EFFD21DFFE4
01FC0000CF10
00EB0000AE00
00EB0000AE00
00EECCCCEE00
00EB0000AE00
00EB0000AE00
00EB0000AE00
01FC0000CF10
4DFFD21DFFD4
ENDCHAR
STARTCHAR uni029D
ENCODING 669
SWIDTH 263 0
DWIDTH 5 0
BBX 8 19 -2 -5
BITMAP
0003EA00
0003FC00
00001000
00000000
0039DA00
0025FA00
0000FA00
0000FA00
0000FA00
0000FA00
0000FA00
0000FA00
0000FA00
0000FA00
0000FA00
06BCFC10
5A11FCC3
6704F311
1ACC6000
ENDCHAR
STARTCHAR uni029E
ENCODING 670
SWIDTH 542 0
DWIDTH 11 0
BBX 11 15 0 -5
BITMAP
CFFF64DFFD30
04FD100EE000
005FB00CD000
0007F90CD000
00009F7CD000
00000BEED000
00002B3CD000
0002C30CD000
005E500CD000
3DFFD10CD000
0000000CD000
0000000CD000
0000000CD000
0000000CE000
0000000CFE50
ENDCHAR
STARTCHAR uni029F
ENCODING 671
SWIDTH 440 0
DWIDTH 9 0
BBX 9 10 0 0
BITMAP
7EFFD00000
05F9000000
03F7000000
03F7000000
03F7000000
03F7000000
03F7000000
03F7000460
04F8000B40
5CFEBBEF20
ENDCHAR
STARTCHAR uni02A0
ENCODING 672
SWIDTH 541 0
DWIDTH 11 0
BBX 14 19 0 -5
BITMAP
000000003ACD91
00000002E209F4
00000009D00010
0000000CC00000
0019CCBEC00000
02D7006FC00000
0AB0000DC00000
1F70000DC00000
4F60000DC00000
5F70000DC00000
3F90000DC00000
1ED0000DC00000
08FA438FC00000
008EEB3DC00000
0000000DC00000
0000000DC00000
0000000DC00000
0000001EE00000
000008EFFD2000
ENDCHAR
STARTCHAR uni02A1
ENCODING 673
SWIDTH 393 0
DWIDTH 8 0
BBX 8 15 0 0
BITMAP
029CDA30
2E900AE2
5F5003F8
151001FA
000002FA
000005F6
00000CD1
0003CA10
00CD2000
00EC0000
4CFECC10
00EC0000
00EC0000
01FD0000
5EFFD600
ENDCHAR
STARTCHAR uni02A2
ENCODING 674
SWIDTH 393 0
DWIDTH 8 0
BBX 8 14 0 0
BITMAP
03BCCC40
4F700AE1
BF1006F2
CE000000
BF100000
5F600000
06E60000
0016D800
0000EC00
02CCFEC3
0000EC00
0000EC00
0001FD00
008EFFD3
ENDCHAR
STARTCHAR uni02A3
ENCODING 675
SWIDTH 830 0
DWIDTH 17 0
BBX 16 14 0 0
BITMAP
0000018CD0000000
0000002DD0000000
0000000CD0000000
0000000CD0000000
0019DDCEFDDDDEFD
01D9105FD0000BF6
0AC0000CD0005FB0
1F80000CD001EE20
4F60000CD009F600
5F70000CD04FB000
4F80000CD1DE1003
1FD0000CD8F5000C
08FB448EEFA0007C
008EEB4BFFEDDEFC
ENDCHAR
STARTCHAR uni02A4
ENCODING 676
SWIDTH 838 0
DWIDTH 17 0
BBX 17 19 0 -5
BITMAP
0000018CD000000000
0000002DD000000000
0000000CD000000000
0000000CD000000000
0019CCDEFCCCCCFF10
01D7004FD00008F900
0AC0000CD0002FE100
1F80000CD000BF5000
4F60000CD005FB0000
5F60000CD00DE20000
4F80000CD07FA10000
1FB0000CD036BF9100
08F6003EE00005FC00
008EDA7CE71000AF30
000000000000007F60
000000000000007F50
000000006B0000BE10
000000009F5006E400
000000001ADAA81000
ENDCHAR
STARTCHAR uni02A5
ENCODING 677
SWIDTH 829 0
DWIDTH 17 0
BBX 17 17 0 -3
BITMAP
0000018CD000000000
0000002DD000000000
0000000CD000000000
0000000CD000000000
0019CCDEFCCCCDFD00
01D8003FD0000CF600
0AC0000CD0006FB000
1F80000CD002EE2000
4F60000CD00BF60000
5F70000CD05FB00000
4F80000CD1EE25BA00
1FD0000CDAF6590A40
08FB43AFFFB1B00A30
008EEB4BFFDDEBA600
00000000002B000000
000000000094000000
0000000001A0000000
ENDCHAR
STARTCHAR uni02A6
ENCODING 678
SWIDTH 614 0
DWIDTH 12 0
BBX 12 13 0 0
BITMAP
003800000000
00A800000000
03F800000000
1BFDCDFECCC2
02F80AC003E2
02F80CB00082
02F808F91000
02F801AFE700
02F80005DFB1
02F8000009F8
01FA000001FA
00BF500018F4
0017CDCCC930
ENDCHAR
STARTCHAR uni02A7
ENCODING 679
SWIDTH 513 0
DWIDTH 10 0
BBX 13 20 0 -5
BITMAP
000000006CD910
00000005C09F50
0026000C900510
00A8000F800000
05F8001F800000
2CFDCCCF800000
02F8001F800000
02F8001F800000
02F8001F800000
02F8001F800000
02F8001F800000
02F8001F800000
02F8001F800000
01FA042F800000
007EB51F800000
0000001F800000
0000001F700000
0004302F500000
000CD14E100000
0005DDB4000000
ENDCHAR
STARTCHAR uni02A8
ENCODING 680
SWIDTH 687 0
DWIDTH 14 0
BBX 14 13 0 0
BITMAP
00380000000000
00A80000000000
04F80000000000
1BFDC904BCDB30
02F8005D203FE0
02F800E50007A0
02F804F2000000
02F807F1000000
02F807F3000000
02F805F706BC60
02F802FDA600C1
01FB00BFB101B0
008EBA57CEBA30
ENDCHAR
STARTCHAR uni02A9
ENCODING 681
SWIDTH 866 0
DWIDTH 17 0
BBX 16 20 0 -5
BITMAP
0005BDA100000000
003D07F800000000
00AB006200000000
00DB000000000000
00EB000000000000
6CFECCCDFC28CE80
00EB0000DE9006F5
00EB0000CD0001FA
00EB0000CD0000EB
00EB0000CD0000EC
00EB0000CD0000EC
00EB0000CD0000EC
00EB0000CD0000EC
02FD0000EE1000EC
8EFFE93DFFD400EC
00000000000000EB
00000000000000EA
00000000002300F7
0000000000BF43E2
00000000004DFC40
ENDCHAR
STARTCHAR uni02AA
ENCODING 682
SWIDTH 595 0
DWIDTH 12 0
BBX 12 14 0 0
BITMAP
6AE400000000
29F400000000
06F400000000
06F400000000
06F402BCCAB0
06F40D7007D0
06F42F6000B0
06F40EE60000
06F404EFC400
06F40029FF80
06F400003DF3
06F4000006F5
02F900002BD1
003ACCCCB710
ENDCHAR
STARTCHAR uni02AB
ENCODING 683
SWIDTH 580 0
DWIDTH 12 0
BBX 11 14 0 0
BITMAP
39DA00000000
02FA00000000
00FA00000000
00FA00000000
00FEDDDDEFA0
00FA0000CF20
00FA0006F800
00FA001ED100
00FA009F4000
00FA04FA0000
00FA0CE10040
00FA7F6001B0
01FCEC0009A0
4CFFFEDDEF90
ENDCHAR
STARTCHAR uni02AC
ENCODING 684
SWIDTH 599 0
DWIDTH 12 0
BBX 12 14 0 0
BITMAP
AFE48FF60AFA
0BC008E001B0
04F307F50740
00CA09AC0A00
005F743F7600
000DD00CE100
000330034000
ADD48DD60ADA
0CB00AD001C0
06F207F40560
00E809CA0A10
008E376F3900
002FC11EC300
000BA009C000
ENDCHAR
STARTCHAR uni02AD
ENCODING 685
SWIDTH 479 0
DWIDTH 10 0
BBX 8 14 1 0
BITMAP
9FFFFFF3
992222E3
980000E3
980000E3
980000E3
980000E3
54000082
00000000
9FFFFFF3
993333E3
980000E3
980000E3
980000E3
980000E3
ENDCHAR
STARTCHAR uni02AE
ENCODING 686
SWIDTH 595 0
DWIDTH 12 0
BBX 13 15 -1 -5
BITMAP
4EDA20005AE400
8D16C0003AF400
0003F30005F400
0003F60005F400
0003F70005F400
0003F70005F400
0003F70005F400
0001F90005F400
0000CD103CF400
00002DEA76F400
0000000005F400
0000000005F400
0000000005F400
0000000005F600
0000000005FFB0
ENDCHAR
STARTCHAR uni02AF
ENCODING 687
SWIDTH 600 0
DWIDTH 12 0
BBX 16 15 -1 -5
BITMAP
4EDA20005AE40000
8D16C0003AF40000
0003F30005F40000
0003F60005F40000
0003F70005F40000
0003F70005F40000
0003F70005F40000
0001F90005F40000
0000CD103CF40000
00002DEA76F40000
0000000005F40000
0000000004F50000
0000000002F50250
0000000000B91DF1
00000000002AEE80
ENDCHAR
STARTCHAR uni02B0
ENCODING 688
SWIDTH 488 0
DWIDTH 10 0
BBX 10 11 0 5
BITMAP
4CF2000000
05F2000000
05F2000000
05F3AED400
05FB43DC00
05F2007F00
05F2006F10
05F2005F10
05F2005F10
05F2006F20
4CFB34DFB2
ENDCHAR
STARTCHAR uni02B1
ENCODING 689
SWIDTH 488 0
DWIDTH 10 0
BBX 10 12 0 5
BITMAP
0017AC8000
00A508F100
02F2000000
04F2000000
05F3AED400
05FB43DC00
05F2007F00
05F2006F10
05F2005F10
05F2005F10
05F2006F20
4CFB34DFB2
ENDCHAR
STARTCHAR uni02B2
ENCODING 690
SWIDTH 222 0
DWIDTH 4 0
BBX 6 14 -2 2
BITMAP
0006E4
0006E3
000000
004BF3
0004F3
0004F3
0004F3
0004F3
0004F3
0004F3
0004F3
0004F1
4D26C0
2CDB30
ENDCHAR
STARTCHAR uni02B3
ENCODING 691
SWIDTH 325 0
DWIDTH 7 0
BBX 7 8 0 5
BITMAP
4CF2AE20
05FA7D20
04F50000
04F20000
04F20000
04F20000
05F20000
4CFC5000
ENDCHAR
STARTCHAR uni02B4
ENCODING 692
SWIDTH 325 0
DWIDTH 7 0
BBX 7 8 0 5
BITMAP
007DFB20
0005F200
0005F200
0005F200
0005F200
0007F200
4C6BF200
4E84EB20
ENDCHAR
STARTCHAR uni02B5
ENCODING 693
SWIDTH 325 0
DWIDTH 7 0
BBX 8 10 0 3
BITMAP
007DFC30
0005F200
0005F200
0005F200
0005F200
0007F200
4C7BF200
4E83F200
0000E314
00004AB9
ENDCHAR
STARTCHAR uni02B6
ENCODING 694
SWIDTH 443 0
DWIDTH 9 0
BBX 9 8 0 5
BITMAP
3CFC30CE60
04F306F400
04F31E9000
04F39D1000
04FBE92000
04F306E300
04F304F600
3CFBBD9100
ENDCHAR
STARTCHAR uni02B7
ENCODING 695
SWIDTH 653 0
DWIDTH 13 0
BBX 13 8 0 5
BITMAP
BFD42CFC109FB0
0CB001F7001C00
06F200ED006700
01E805AF30B100
00AE0A1D91A000
004F6A08E75000
000DE403FD0000
0007D000C80000
ENDCHAR
STARTCHAR uni02B8
ENCODING 696
SWIDTH 427 0
DWIDTH 9 0
BBX 9 11 0 2
BITMAP
AFE604CE50
0CD0009500
05F500C000
00DC048000
006F4A2000
000EAA0000
0007F40000
0002D00000
0007700000
495D100000
6EC3000000
ENDCHAR
STARTCHAR uni02B9
ENCODING 697
SWIDTH 296 0
DWIDTH 6 0
BBX 4 7 1 8
BITMAP
01D6
06F6
0AD0
0E60
4D00
8600
1000
ENDCHAR
STARTCHAR uni02BA
ENCODING 698
SWIDTH 456 0
DWIDTH 9 0
BBX 7 7 1 8
BITMAP
01D60B90
06F63F90
0AD07F20
0E60C900
4D01F200
86059000
10011000
ENDCHAR
STARTCHAR uni02BB
ENCODING 699
SWIDTH 245 0
DWIDTH 5 0
BBX 3 5 1 9
BITMAP
0570
4A00
B610
CFC0
6EA0
ENDCHAR
STARTCHAR uni02BC
ENCODING 700
SWIDTH 244 0
DWIDTH 5 0
BBX 3 6 1 9
BITMAP
1100
DF60
CFA0
0690
1C20
8200
ENDCHAR
STARTCHAR uni02BD
ENCODING 701
SWIDTH 244 0
DWIDTH 5 0
BBX 3 6 1 9
BITMAP
0200
8FB0
CFA0
B400
3B00
0370
ENDCHAR
STARTCHAR uni02BE
ENCODING 702
SWIDTH 203 0
DWIDTH 4 0
BBX 4 4 0 10
BITMAP
5C91
00A7
00B7
5C91
ENDCHAR
STARTCHAR uni02BF
ENCODING 703
SWIDTH 203 0
DWIDTH 4 0
BBX 4 4 0 10
BITMAP
09C5
6B00
6B00
09C5
ENDCHAR
STARTCHAR uni02C0
ENCODING 704
SWIDTH 364 0
DWIDTH 7 0
BBX 7 8 0 7
BITMAP
03999200
1F906E10
09201F70
00001F80
00004F60
0003DA00
00CC4000
00CA0000
ENDCHAR
STARTCHAR uni02C1
ENCODING 705
SWIDTH 364 0
DWIDTH 7 0
BBX 7 8 0 7
BITMAP
0189A500
0BA05F40
3F500920
4F500000
2F800000
06E50000
002AF100
0006F100
ENDCHAR
STARTCHAR uni02C2
ENCODING 706
SWIDTH 324 0
DWIDTH 6 0
BBX 6 8 0 8
BITMAP
000001
00018B
005DA2
1BC400
1BD400
005DA2
00018B
000001
ENDCHAR
STARTCHAR uni02C3
ENCODING 707
SWIDTH 324 0
DWIDTH 6 0
BBX 6 8 0 8
BITMAP
100000
3D4000
05EA10
0018E6
0019E6
05EA10
3C4000
100000
ENDCHAR
STARTCHAR uni02C4
ENCODING 708
SWIDTH 324 0
DWIDTH 6 0
BBX 7 5 0 10
BITMAP
005C0000
01DD6000
08A3E100
2E209A00
B7001E40
ENDCHAR
STARTCHAR uni02C5
ENCODING 709
SWIDTH 324 0
DWIDTH 6 0
BBX 7 5 0 10
BITMAP
B7001E40
2E209A00
08A3E100
01DD6000
005C0000
ENDCHAR
STARTCHAR circumflex
ENCODING 710
SWIDTH 342 0
DWIDTH 7 0
BBX 7 3 0 11
BITMAP
009F7000
05D5E300
2B103B10
ENDCHAR
STARTCHAR caron
ENCODING 711
SWIDTH 342 0
DWIDTH 7 0
BBX 7 3 0 11
BITMAP
2B102B10
05D5D300
009F7000
ENDCHAR
STARTCHAR uni02C8
ENCODING 712
SWIDTH 284 0
DWIDTH 6 0
BBX 2 6 2 9
BITMAP
84
84
84
84
84
84
ENDCHAR
STARTCHAR uni02C9
ENCODING 713
SWIDTH 350 0
DWIDTH 7 0
BBX 7 1 0 12
BITMAP
5CCCCC50
ENDCHAR
STARTCHAR uni02CA
ENCODING 714
SWIDTH 222 0
DWIDTH 4 0
BBX 4 3 0 11
BITMAP
04FA
0BB1
3C10
ENDCHAR
STARTCHAR uni02CB
ENCODING 715
SWIDTH 222 0
DWIDTH 4 0
BBX 4 3 0 11
BITMAP
4FA0
05F2
0069
ENDCHAR
STARTCHAR uni02CC
ENCODING 716
SWIDTH 284 0
DWIDTH 6 0
BBX 2 6 2 -4
BITMAP
84
84
84
84
84
84
ENDCHAR
STARTCHAR uni02CD
ENCODING 717
SWIDTH 342 0
DWIDTH 7 0
BBX 7 1 0 -3
BITMAP
9CCCCC70
ENDCHAR
STARTCHAR uni02CE
ENCODING 718
SWIDTH 222 0
DWIDTH 4 0
BBX 4 3 0 -3
BITMAP
4FA0
05F2
0069
ENDCHAR
STARTCHAR uni02CF
ENCODING 719
SWIDTH 223 0
DWIDTH 4 0
BBX 4 3 0 -3
BITMAP
04FA
0BB1
3C10
ENDCHAR
STARTCHAR uni02D0
ENCODING 720
SWIDTH 341 0
DWIDTH 7 0
BBX 4 9 1 0
BITMAP
1EFC
09F6
04F1
0000
0000
0000
04F1
09F6
1EFC
ENDCHAR
STARTCHAR uni02D1
ENCODING 721
SWIDTH 341 0
DWIDTH 7 0
BBX 4 3 1 6
BITMAP
1EFC
09F6
04F1
ENDCHAR
STARTCHAR uni02D2
ENCODING 722
SWIDTH 341 0
DWIDTH 7 0
BBX 5 6 1 2
BITMAP
6CA300
005E10
000D60
000D60
005E10
6CA300
ENDCHAR
STARTCHAR uni02D3
ENCODING 723
SWIDTH 341 0
DWIDTH 7 0
BBX 5 6 1 2
BITMAP
04BC40
3E3000
8A0000
8A0000
3E3000
04BC40
ENDCHAR
STARTCHAR uni02D4
ENCODING 724
SWIDTH 341 0
DWIDTH 7 0
BBX 5 5 1 3
BITMAP
001000
00C000
00C000
00C000
CDED90
ENDCHAR
STARTCHAR uni02D5
ENCODING 725
SWIDTH 341 0
DWIDTH 7 0
BBX 5 4 1 3
BITMAP
BCDC90
00C000
00C000
00A000
ENDCHAR
STARTCHAR uni02D6
ENCODING 726
SWIDTH 341 0
DWIDTH 7 0
BBX 5 4 1 3
BITMAP
00C000
7CEC40
00C000
00C000
ENDCHAR
STARTCHAR uni02D7
ENCODING 727
SWIDTH 341 0
DWIDTH 7 0
BBX 5 1 1 5
BITMAP
7CCC40
ENDCHAR
STARTCHAR breve
ENCODING 728
SWIDTH 353 0
DWIDTH 7 0
BBX 7 4 0 11
BITMAP
10000010
55000550
1B101B10
03BCB300
ENDCHAR
STARTCHAR dotaccent
ENCODING 729
SWIDTH 194 0
DWIDTH 4 0
BBX 3 3 0 12
BITMAP
0110
1EE0
1DC0
ENDCHAR
STARTCHAR ring
ENCODING 730
SWIDTH 265 0
DWIDTH 5 0
BBX 5 4 0 11
BITMAP
08CA10
4A0590
4A0590
08CA20
ENDCHAR
STARTCHAR ogonek
ENCODING 731
SWIDTH 277 0
DWIDTH 6 0
BBX 5 6 0 -5
BITMAP
003200
059000
2E1000
5F2050
1DFD30
001000
ENDCHAR
STARTCHAR tilde
ENCODING 732
SWIDTH 381 0
DWIDTH 8 0
BBX 7 2 0 11
BITMAP
07CB5390
3506CC40
ENDCHAR
STARTCHAR hungarumlaut
ENCODING 733
SWIDTH 350 0
DWIDTH 7 0
BBX 7 3 0 11
BITMAP
05F8AF40
0BB2F600
3C187000
ENDCHAR
STARTCHAR uni02DE
ENCODING 734
SWIDTH 205 0
DWIDTH 4 0
BBX 5 3 -1 4
BITMAP
074020
7B9090
02CB30
ENDCHAR
STARTCHAR uni02DF
ENCODING 735
SWIDTH 302 0
DWIDTH 6 0
BBX 6 5 0 10
BITMAP
170072
1C97C1
01DE10
07CC80
2C11C3
ENDCHAR
STARTCHAR uni02E0
ENCODING 736
SWIDTH 413 0
DWIDTH 8 0
BBX 9 11 0 2
BITMAP
BFE404DD30
0CD000B200
06F402A000
01EA084000
008F1B0000
002FA60000
000BF10000
0009F40000
0018CA0000
00467C0000
002BC50000
ENDCHAR
STARTCHAR uni02E1
ENCODING 737
SWIDTH 244 0
DWIDTH 5 0
BBX 5 11 0 5
BITMAP
4CF200
05F200
04F200
04F200
04F200
04F200
04F200
04F200
04F200
05F300
3CFB30
ENDCHAR
STARTCHAR uni02E2
ENCODING 738
SWIDTH 337 0
DWIDTH 7 0
BBX 7 8 0 5
BITMAP
07BAA900
3E004B00
3F700600
0AFD5000
005DF900
54009F20
5B005F10
5BBBC500
ENDCHAR
STARTCHAR uni02E3
ENCODING 739
SWIDTH 445 0
DWIDTH 9 0
BBX 9 8 0 5
BITMAP
3DFC25FC20
01EB02B000
005F5A1000
000AE50000
0009DB0000
00594F7000
02C109F300
5EC20BFE40
ENDCHAR
STARTCHAR uni02E4
ENCODING 740
SWIDTH 364 0
DWIDTH 7 0
BBX 8 11 0 5
BITMAP
018A9C60
0AC008F2
1F700170
2F600000
0EA00000
04F71000
0028D800
0000CA00
0000CA00
0000DA00
002AFE90
ENDCHAR
STARTCHAR uni02E5
ENCODING 741
SWIDTH 423 0
DWIDTH 8 0
BBX 7 14 1 0
BITMAP
CCCCCC90
000006A0
000006A0
000006A0
000006A0
000006A0
000006A0
000006A0
000006A0
000006A0
000006A0
000006A0
000006A0
00000580
ENDCHAR
STARTCHAR uni02E6
ENCODING 742
SWIDTH 414 0
DWIDTH 8 0
BBX 8 15 0 0
BITMAP
00000011
00000087
00000087
00000087
00000087
2CCCCCE7
00000087
00000087
00000087
00000087
00000087
00000087
00000087
00000087
00000076
ENDCHAR
STARTCHAR uni02E7
ENCODING 743
SWIDTH 414 0
DWIDTH 8 0
BBX 8 15 0 -1
BITMAP
00000054
00000087
00000087
00000087
00000087
00000087
00000087
2CCCCCE7
00000087
00000087
00000087
00000087
00000087
00000087
00000033
ENDCHAR
STARTCHAR uni02E8
ENCODING 744
SWIDTH 414 0
DWIDTH 8 0
BBX 8 15 0 0
BITMAP
00000011
00000087
00000087
00000087
00000087
00000087
00000087
00000087
00000087
00000087
2CCCCCE7
00000087
00000087
00000087
00000076
ENDCHAR
STARTCHAR uni02E9
ENCODING 745
SWIDTH 414 0
DWIDTH 8 0
BBX 8 15 0 0
BITMAP
00000011
00000087
00000087
00000087
00000087
00000087
00000087
00000087
00000087
00000087
00000087
00000087
00000087
00000087
2CCCCCD6
ENDCHAR
STARTCHAR uni02EC
ENCODING 748
SWIDTH 341 0
DWIDTH 7 0
BBX 7 5 0 -3
BITMAP
37001820
1E709B00
06E4F300
00CF8000
003D1000
ENDCHAR
STARTCHAR uni02ED
ENCODING 749
SWIDTH 380 0
DWIDTH 8 0
BBX 7 4 0 11
BITMAP
3CCCCCA0
00000000
00000000
3CCCCCA0
ENDCHAR
STARTCHAR uni02F7
ENCODING 759
SWIDTH 381 0
DWIDTH 8 0
BBX 7 2 0 -3
BITMAP
07CB5390
3506CC40
ENDCHAR
STARTCHAR uni0300
ENCODING 768
SWIDTH 0 0
DWIDTH 0 0
BBX 4 3 -7 11
BITMAP
9F50
0AC0
00B4
ENDCHAR
STARTCHAR uni0301
ENCODING 769
SWIDTH 0 0
DWIDTH 0 0
BBX 4 3 -6 11
BITMAP
08F6
1E80
7800
ENDCHAR
STARTCHAR uni0302
ENCODING 770
SWIDTH 0 0
DWIDTH 0 0
BBX 6 3 -8 11
BITMAP
009F60
05D5E3
2B103B
ENDCHAR
STARTCHAR uni0303
ENCODING 771
SWIDTH 0 0
DWIDTH 0 0
BBX 7 2 -8 11
BITMAP
1AC93470
7118DA10
ENDCHAR
STARTCHAR uni0304
ENCODING 772
SWIDTH 0 0
DWIDTH 0 0
BBX 7 1 -8 12
BITMAP
6CCCCC30
ENDCHAR
STARTCHAR uni0305
ENCODING 773
SWIDTH 0 0
DWIDTH 0 0
BBX 8 1 -8 12
BITMAP
CCCCCCCC
ENDCHAR
STARTCHAR uni0306
ENCODING 774
SWIDTH 0 0
DWIDTH 0 0
BBX 7 4 -8 11
BITMAP
10000000
73000730
2A102B00
04BCA200
ENDCHAR
STARTCHAR uni0307
ENCODING 775
SWIDTH 0 0
DWIDTH 0 0
BBX 3 3 -6 12
BITMAP
0200
9F60
7E50
ENDCHAR
STARTCHAR uni0308
ENCODING 776
SWIDTH 0 0
DWIDTH 0 0
BBX 7 3 -8 12
BITMAP
01000200
BF306F80
AE205E70
ENDCHAR
STARTCHAR uni0309
ENCODING 777
SWIDTH 0 0
DWIDTH 0 0
BBX 5 5 -7 11
BITMAP
08CA00
1E1C60
010B70
001D20
01B100
ENDCHAR
STARTCHAR uni030A
ENCODING 778
SWIDTH 0 0
DWIDTH 0 0
BBX 5 4 -7 11
BITMAP
1AC800
860950
860950
1AC900
ENDCHAR
STARTCHAR uni030B
ENCODING 779
SWIDTH 0 0
DWIDTH 0 0
BBX 7 3 -7 11
BITMAP
06F7BE20
0D93F400
4B096000
ENDCHAR
STARTCHAR uni030C
ENCODING 780
SWIDTH 0 0
DWIDTH 0 0
BBX 6 3 -8 11
BITMAP
2B103B
05D5D3
009F60
ENDCHAR
STARTCHAR uni030D
ENCODING 781
SWIDTH 0 0
DWIDTH 0 0
BBX 2 4 -6 11
BITMAP
2E
2E
2E
2E
ENDCHAR
STARTCHAR uni030E
ENCODING 782
SWIDTH 0 0
DWIDTH 0 0
BBX 5 4 -7 11
BITMAP
980C60
980C60
980C60
980C60
ENDCHAR
STARTCHAR uni030F
ENCODING 783
SWIDTH 0 0
DWIDTH 0 0
BBX 7 3 -9 11
BITMAP
5F8AF300
08E1C900
00961C10
ENDCHAR
STARTCHAR uni0310
ENCODING 784
SWIDTH 0 0
DWIDTH 0 0
BBX 7 5 -8 11
BITMAP
007E4000
519F6430
65020910
1B103A00
03BCA100
ENDCHAR
STARTCHAR uni0311
ENCODING 785
SWIDTH 0 0
DWIDTH 0 0
BBX 7 3 -8 11
BITMAP
05BCA200
2C104C00
53000720
ENDCHAR
STARTCHAR uni0312
ENCODING 786
SWIDTH 0 0
DWIDTH 0 0
BBX 3 5 -6 11
BITMAP
0230
5A10
D300
EF80
9E60
ENDCHAR
STARTCHAR uni0313
ENCODING 787
SWIDTH 0 0
DWIDTH 0 0
BBX 3 6 -6 10
BITMAP
0200
BF70
AEB0
0690
5B10
2000
ENDCHAR
STARTCHAR uni0314
ENCODING 788
SWIDTH 0 0
DWIDTH 0 0
BBX 3 6 -6 10
BITMAP
0200
AF70
EE70
C300
3B30
0120
ENDCHAR
STARTCHAR uni0315
ENCODING 789
SWIDTH 0 0
DWIDTH 0 0
BBX 2 4 -5 10
BITMAP
AF
BC
C7
C1
ENDCHAR
STARTCHAR uni0316
ENCODING 790
SWIDTH 0 0
DWIDTH 0 0
BBX 4 3 -7 -4
BITMAP
9F50
0BC0
00B4
ENDCHAR
STARTCHAR uni0317
ENCODING 791
SWIDTH 0 0
DWIDTH 0 0
BBX 4 3 -6 -4
BITMAP
04FA
0BB0
3C10
ENDCHAR
STARTCHAR uni0318
ENCODING 792
SWIDTH 0 0
DWIDTH 0 0
BBX 4 4 -7 -5
BITMAP
000C
1CCC
000C
000C
ENDCHAR
STARTCHAR uni0319
ENCODING 793
SWIDTH 0 0
DWIDTH 0 0
BBX 3 4 -6 -5
BITMAP
C000
ECA0
C000
C000
ENDCHAR
STARTCHAR uni031A
ENCODING 794
SWIDTH 0 0
DWIDTH 0 0
BBX 5 4 -7 10
BITMAP
9CCD80
000880
000880
000770
ENDCHAR
STARTCHAR uni031B
ENCODING 795
SWIDTH 0 0
DWIDTH 0 0
BBX 4 4 -4 9
BITMAP
0085
00CC
007A
6981
ENDCHAR
STARTCHAR uni031C
ENCODING 796
SWIDTH 0 0
DWIDTH 0 0
BBX 4 4 -7 -5
BITMAP
06C6
1D10
1D10
05C6
ENDCHAR
STARTCHAR uni031D
ENCODING 797
SWIDTH 0 0
DWIDTH 0 0
BBX 5 4 -7 -4
BITMAP
001000
00C000
00C000
7CDC40
ENDCHAR
STARTCHAR uni031E
ENCODING 798
SWIDTH 0 0
DWIDTH 0 0
BBX 5 4 -7 -5
BITMAP
7CDC40
00C000
00C000
005000
ENDCHAR
STARTCHAR uni031F
ENCODING 799
SWIDTH 0 0
DWIDTH 0 0
BBX 5 4 -7 -5
BITMAP
00C000
7CEC40
00C000
00C000
ENDCHAR
STARTCHAR uni0320
ENCODING 800
SWIDTH 0 0
DWIDTH 0 0
BBX 5 1 -7 -4
BITMAP
7CCC40
ENDCHAR
STARTCHAR uni0321
ENCODING 801
SWIDTH 0 0
DWIDTH 0 0
BBX 6 6 -9 -5
BITMAP
000068
0000BE
0000BD
2600CA
8F71E4
2BEC60
ENDCHAR
STARTCHAR uni0322
ENCODING 802
SWIDTH 0 0
DWIDTH 0 0
BBX 6 6 -5 -5
BITMAP
680000
AE0000
9F0000
6F0044
1E44FC
03BED4
ENDCHAR
STARTCHAR uni0323
ENCODING 803
SWIDTH 0 0
DWIDTH 0 0
BBX 3 3 -6 -4
BITMAP
0200
9F60
7E50
ENDCHAR
STARTCHAR uni0324
ENCODING 804
SWIDTH 0 0
DWIDTH 0 0
BBX 7 3 -8 -4
BITMAP
01000200
BF306F80
AE205E70
ENDCHAR
STARTCHAR uni0325
ENCODING 805
SWIDTH 0 0
DWIDTH 0 0
BBX 5 4 -7 -5
BITMAP
1AC800
860950
860950
1AC900
ENDCHAR
STARTCHAR uni0326
ENCODING 806
SWIDTH 0 0
DWIDTH 0 0
BBX 3 6 -6 -6
BITMAP
0200
BF70
AFB0
0590
4B20
3000
ENDCHAR
STARTCHAR uni0327
ENCODING 807
SWIDTH 0 0
DWIDTH 0 0
BBX 5 5 -7 -5
BITMAP
035000
06CA00
000D50
111D40
2AC800
ENDCHAR
STARTCHAR uni0328
ENCODING 808
SWIDTH 0 0
DWIDTH 0 0
BBX 5 6 -7 -5
BITMAP
004100
086000
5D0000
8D1140
3EFB20
001000
ENDCHAR
STARTCHAR uni0329
ENCODING 809
SWIDTH 0 0
DWIDTH 0 0
BBX 2 4 -6 -5
BITMAP
2E
2E
2E
2E
ENDCHAR
STARTCHAR uni032A
ENCODING 810
SWIDTH 0 0
DWIDTH 0 0
BBX 6 3 -8 -4
BITMAP
1DCCCB
1B000C
040004
ENDCHAR
STARTCHAR uni032B
ENCODING 811
SWIDTH 0 0
DWIDTH 0 0
BBX 7 3 -8 -4
BITMAP
71170350
A32D0770
3BB8CB10
ENDCHAR
STARTCHAR uni032C
ENCODING 812
SWIDTH 0 0
DWIDTH 0 0
BBX 6 3 -8 -4
BITMAP
2B103B
05D5D3
009F60
ENDCHAR
STARTCHAR uni032D
ENCODING 813
SWIDTH 0 0
DWIDTH 0 0
BBX 6 3 -8 -4
BITMAP
009F60
05D5E3
2B103B
ENDCHAR
STARTCHAR uni032E
ENCODING 814
SWIDTH 0 0
DWIDTH 0 0
BBX 7 4 -8 -4
BITMAP
10000000
73000730
2A102B00
04BCA200
ENDCHAR
STARTCHAR uni032F
ENCODING 815
SWIDTH 0 0
DWIDTH 0 0
BBX 7 3 -8 -4
BITMAP
05BCA300
3A101B00
63000630
ENDCHAR
STARTCHAR uni0330
ENCODING 816
SWIDTH 0 0
DWIDTH 0 0
BBX 7 2 -8 -3
BITMAP
3BC83650
8029D900
ENDCHAR
STARTCHAR uni0331
ENCODING 817
SWIDTH 0 0
DWIDTH 0 0
BBX 7 1 -8 -3
BITMAP
6CCCCC30
ENDCHAR
STARTCHAR uni0332
ENCODING 818
SWIDTH 0 0
DWIDTH 0 0
BBX 11 1 -10 -3
BITMAP
8CCCCCCCCC60
ENDCHAR
STARTCHAR uni0333
ENCODING 819
SWIDTH 0 0
DWIDTH 0 0
BBX 11 3 -10 -5
BITMAP
8CCCCCCCCC60
000000000000
8CCCCCCCCC60
ENDCHAR
STARTCHAR uni0334
ENCODING 820
SWIDTH 0 0
DWIDTH 0 0
BBX 7 2 -8 4
BITMAP
3BC83470
9029DB10
ENDCHAR
STARTCHAR uni0335
ENCODING 821
SWIDTH 0 0
DWIDTH 0 0
BBX 7 1 -8 5
BITMAP
9CCCCC60
ENDCHAR
STARTCHAR uni0336
ENCODING 822
SWIDTH 0 0
DWIDTH 0 0
BBX 11 1 -10 5
BITMAP
8CCCCCCCCC60
ENDCHAR
STARTCHAR uni0337
ENCODING 823
SWIDTH 0 0
DWIDTH 0 0
BBX 6 5 -8 5
BITMAP
000005
0002B7
005C30
19A100
150000
ENDCHAR
STARTCHAR uni0338
ENCODING 824
SWIDTH 0 0
DWIDTH 0 0
BBX 9 18 -9 -3
BITMAP
0000000350
0000000B50
0000002E00
0000009800
000001E200
000006A000
00000C4000
00004D0000
0000A70000
0001E10000
0007900000
000D300000
005C000000
00B5000000
02E0000000
0980000000
1E20000000
6A00000000
ENDCHAR
STARTCHAR uni0339
ENCODING 825
SWIDTH 0 0
DWIDTH 0 0
BBX 3 4 -6 -5
BITMAP
8B30
02C0
02C0
8B30
ENDCHAR
STARTCHAR uni033A
ENCODING 826
SWIDTH 0 0
DWIDTH 0 0
BBX 6 3 -8 -4
BITMAP
170007
1B000C
1DCCCC
ENDCHAR
STARTCHAR uni033B
ENCODING 827
SWIDTH 0 0
DWIDTH 0 0
BBX 5 4 -7 -5
BITMAP
5CCD20
670A30
670A30
5CCD20
ENDCHAR
STARTCHAR uni033C
ENCODING 828
SWIDTH 0 0
DWIDTH 0 0
BBX 7 3 -8 -4
BITMAP
6CA4BC40
205E2020
00030000
ENDCHAR
STARTCHAR uni033D
ENCODING 829
SWIDTH 0 0
DWIDTH 0 0
BBX 5 5 -7 10
BITMAP
330510
2C8B10
07F400
3B2C20
010100
ENDCHAR
STARTCHAR uni033E
ENCODING 830
SWIDTH 0 0
DWIDTH 0 0
BBX 3 7 -6 10
BITMAP
0850
7900
8B00
3F30
0C60
0C40
6400
ENDCHAR
STARTCHAR uni033F
ENCODING 831
SWIDTH 0 0
DWIDTH 0 0
BBX 9 3 -9 11
BITMAP
6CCCCCCC40
0000000000
6CCCCCCC40
ENDCHAR
STARTCHAR uni0346
ENCODING 838
SWIDTH 0 0
DWIDTH 0 0
BBX 7 3 -8 11
BITMAP
7DCCCD40
8A000C40
78000B40
ENDCHAR
STARTCHAR uni0347
ENCODING 839
SWIDTH 0 0
DWIDTH 0 0
BBX 7 3 -8 -4
BITMAP
9CCCCC70
00000000
9CCCCC70
ENDCHAR
STARTCHAR uni034C
ENCODING 844
SWIDTH 0 0
DWIDTH 0 0
BBX 7 5 -8 11
BITMAP
1AC81170
7118CA10
00000000
1AC93470
7118DA10
ENDCHAR
STARTCHAR uni034D
ENCODING 845
SWIDTH 0 0
DWIDTH 0 0
BBX 11 5 -10 -6
BITMAP
002300040000
04A00001B200
3FFCCCCCFD10
04A00001B200
002300041000
ENDCHAR
STARTCHAR uni0359
ENCODING 857
SWIDTH 0 0
DWIDTH 0 0
BBX 7 7 -8 -8
BITMAP
002D0000
002E0000
6C1B3D20
179BA600
179B9600
6C2C3D30
002D0000
ENDCHAR
STARTCHAR uni035C
ENCODING 860
SWIDTH 0 0
DWIDTH 0 0
BBX 14 4 -7 -5
BITMAP
60000000000006
95000000000059
1BA41000015AB1
0049CCCCCC9400
ENDCHAR
STARTCHAR uni0360
ENCODING 864
SWIDTH 0 0
DWIDTH 0 0
BBX 10 3 -5 11
BITMAP
2ACA400005
9203BA3029
500004BCA2
ENDCHAR
STARTCHAR uni0361
ENCODING 865
SWIDTH 0 0
DWIDTH 0 0
BBX 10 3 -5 11
BITMAP
049BCCB930
6B200003B4
A000000019
ENDCHAR
STARTCHAR uni0362
ENCODING 866
SWIDTH 0 0
DWIDTH 0 0
BBX 16 5 -8 -6
BITMAP
0000000000000300
0000000000000680
6CCCCCCCCCCCCDF9
0000000000000690
0000000000000300
ENDCHAR
STARTCHAR uni037E
ENCODING 894
SWIDTH 261 0
DWIDTH 5 0
BBX 4 13 1 -3
BITMAP
4E90
6FB0
0200
0000
0000
0000
0000
0000
3A70
6FF2
00E2
05A0
4700
ENDCHAR
STARTCHAR tonos
ENCODING 900
SWIDTH 165 0
DWIDTH 3 0
BBX 3 3 0 11
BITMAP
3F90
4F20
5900
ENDCHAR
STARTCHAR dieresistonos
ENCODING 901
SWIDTH 426 0
DWIDTH 9 0
BBX 8 3 0 11
BITMAP
2A56F597
4E77D1DA
00086000
ENDCHAR
STARTCHAR Alphatonos
ENCODING 902
SWIDTH 718 0
DWIDTH 14 0
BBX 15 14 0 0
BITMAP
0BF1008A00000000
0CB000EF20000000
0E5005FF80000000
0D000B7FE0000000
00002E1BF5000000
00008906FC000000
0000E401FF300000
0006E000BF900000
000C80005FE10000
003FCCCCCFF70000
009B000008FD0000
01E4000001FF4000
09F0000000CFC100
CFFD30001DFFFE30
ENDCHAR
STARTCHAR anoteleia
ENCODING 903
SWIDTH 261 0
DWIDTH 5 0
BBX 3 3 1 7
BITMAP
4E90
6FB0
0200
ENDCHAR
STARTCHAR Epsilontonos
ENCODING 904
SWIDTH 745 0
DWIDTH 15 0
BBX 16 14 -1 0
BITMAP
0FC08DFFDDDEFF90
1F7002FD000019A0
2F1000FD000001A0
3A0000FD00000030
000000FD00009100
000000FD0000A100
000000FD0002E100
000000FFCCCEF100
000000FD0000B100
000000FD00000000
000000FD00000084
000000FD000000D2
000001FD000019F0
00009DFFDDDEFFD0
ENDCHAR
STARTCHAR Etatonos
ENCODING 905
SWIDTH 896 0
DWIDTH 18 0
BBX 19 14 -1 0
BITMAP
0FC0BEFFEA006EFFFD30
1F7003FF200000CF7000
2F1000FD0000009F4000
3A0000FD0000008F4000
000000FD0000008F4000
000000FD0000008F4000
000000FD0000008F4000
000000FFCCCCCCEF4000
000000FD0000008F4000
000000FD0000008F4000
000000FD0000008F4000
000000FD0000009F4000
000002FF100000BF6000
0000BEFFEA006DFFFC30
ENDCHAR
STARTCHAR Iotatonos
ENCODING 906
SWIDTH 478 0
DWIDTH 10 0
BBX 10 14 -1 0
BITMAP
0FC0BEFFEA
1F7002FF10
2F1000EE00
3A0000EE00
000000EE00
000000EE00
000000EE00
000000EE00
000000EE00
000000EE00
000000EE00
000000EE00
000002FF10
0000BEFFEA
ENDCHAR
STARTCHAR Omicrontonos
ENCODING 908
SWIDTH 806 0
DWIDTH 16 0
BBX 17 14 -1 0
BITMAP
0FC00039CCCC610000
1F7006F81004EC2000
2F105F9000003FC000
3A00DF10000009F700
0004FB00000004FC00
0007F900000001FF00
0009F800000000FF10
0009F800000000FF10
0007F900000001FE00
0004FC00000004FB00
0000EF10000008F500
00005F9000001EB000
000007F71002CC1000
00000039CCCB600000
ENDCHAR
STARTCHAR Upsilontonos
ENCODING 910
SWIDTH 787 0
DWIDTH 16 0
BBX 17 14 -1 0
BITMAP
6F64EFFFC1006EFFB0
7F101BFC000005E300
8A0001EF40000A6000
9400005FC0003C0000
0000000BF600C40000
00000003FE15A00000
000000009F9D200000
000000001EF8000000
0000000009F4000000
0000000009F4000000
0000000009F4000000
0000000009F4000000
000000000CF7000000
00000007DFFFD40000
ENDCHAR
STARTCHAR Omegatonos
ENCODING 911
SWIDTH 830 0
DWIDTH 17 0
BBX 17 14 -1 0
BITMAP
0FC00029DEEC810000
1F7006FC4115DE4000
2F105FC000002EE200
3A00DF40000008F900
0003FE00000004FE00
0005FC00000002FF00
0005FC00000002FF00
0003FE00000004FD00
0000DF30000007F800
00005F8000000DE100
00070AE100005F5060
000C10AA0002E60680
000BDAAF800DEABE60
000AFFFFB00FFFFF40
ENDCHAR
STARTCHAR iotadieresistonos
ENCODING 912
SWIDTH 259 0
DWIDTH 5 0
BBX 8 15 -2 0
BITMAP
0001FB00
1DB3F5CD
0984E088
00059000
00000000
0009F300
0009F100
0009E000
000AC000
000AB000
000B9000
000B8000
000A9000
0008F8A2
0002DE60
ENDCHAR
STARTCHAR Alpha
ENCODING 913
SWIDTH 718 0
DWIDTH 14 0
BBX 15 14 0 0
BITMAP
0000008A00000000
000000EF20000000
000005FF80000000
00000B7FE0000000
00002E1BF5000000
00008906FC000000
0000E401FF300000
0006E000BF900000
000C80005FE10000
003FCCCCCFF70000
009B000008FD0000
01E4000001FF4000
09F0000000CFC100
CFFD30001DFFFE30
ENDCHAR
STARTCHAR Beta
ENCODING 914
SWIDTH 618 0
DWIDTH 12 0
BBX 12 14 0 0
BITMAP
3AEFEDDEB500
007F8001BF70
005F80002FE0
005F80000FF0
005F80002FC0
005F8002BD30
005FECDFA100
005F8002AE50
005F80000CF3
005F800008F8
005F800007F9
005F80000AF7
007F80006FD1
3BFFECCDC710
ENDCHAR
STARTCHAR Gamma
ENCODING 915
SWIDTH 569 0
DWIDTH 11 0
BBX 11 14 0 0
BITMAP
1AEFFEEFFFD0
007F700019D0
005F700000D0
005F70000090
005F70000000
005F70000000
005F70000000
005F70000000
005F70000000
005F70000000
005F70000000
005F80000000
009FB0000000
2EFFFE800000
ENDCHAR
STARTCHAR Delta
ENCODING 916
SWIDTH 667 0
DWIDTH 13 0
BBX 13 14 0 0
BITMAP
000000D4000000
000005FB000000
00000BEF200000
00003D6F800000
0000961EE00000
0001E10AF50000
00079004FB0000
000D3000DF2000
005B00008F8000
00B500002FE100
03E000000CF600
0980000006FC00
1FBAAAAAABFF30
6FFFFFFFFFFF80
ENDCHAR
STARTCHAR Epsilon
ENCODING 917
SWIDTH 626 0
DWIDTH 13 0
BBX 12 14 0 0
BITMAP
2AEFEDDDEFF4
007F800003D4
005F80000075
005F80000011
005F80000A00
005F80001B00
005F80007B00
005FDCCDFB00
005F80002B00
005F80000001
005F8000000B
005F8000004B
007F800003D9
3AEFEDDEEFF7
ENDCHAR
STARTCHAR Zeta
ENCODING 918
SWIDTH 594 0
DWIDTH 12 0
BBX 12 14 0 0
BITMAP
09FECCCCDFF2
0AA10000BF80
0B200006FD10
0600001EF400
000000AF9000
000005FE1000
00001DF50000
00009FB00000
0003FE200000
000DF7000000
008FC0000054
03FF300000B2
0CF8000006F0
5FFCCCCCEFD0
ENDCHAR
STARTCHAR Eta
ENCODING 919
SWIDTH 777 0
DWIDTH 16 0
BBX 15 14 0 0
BITMAP
3DFFFD500BFFFEA0
008FB000003FF100
005F8000000FD000
005F8000000ED000
005F8000000ED000
005F8000000ED000
005F8000000ED000
005FDCCCCCCFD000
005F8000000ED000
005F8000000ED000
005F8000000ED000
005F8000000ED000
008FA000001FF100
3CFFFD500BEFFEA0
ENDCHAR
STARTCHAR Theta
ENCODING 920
SWIDTH 738 0
DWIDTH 15 0
BBX 13 14 1 0
BITMAP
0005BDFDA30000
01BF8203AF7000
0AF600000AF600
4FC0000001FE10
AF70000000AF50
DF418001908F90
EF31FFFFC07FB0
EF31EBBBC07FB0
DF417000808F90
AF70000000BF60
4FC0000001EF10
0BF5000008F700
01BF72029F9000
0005BEFDA40000
ENDCHAR
STARTCHAR Iota
ENCODING 921
SWIDTH 357 0
DWIDTH 7 0
BBX 7 14 0 0
BITMAP
4DFFFD50
008FA000
005F7000
005F7000
005F7000
005F7000
005F7000
005F7000
005F7000
005F7000
005F7000
005F7000
008FA000
4DFFFD50
ENDCHAR
STARTCHAR Kappa
ENCODING 922
SWIDTH 702 0
DWIDTH 14 0
BBX 14 14 0 0
BITMAP
4DFFFD50AFFFD1
008FA0000CE500
005F70004E3000
005F7003D30000
005F703D300000
005F73D3000000
005FAE50000000
005FBFE3000000
005F74FE200000
005F705FE20000
005F7005FE2000
005F70006FD200
008FA0000CFD30
4DFFFD50AFFFFB
ENDCHAR
STARTCHAR Lambda
ENCODING 923
SWIDTH 710 0
DWIDTH 14 0
BBX 15 14 0 0
BITMAP
000000A800000000
000001FE10000000
000007EF60000000
00000D5FC0000000
00004B0CF3000000
0000A606FA000000
0001E101EF100000
000690009F700000
000C40004FD00000
003D00000DF50000
0098000007FB0000
01E2000002FF2000
09F0000001EFB100
DFFE40003EFFFE20
ENDCHAR
STARTCHAR Mu
ENCODING 924
SWIDTH 895 0
DWIDTH 18 0
BBX 17 14 0 0
BITMAP
5DFFD00000001EFFC0
00BFF40000006FF700
008EFA000000CEF400
0088FF100003E9F400
0087AF70000988F400
00874FD0001E28F400
00870DF4006B08F400
008707FA00C508F400
008701EF12E008F400
0087009F788008F400
0087003FDE2008F400
0097000CFB0008F400
00CA0006F5000BF700
5DFFD301D004DFFFC0
ENDCHAR
STARTCHAR Nu
ENCODING 925
SWIDTH 742 0
DWIDTH 15 0
BBX 15 14 0 0
BITMAP
5EFF500005EFFE40
01DFE200001DC000
008FFC0000088000
0088EF8000087000
00875FF400087000
008708FD10087000
008700CFA0087000
0087002EF6087000
00870005FE287000
008700008FC87000
008700000CFE7000
0097000002EF7000
00CA0000005F7000
5DFFD30000087000
ENDCHAR
STARTCHAR Xi
ENCODING 926
SWIDTH 648 0
DWIDTH 13 0
BBX 11 14 1 0
BITMAP
AFFFFFFFFF90
AEBBBBBBBEA0
A300000003A0
400000000040
009000009000
00C20003B000
00CFFFFFC000
00CDBBBDC000
00A00000A000
000000000000
A000000000A0
E100000001D0
EECCCCCCCED0
DFFFFFFFFFC0
ENDCHAR
STARTCHAR Omicron
ENCODING 927
SWIDTH 738 0
DWIDTH 15 0
BBX 13 14 1 0
BITMAP
0005BCCCA40000
01BE40018F9000
0AF4000008F700
4FB0000001EF10
9F60000000AF70
DF300000007FA0
EF200000006FB0
EF200000006FA0
DF300000007F90
AF600000009F50
4FB0000000DE10
0BF3000005F600
01BE40005E7000
0005BCCCA30000
ENDCHAR
STARTCHAR Pi
ENCODING 928
SWIDTH 759 0
DWIDTH 15 0
BBX 15 14 0 0
BITMAP
3AFFEEEEEEEFFB50
007F8000005FA000
005F8000005F8000
005F8000005F8000
005F8000005F8000
005F8000005F8000
005F8000005F8000
005F8000005F8000
005F8000005F8000
005F8000005F8000
005F8000005F8000
005F8000005F8000
008FB000008FB000
4EFFFE502EFFFE60
ENDCHAR
STARTCHAR Rho
ENCODING 929
SWIDTH 569 0
DWIDTH 11 0
BBX 11 14 0 0
BITMAP
0AEFEDED9300
007F8004EF40
005F80006FB0
005F80002FD0
005F80002FC0
005F80005F70
005F8005EB00
005FDDCB6000
005F80000000
005F80000000
005F80000000
005F80000000
008FB0000000
1CFFFD600000
ENDCHAR
STARTCHAR Sigma
ENCODING 931
SWIDTH 604 0
DWIDTH 12 0
BBX 12 14 0 0
BITMAP
4FFFEEEFFFC0
09FB000019C0
00CF800001C0
002EF4000060
0004FE200000
00007FC00000
00000AF20000
00000C600000
00009A000000
0006D1000012
003E20000066
01D5000001D4
0BEBBBBBBEF1
5FFFFFFFFFE0
ENDCHAR
STARTCHAR Tau
ENCODING 932
SWIDTH 603 0
DWIDTH 12 0
BBX 12 14 0 0
BITMAP
8FECCFFCCEF9
9A000EE0009A
A3000EE0002A
70000EE00007
00000EE00000
00000EE00000
00000EE00000
00000EE00000
00000EE00000
00000EE00000
00000EE00000
00000EF00000
00002FF20000
000AEFFEB000
ENDCHAR
STARTCHAR Upsilon
ENCODING 933
SWIDTH 647 0
DWIDTH 13 0
BBX 15 14 -1 0
BITMAP
1DFFFD3004DFFD10
009FF100002F6000
000CF70000790000
0002FE1001D10000
00008F9009700000
00001EF32D000000
000006FBB5000000
000000CFB0000000
0000006F70000000
0000006F70000000
0000006F70000000
0000006F70000000
0000009FA0000000
00005DFFFD600000
ENDCHAR
STARTCHAR Phi
ENCODING 934
SWIDTH 718 0
DWIDTH 14 0
BBX 14 14 0 0
BITMAP
0000AFFFFE1000
000002EF600000
000001CF310000
004BEBEFBED810
06FA10CF108FC0
0EE100CF100BF6
3FB000CF1007F9
4FB000CF1006F9
3FD000CF1007F8
0DF400CF100CF3
03EE51CF118F70
0017BCEFCB8300
000001EF400000
0000AEFFFD1000
ENDCHAR
STARTCHAR Chi
ENCODING 935
SWIDTH 664 0
DWIDTH 13 0
BBX 14 14 0 0
BITMAP
8EFFFB007EFFD1
01CFB00007E400
003FF2000D6000
0008FA008A0000
0000DF43D10000
00004FCC300000
000009FA000000
000009FF300000
00005C5FC00000
0002D20BF70000
000C6002FF3000
008B00008FC000
05F400003FF800
CFFE5005DFFFD2
ENDCHAR
STARTCHAR Psi
ENCODING 936
SWIDTH 720 0
DWIDTH 14 0
BBX 15 14 0 0
BITMAP
CC309FFFFE108D40
0DD001EF6007F400
0AF200BF200BF100
0AF300BF200CF100
0AF300BF200BF100
0AF300BF200BF100
09F500BF200DE000
03FA00BF204F9000
007F82BF35EC1000
0004BEFFEC700000
000000BF20000000
000000BF20000000
000000DF50000000
00009EFFFE100000
ENDCHAR
STARTCHAR Omega
ENCODING 937
SWIDTH 777 0
DWIDTH 16 0
BBX 14 14 1 0
BITMAP
00039DEEC71000
007FB3116ED300
06FB000003FE10
0EF30000009F80
4FD00000005FD0
6FB00000003FE0
6FC00000003FE0
4FD00000005FC0
0DF20000008F70
06F7000000DE10
60AE100006F416
C11BA0002E5077
CDABF700DDABF5
BFFFFA01FFFFF3
ENDCHAR
STARTCHAR Iotadieresis
ENCODING 938
SWIDTH 357 0
DWIDTH 7 0
BBX 7 18 0 0
BITMAP
02000100
9F503FB0
7E402EA0
00000000
4DFFFD50
008FA000
005F7000
005F7000
005F7000
005F7000
005F7000
005F7000
005F7000
005F7000
005F7000
005F7000
008FA000
4DFFFD50
ENDCHAR
STARTCHAR Upsilondieresis
ENCODING 939
SWIDTH 647 0
DWIDTH 13 0
BBX 15 18 -1 0
BITMAP
0000020001100000
00006F801EE10000
00004E700CD00000
0000000000000000
1DFFFD3004DFFD10
009FF100002F6000
000CF70000790000
0002FE1001D10000
00008F9009700000
00001EF32D000000
000006FBB5000000
000000CFB0000000
0000006F70000000
0000006F70000000
0000006F70000000
0000006F70000000
0000009FA0000000
00005DFFFD600000
ENDCHAR
STARTCHAR alphatonos
ENCODING 940
SWIDTH 561 0
DWIDTH 11 0
BBX 11 15 0 0
BITMAP
00000FC00000
00001F700000
00002F100000
00003A000000
000000000000
003BED509F60
03EECDF2ED00
0BA1007BF500
1D10000FC000
4A00000E4000
4900002F2000
3B00009D4000
1F4006A98010
0AFCDE18E9B0
01BEC304EC30
ENDCHAR
STARTCHAR epsilontonos
ENCODING 941
SWIDTH 381 0
DWIDTH 8 0
BBX 8 15 0 0
BITMAP
00006F60
00008F10
00009A00
0000A400
00000000
007CFEA1
09FDCDE1
0D700020
0B400000
02A9D300
06958200
1E200000
2F500170
0DFCCEE0
02AEEB40
ENDCHAR
STARTCHAR etatonos
ENCODING 942
SWIDTH 510 0
DWIDTH 10 0
BBX 10 20 -1 -5
BITMAP
0000007F50
0000008E10
0000009900
000000A300
0000000000
03DD109EB1
0CCF67ECF6
140B8C209A
0008B6004C
0008F1002D
000AB0002E
000C90003D
000F80004D
002F80005D
005F70007C
00000000AC
00000000CB
00000000FA
00000002FA
0000000262
ENDCHAR
STARTCHAR iotatonos
ENCODING 943
SWIDTH 259 0
DWIDTH 5 0
BBX 5 15 1 0
BITMAP
0CF100
0DA000
0E4000
0D0000
000000
9F3000
9F1000
9E0000
AC0000
AB0000
B90000
B80000
A90000
8F8A20
2DE600
ENDCHAR
STARTCHAR upsilondieresistonos
ENCODING 944
SWIDTH 491 0
DWIDTH 10 0
BBX 10 15 -1 0
BITMAP
00001FB000
01DB3F5CD0
00984E0880
0000590000
0000000000
03DE301A40
0CDF7002E2
231F5000A8
001F30008C
002E00007E
004C00008C
004B0000DA
003D1008F5
001EECDFB0
0004DFD800
ENDCHAR
STARTCHAR alpha
ENCODING 945
SWIDTH 561 0
DWIDTH 11 0
BBX 11 10 0 0
BITMAP
003BED509F60
03EECDF2ED00
0BA1007BF500
1D10000FC000
4A00000E4000
4900002F2000
3B00009D4000
1F4006A98010
0AFCDE18E9B0
01BEC304EC30
ENDCHAR
STARTCHAR beta
ENCODING 946
SWIDTH 530 0
DWIDTH 11 0
BBX 10 20 0 -5
BITMAP
00005CED40
0006FDCEE1
002E5001E5
00890000A4
00D40001C1
01F0003B30
03D0CFE300
05C0652C40
07B00002E1
08B0000098
09D000007B
0AF200009B
0BEA0002E9
0CB9EBCFF3
0DB08EEA30
0DB0000000
0EC0000000
0FC0000000
1FC0000000
0400000000
ENDCHAR
STARTCHAR gamma
ENCODING 947
SWIDTH 466 0
DWIDTH 9 0
BBX 10 14 -1 -4
BITMAP
03DD3003FD
0CCFC008F6
1306F10DD0
0000E33F60
0000B58D00
000085D600
000078E000
00005D7000
00005E1000
00008C0000
0000DB0000
0002FA0000
0006F80000
0004E40000
ENDCHAR
STARTCHAR delta
ENCODING 948
SWIDTH 479 0
DWIDTH 10 0
BBX 9 15 0 0
BITMAP
003BEEB400
00A614CF60
008A001810
001DB20000
0001BE3000
0017CFE400
01CFCAEE10
09C3005F60
1E10000DB0
39000009C0
58000009C0
4B00000CA0
1F50007F40
09FDCEF800
019EEC6000
ENDCHAR
STARTCHAR epsilon
ENCODING 949
SWIDTH 381 0
DWIDTH 8 0
BBX 8 10 0 0
BITMAP
007CFEA1
09FDCDE1
0D700020
0B400000
02A9D300
06958200
1E200000
2F500170
0DFCCEE0
02AEEB40
ENDCHAR
STARTCHAR zeta
ENCODING 950
SWIDTH 386 0
DWIDTH 8 0
BBX 9 21 0 -5
BITMAP
0000200000
000A500000
004F104D20
002F76FF40
0003EFA300
0009E50000
007F400000
02F5000000
09A0000000
0D10000000
2A00000000
4800000000
4A00000000
2F92000000
0AFFD94000
017DFFF600
000025CB00
0000003A00
000013A400
000EFF6000
0009820000
ENDCHAR
STARTCHAR eta
ENCODING 951
SWIDTH 510 0
DWIDTH 10 0
BBX 10 15 -1 -5
BITMAP
03DD109EB1
0CCF67ECF6
140B8C209A
0008B6004C
0008F1002D
000AB0002E
000C90003D
000F80004D
002F80005D
005F70007C
00000000AC
00000000CB
00000000FA
00000002FA
0000000262
ENDCHAR
STARTCHAR theta
ENCODING 952
SWIDTH 514 0
DWIDTH 10 0
BBX 9 15 1 0
BITMAP
005DEB2000
05FECFD100
1E8002E700
6C00007C00
A600002F10
D200000D30
E000000B40
FFFFFFFF50
F222222B40
E200000B30
C500000E10
8B00004C00
2F6002D600
09FDCFC000
008EEA1000
ENDCHAR
STARTCHAR iota
ENCODING 953
SWIDTH 259 0
DWIDTH 5 0
BBX 5 10 1 0
BITMAP
9F3000
9F1000
9E0000
AC0000
AB0000
B90000
B80000
A90000
8F8A20
2DE600
ENDCHAR
STARTCHAR kappa
ENCODING 954
SWIDTH 495 0
DWIDTH 10 0
BBX 11 10 -1 0
BITMAP
03DE40007D30
0DCFB00BFF10
140CB0AF8100
000996E40000
00098E400000
000AD9700000
000AD1D10000
000CA0AA0020
000F903FDBA0
002F8007EB10
ENDCHAR
STARTCHAR lambda
ENCODING 955
SWIDTH 506 0
DWIDTH 10 0
BBX 11 15 0 0
BITMAP
005EC1000000
01ECF7000000
03208B000000
00001E000000
00000D100000
00001E300000
00008F500000
0002F8800000
0009C4A00000
002F63C00000
009E11F00000
02F900F40000
09F400DA0120
2FD0008FCD20
9F70001CE500
ENDCHAR
STARTCHAR mu
ENCODING 956
SWIDTH 552 0
DWIDTH 11 0
BBX 11 15 0 -5
BITMAP
08F5000BF100
08F3000BE000
08F1000BB000
08E0000B8000
08B0000D6000
08A0002F4000
08B0008D5000
09F203BA8010
0BDD8E67E9B0
0D6AE902ED30
0F7000000000
1F7000000000
1F9000000000
2F9000000000
030000000000
ENDCHAR
STARTCHAR nu
ENCODING 957
SWIDTH 453 0
DWIDTH 9 0
BBX 10 11 -1 -1
BITMAP
05EC1009A1
1DDF8004F7
220CB002F9
0006D003F8
0003D007F4
0002D00CD0
0001D06F50
0000C1D900
0000CBC000
0002FD1000
0000520000
ENDCHAR
STARTCHAR xi
ENCODING 958
SWIDTH 390 0
DWIDTH 8 0
BBX 8 20 0 -4
BITMAP
00130000
01E20000
03F416CA
004DEFC6
00AD5100
06D10000
06B00000
01B36990
008CDFB0
08600000
2B000000
59000000
4E600000
0DFEB720
02BFFFF4
00026AED
0000001D
0000002A
0009BCD2
0008D810
ENDCHAR
STARTCHAR omicron
ENCODING 959
SWIDTH 475 0
DWIDTH 10 0
BBX 9 10 0 0
BITMAP
002AEEB200
02EFCDFD10
0BB1003E60
1E100006A0
4A000003C0
4A000003B0
3D00000790
0E80004E40
07FEBDFA00
006DFD8000
ENDCHAR
STARTCHAR pi
ENCODING 960
SWIDTH 591 0
DWIDTH 12 0
BBX 12 10 0 0
BITMAP
03AEFFFFFFF6
2ECBEBBCEBB2
6200C004A000
0002B0078000
000590097000
000B600C6000
002F300D6000
008E000E9010
01EB000CFCC0
08F70005ED30
ENDCHAR
STARTCHAR rho
ENCODING 961
SWIDTH 515 0
DWIDTH 10 0
BBX 9 15 1 -5
BITMAP
003BEE9100
04FECDFB00
0CA1003E30
3D00000870
7A00000680
9A00000770
AD00000C50
BD90008E10
B9CECEF600
BA2CEC5000
CB00000000
CC00000000
CE00000000
CF00000000
3100000000
ENDCHAR
STARTCHAR uni03C2
ENCODING 962
SWIDTH 377 0
DWIDTH 8 0
BBX 8 14 0 -4
BITMAP
003BEFC2
04FECCD0
0D600000
3A000000
48000000
3B000000
1EA10000
07FE9300
007EFF90
00016BF5
00000078
00000086
000ACEA0
0009C600
ENDCHAR
STARTCHAR sigma
ENCODING 963
SWIDTH 545 0
DWIDTH 11 0
BBX 11 10 0 0
BITMAP
0029EFFFFFD0
02EFDBCDBB80
0BC3000C1000
1F2000068000
4B000003E000
4B000004F100
3E000007E000
0E90004EA000
08FEBDFE2000
007DFD910000
ENDCHAR
STARTCHAR tau
ENCODING 964
SWIDTH 392 0
DWIDTH 8 0
BBX 9 10 -1 0
BITMAP
007DFFFFD0
09EBCEBB80
1700580000
0000860000
0000B50000
0000D40000
0000F40000
0001F80100
0000EFCB00
00007EC200
ENDCHAR
STARTCHAR upsilon
ENCODING 965
SWIDTH 491 0
DWIDTH 10 0
BBX 10 10 -1 0
BITMAP
03DE301A40
0CDF7002E2
231F5000A8
001F30008C
002E00007E
004C00008C
004B0000DA
003D1008F5
001EECDFB0
0004DFD800
ENDCHAR
STARTCHAR phi
ENCODING 966
SWIDTH 603 0
DWIDTH 12 0
BBX 12 16 0 -5
BITMAP
000031000000
004DF22BEB10
04FD80CECEA0
0CA104F303E1
1D1008A000B4
3A000B700095
3A000C5000B4
1E100D4002E1
0BB20D405D80
02DFDFDEFA00
0018CFEA4000
00000F600000
00001F700000
00003F800000
00004F800000
000013000000
ENDCHAR
STARTCHAR chi
ENCODING 967
SWIDTH 462 0
DWIDTH 9 0
BBX 11 14 -1 -4
BITMAP
05EB10008F90
1DCF9002FE10
3205E009F400
0000B43F9000
000078BC0000
00002EF30000
00002F700000
0000BF400000
0006F8800000
002E82D00000
00BE10E30000
07F700AB0020
3FD0005FCC40
CF50000AE900
ENDCHAR
STARTCHAR psi
ENCODING 968
SWIDTH 620 0
DWIDTH 12 0
BBX 13 20 -1 -5
BITMAP
00000028400000
0000004F600000
0000003F500000
0000003F300000
0000002F200000
03DE302F11B200
0BCF803F106C00
141F603F001F30
000F303F000D60
002E004E000D70
003C004E001F60
003C004D006F30
001F604D06FC00
0009FDDFEFD200
00008DFFC71000
0000007D000000
0000009F000000
000000AF100000
000000BE100000
00000031000000
ENDCHAR
STARTCHAR omega
ENCODING 969
SWIDTH 660 0
DWIDTH 13 0
BBX 13 10 0 0
BITMAP
00199000084000
02DF800001D300
0AD30173007C00
1F3004FA002F20
3B0005F8000E60
4A0004F4000D70
2C0002E0001F60
0D6005E2009F30
07FDCD5ECDFA00
009ED307EE9100
ENDCHAR
STARTCHAR iotadieresis
ENCODING 970
SWIDTH 259 0
DWIDTH 5 0
BBX 7 14 -1 0
BITMAP
9E404E90
6A202A60
00000000
00000000
009F3000
009F1000
009E0000
00AC0000
00AB0000
00B90000
00B80000
00A90000
008F8A20
002DE600
ENDCHAR
STARTCHAR upsilondieresis
ENCODING 971
SWIDTH 491 0
DWIDTH 10 0
BBX 10 14 -1 0
BITMAP
009E404E90
006A202A60
0000000000
0000000000
03DE301A40
0CDF7002E2
231F5000A8
001F30008C
002E00007E
004C00008C
004B0000DA
003D1008F5
001EECDFB0
0004DFD800
ENDCHAR
STARTCHAR omicrontonos
ENCODING 972
SWIDTH 475 0
DWIDTH 10 0
BBX 9 15 0 0
BITMAP
00000ED000
00000F8000
00001F2000
00002B0000
0000000000
002AEEB200
02EFCDFD10
0BB1003E60
1E100006A0
4A000003C0
4A000003B0
3D00000790
0E80004E40
07FEBDFA00
006DFD8000
ENDCHAR
STARTCHAR upsilontonos
ENCODING 973
SWIDTH 491 0
DWIDTH 10 0
BBX 10 15 -1 0
BITMAP
000006F600
000007F100
000008A000
0000094000
0000000000
03DE301A40
0CDF7002E2
231F5000A8
001F30008C
002E00007E
004C00008C
004B0000DA
003D1008F5
001EECDFB0
0004DFD800
ENDCHAR
STARTCHAR omegatonos
ENCODING 974
SWIDTH 660 0
DWIDTH 13 0
BBX 13 15 0 0
BITMAP
000000AF200000
000000BC000000
000000C6000000
000000D1000000
00000000000000
00199000084000
02DF800001D300
0AD30173007C00
1F3004FA002F20
3B0005F8000E60
4A0004F4000D70
2C0002E0001F60
0D6005E2009F30
07FDCD5ECDFA00
009ED307EE9100
ENDCHAR
STARTCHAR uni03D0
ENCODING 976
SWIDTH 438 0
DWIDTH 9 0
BBX 8 15 1 0
BITMAP
0007DE60
008FCCF1
04D30084
0C500055
3EC412B2
7A7FFFA0
B705A810
D65AA600
EEFFFF60
EE7205C0
CB0000A0
9E100091
4F8002D0
0BFDCF80
01AED800
ENDCHAR
STARTCHAR uni03D1
ENCODING 977
SWIDTH 541 0
DWIDTH 11 0
BBX 11 15 0 0
BITMAP
0004DEB20000
002FDCFC0000
0089003E5000
00B20007A000
00920001D000
00570000D100
000B7200B910
0001CFFFFF20
05A6059BD800
3FFF0000A400
728F0000C300
004E0001E100
002F101BB000
000DDBEF4000
0004CFD50000
ENDCHAR
STARTCHAR uni03D2
ENCODING 978
SWIDTH 616 0
DWIDTH 12 0
BBX 13 14 0 0
BITMAP
2AEE90003CFA00
412BF702D39F40
0001DD09509F20
00007F2D000200
00002F8A000000
00000EE6000000
00000DF4000000
00000CF1000000
00000CF0000000
00000CF0000000
00000CF0000000
00000CF1000000
00002EF5000000
000CFFFFE20000
ENDCHAR
STARTCHAR uni03D5
ENCODING 981
SWIDTH 575 0
DWIDTH 12 0
BBX 11 19 0 -4
BITMAP
000008F30000
000009F20000
000009F00000
00000AE00000
00015CE61000
005EFFFFE400
04FC7CB8EE20
0D900C901D80
2D000C7005B0
4A000D6002C0
4A000E5004A0
1E200E500B70
0AE72F55CD10
01CFFFFFD300
0005AFA50000
00005F200000
00007F200000
00009F200000
0000AF100000
ENDCHAR
STARTCHAR uni03D6
ENCODING 982
SWIDTH 821 0
DWIDTH 16 0
BBX 17 10 0 0
BITMAP
07DFFFFFFFFFFFFF60
8ECCFEBBBBBBDDBB30
7009B10000005D0000
001E1002F9000F3000
003B0004F8000E6000
003A0004F5000D7000
002D0002E0001F6000
000D6005E2009F3000
0007FDCE4ECDFB0000
00009ED307EE910000
ENDCHAR
STARTCHAR uni03D8
ENCODING 984
SWIDTH 627 0
DWIDTH 13 0
BBX 12 14 0 0
BITMAP
0006BEFD9300
01BE6103BF60
09F600000DF3
1FE0000007F9
3FC0000005FC
4FD0000004FC
2FE0000006FA
0CF3000009F5
04FB00003FA0
003CD98AE800
00002CF51000
00000AF20000
00000CF40000
0006BFFDA100
ENDCHAR
STARTCHAR uni03D9
ENCODING 985
SWIDTH 475 0
DWIDTH 10 0
BBX 9 15 0 -5
BITMAP
002AEEB200
02EFCDFD10
0BB1003E60
1E100007A0
4A000003C0
49000003B0
3C00000690
0E80004E40
07FECDFA00
006CFD7000
0001F20000
0003F30000
0004F40000
0006F60000
0003400000
ENDCHAR
STARTCHAR uni03DA
ENCODING 986
SWIDTH 578 0
DWIDTH 12 0
BBX 11 14 0 0
BITMAP
0005BEFFFF80
00AF6114CF80
07F700001D80
0EE100000780
3FD000000380
4FB000000000
3FD000000000
1EF200000000
08FA00000000
00BFB4100000
0006BEFF3000
000000AF2000
000000CF4000
00007BFFDA10
ENDCHAR
STARTCHAR uni03DB
ENCODING 987
SWIDTH 490 0
DWIDTH 10 0
BBX 10 14 0 -4
BITMAP
0006BDFFFC
01CFDCBBB8
0B81000000
2B00000000
4800000000
3B00000000
1F91000000
08FE820000
008FFF5000
00027CF100
000000B400
000001B100
003BCE6000
000DB40000
ENDCHAR
STARTCHAR uni03DC
ENCODING 988
SWIDTH 588 0
DWIDTH 12 0
BBX 12 14 0 0
BITMAP
3BFFFEEEFFF6
008F800002D6
005F80000057
005F80000012
005F80001A00
005F80006A00
005FDCCDFA00
005F80005A00
005F80001A00
005F80000000
005F80000000
005F80000000
008FB0000000
3DFFFE700000
ENDCHAR
STARTCHAR uni03DD
ENCODING 989
SWIDTH 386 0
DWIDTH 8 0
BBX 11 15 -3 -5
BITMAP
00006FFFFF80
00006FBBBB40
00006E000000
00005E000000
00005E000000
00005E59A200
00004EBEE300
00005C000000
00005A000000
000068000000
000095000000
0000C2000000
1104D0000000
2DCF70000000
07E900000000
ENDCHAR
STARTCHAR uni03DE
ENCODING 990
SWIDTH 525 0
DWIDTH 11 0
BBX 10 14 0 0
BITMAP
007FFFC000
0004F50000
0009700000
003D000000
00B4000000
05B0000000
1DCBBBBBBB
6FFFFFFFF9
00000001D1
0000000A60
0000004C00
000000D300
00001AD000
0004FFFE10
ENDCHAR
STARTCHAR uni03DF
ENCODING 991
SWIDTH 434 0
DWIDTH 9 0
BBX 10 14 -1 0
BITMAP
08E8000000
4DEF000000
303F100000
000E000000
001C000000
0038002710
00768DFE00
00BFFEAB00
01D8405700
000000A400
000000D200
000000F304
000001FDD5
000000AE80
ENDCHAR
STARTCHAR uni03E0
ENCODING 992
SWIDTH 697 0
DWIDTH 14 0
BBX 14 14 0 0
BITMAP
00004FC0000000
00000CF5000000
000005FC000000
000002FF400000
000009DFB00000
00002E2EF30000
00009807FA0000
0003E109FF2000
000A703E9F9000
003E10B72FF200
00B704E109F900
04E10C6003FE10
0C705D0002FFA0
5E10D6005FFFFE
ENDCHAR
STARTCHAR uni03E1
ENCODING 993
SWIDTH 458 0
DWIDTH 9 0
BBX 10 19 -1 -5
BITMAP
4E91000000
2EFE400000
019FF40000
0006FE2000
00003EC000
000004F700
00038CCE00
03DFD41E50
02C8100AA0
00000006E0
000049DCF2
0005FE70E4
00016200C5
00000000C5
00000000C4
00000000D2
00000000D0
0000000380
0000000320
ENDCHAR
STARTCHAR uni03F0
ENCODING 1008
SWIDTH 504 0
DWIDTH 10 0
BBX 11 10 0 0
BITMAP
2CD20005FD00
ACF9001EF300
207B009F6000
003C04F90000
001B1EE10000
0019BEA00000
004DF5A00000
009F91E20010
04FD10CEAD40
1EF3003CE800
ENDCHAR
STARTCHAR uni03F1
ENCODING 1009
SWIDTH 467 0
DWIDTH 9 0
BBX 8 14 1 -4
BITMAP
008DFC40
0BFCCEE1
5C1001C6
A4000068
C4000078
EC3115E6
D8FFFFC0
B84AA710
7F700000
1CFD5000
018DF600
00007900
05BBD300
02EA2000
ENDCHAR
STARTCHAR uni03F4
ENCODING 1012
SWIDTH 737 0
DWIDTH 15 0
BBX 13 14 1 0
BITMAP
0005BDFDA40000
01BE6103AF9000
0AF4000008F700
4FA0000000EF10
AF500000009F60
DF200000006F90
EFFFFFFFFFFFB0
EF200000006FA0
DF400000008F90
AF70000000AF50
5FC0000001EE10
0BF6000008F600
01BF72029F7000
0006BEFDA30000
ENDCHAR
STARTCHAR uni03F5
ENCODING 1013
SWIDTH 380 0
DWIDTH 8 0
BBX 8 10 0 0
BITMAP
004CEEA1
03FDBDD0
0B400010
1B001100
3FFFFC00
4C000000
2E100000
0D900290
06FECEE0
007DFC40
ENDCHAR
STARTCHAR uni03F6
ENCODING 1014
SWIDTH 382 0
DWIDTH 8 0
BBX 7 10 0 0
BITMAP
3CEEA100
3FCBED10
01000870
001001B0
03EFFFD0
000002D0
000006C0
37002D80
6FDCFE10
09EFB200
ENDCHAR
STARTCHAR uni0400
ENCODING 1024
SWIDTH 626 0
DWIDTH 13 0
BBX 12 17 0 0
BITMAP
000068300000
00002BE20000
0000006C1000
2AEFEDDDEFF4
007F800003D4
005F80000075
005F80000011
005F80000A00
005F80001B00
005F80007B00
005FDCCDFB00
005F80002B00
005F80000001
005F8000000B
005F8000004B
007F800003D9
3AEFEDDEEFF7
ENDCHAR
STARTCHAR uni0401
ENCODING 1025
SWIDTH 626 0
DWIDTH 13 0
BBX 12 18 0 0
BITMAP
000010002000
000CF305F900
000AE204E700
000000000000
2AEFEDDDEFF4
007F800003D4
005F80000075
005F80000011
005F80000A00
005F80001B00
005F80007B00
005FDCCDFB00
005F80002B00
005F80000001
005F8000000B
005F8000004B
007F800003D9
3AEFEDDEEFF7
ENDCHAR
STARTCHAR uni0402
ENCODING 1026
SWIDTH 731 0
DWIDTH 15 0
BBX 14 14 0 0
BITMAP
6FECCFFCCDFD00
7B100EE0006E00
85000EE0000D00
71000EE0000900
00000EE0000000
00000EE0000000
00000EE8BCCA30
00000EE3002CF4
00000EE00003FC
00000EE00000EF
00000EE00000DE
00000EE04200EC
00002FE0FC03F5
000AEFE07EBA40
ENDCHAR
STARTCHAR uni0403
ENCODING 1027
SWIDTH 548 0
DWIDTH 11 0
BBX 11 17 0 0
BITMAP
000000683000
000007F70000
00005C200000
1AEFFEEFFF60
007F80003D70
005F80000770
005F80000480
005F80000020
005F80000000
005F80000000
005F80000000
005F80000000
005F80000000
005F80000000
005F80000000
008FB0000000
2DFFFE700000
ENDCHAR
STARTCHAR uni0404
ENCODING 1028
SWIDTH 668 0
DWIDTH 13 0
BBX 12 14 1 0
BITMAP
0005BCCDB7C2
01BD30006EF2
0BE1000006F2
5F80000000E2
AF30000000A2
DF1000000000
FFCCCCCC6000
FF1000000000
DF2000000000
AF5000000000
5F9000000000
0CF200000075
02DD40002A70
0017CDCB9300
ENDCHAR
STARTCHAR uni0405
ENCODING 1029
SWIDTH 504 0
DWIDTH 10 0
BBX 10 14 0 0
BITMAP
006CCDFFA0
06F3003EB0
0DC00005B0
0FD00000B0
0CFA000000
05FFC30000
005EFF9100
0001AFFD30
000004DFD1
0000002EF5
47000009F6
3D000008F3
3F91002EB0
2FFFCCD810
ENDCHAR
STARTCHAR uni0406
ENCODING 1030
SWIDTH 357 0
DWIDTH 7 0
BBX 7 14 0 0
BITMAP
4DFFFD50
008FA000
005F7000
005F7000
005F7000
005F7000
005F7000
005F7000
005F7000
005F7000
005F7000
005F7000
008FA000
4DFFFD50
ENDCHAR
STARTCHAR uni0407
ENCODING 1031
SWIDTH 357 0
DWIDTH 7 0
BBX 7 18 0 0
BITMAP
02000100
9F503FB0
7E402EA0
00000000
4DFFFD50
008FA000
005F7000
005F7000
005F7000
005F7000
005F7000
005F7000
005F7000
005F7000
005F7000
005F7000
008FA000
4DFFFD50
ENDCHAR
STARTCHAR uni0408
ENCODING 1032
SWIDTH 396 0
DWIDTH 8 0
BBX 8 14 0 0
BITMAP
02CFFFE6
0006FD00
0003FA00
0003FA00
0003FA00
0003FA00
0003FA00
0003FA00
0003FA00
0003FA00
0003FA00
8603F900
EF25F400
6DDC7000
ENDCHAR
STARTCHAR uni0409
ENCODING 1033
SWIDTH 924 0
DWIDTH 18 0
BBX 19 14 -1 0
BITMAP
0002AEFEEEFFD8000000
000005B000FE10000000
000004A000FD00000000
0000059000FD00000000
0000068000FD00000000
0000086000FD00000000
00000A4000FFCCDB7100
00000D1000FD0018FD10
00001D0000FD00008F90
00004A0000FD00004FD0
0000960000FD00004FC0
0412E10000FD00007F80
4FFF800002FD0005ED10
1CE900006CFFCCDC7100
ENDCHAR
STARTCHAR uni040A
ENCODING 1034
SWIDTH 1013 0
DWIDTH 20 0
BBX 20 14 0 0
BITMAP
3DFFFD501CFFFE800000
008FA000006FC0000000
005F8000003FA0000000
005F8000003FA0000000
005F8000003FA0000000
005F8000003FA0000000
005FDCCCCCCFECDDB600
005F8000003FA002AFB0
005F8000003FA0000BF6
005F8000003FA00007FA
005F8000003FA00007F9
005F8000003FA0000AF5
008FA000006FA0017FB0
3CFFFD500CFFECCDB600
ENDCHAR
STARTCHAR uni040B
ENCODING 1035
SWIDTH 761 0
DWIDTH 15 0
BBX 15 14 0 0
BITMAP
6FECCFFCCDFD0000
7B100EE0005E0000
85000EE0000D0000
71000EE000080000
00000EE000000000
00000EE000000000
00000EE7ABDA3000
00000EF4003EE100
00000EE00008F500
00000EE00007F600
00000EE00007F600
00000EE00007F600
00002FF20009F800
000AEFFE80CFFFB0
ENDCHAR
STARTCHAR uni040C
ENCODING 1036
SWIDTH 658 0
DWIDTH 13 0
BBX 14 17 0 0
BITMAP
00000005840000
0000005F910000
000003C3000000
1DFFFD4001BE90
008FB0000AEFE0
005F80002D0330
005F8000670000
005F8000A30000
005F8001D00000
005F8008700000
005FDCEF200000
005F803FC10000
005F8008F80000
005F8001EF3000
005F80006FB000
008FA0000CF700
1CFFFD5004FFD5
ENDCHAR
STARTCHAR uni040D
ENCODING 1037
SWIDTH 780 0
DWIDTH 16 0
BBX 15 17 0 0
BITMAP
0000584000000000
00002BE300000000
0000005C20000000
4DFFFD500BEFFEB0
008FA000001FF200
005F8000002FE000
005F800001CFE000
005F80000A6EE000
005F8000790EE000
005F8004C00EE000
005F802C200EE000
005F81C3000EE000
005F8A60000EE000
005FD900000EE000
005FC000000EE000
008FA000001FF200
3DFFFD500BEFFEB0
ENDCHAR
STARTCHAR uni040E
ENCODING 1038
SWIDTH 625 0
DWIDTH 13 0
BBX 14 19 -1 0
BITMAP
00001710054000
00008F500EE000
00007F200BC000
000006BBB92000
00000000000000
1DFFFD1006EFFB
008FC000004F60
000DE100005B00
0006F80000B400
0000DE1002C000
00005F80095000
00000DE11D0000
000005F8770000
000000CED10000
0000005F900000
0000000E200000
00052079000000
004FFDD1000000
001CFB20000000
ENDCHAR
STARTCHAR uni040F
ENCODING 1039
SWIDTH 759 0
DWIDTH 15 0
BBX 15 19 0 -5
BITMAP
3DFFFD401DFFFD60
008FA000008FA000
005F8000005F8000
005F8000005F8000
005F8000005F8000
005F8000005F8000
005F8000005F8000
005F8000005F8000
005F8000005F8000
005F8000005F8000
005F8000005F8000
005F8000005F8000
007F8000005F9000
29EFDCCCCCDFE940
0000000C10000000
0000001F40000000
0000004F70000000
0000006F90000000
0000003E50000000
ENDCHAR
STARTCHAR uni0410
ENCODING 1040
SWIDTH 718 0
DWIDTH 14 0
BBX 15 14 0 0
BITMAP
0000008A00000000
000000EF20000000
000005FF80000000
00000B7FE0000000
00002E1BF5000000
00008906FC000000
0000E401FF300000
0006E000BF900000
000C80005FE10000
003FCCCCCFF70000
009B000008FD0000
01E4000001FF4000
09F0000000CFC100
CFFD30001DFFFE30
ENDCHAR
STARTCHAR uni0411
ENCODING 1041
SWIDTH 617 0
DWIDTH 12 0
BBX 12 14 0 0
BITMAP
1AEFFEEFFFA0
007F80002BA0
005F800003A0
005F80000090
005F80000000
005F80000000
005FDCDDA500
005F8003BF90
005F80000DF3
005F800009F7
005F800009F7
005F80000CF3
007F80018F80
1AEFECCDB500
ENDCHAR
STARTCHAR uni0412
ENCODING 1042
SWIDTH 618 0
DWIDTH 12 0
BBX 12 14 0 0
BITMAP
3AEFEDDEB500
007F8001BF70
005F80002FE0
005F80000FF0
005F80002FC0
005F8002BD30
005FECDFA100
005F8002AE50
005F80000CF3
005F800008F8
005F800007F9
005F80000AF7
007F80006FD1
3BFFECCDC710
ENDCHAR
STARTCHAR uni0413
ENCODING 1043
SWIDTH 548 0
DWIDTH 11 0
BBX 11 14 0 0
BITMAP
1AEFFEEFFF60
007F80003D70
005F80000770
005F80000480
005F80000020
005F80000000
005F80000000
005F80000000
005F80000000
005F80000000
005F80000000
005F80000000
008FB0000000
2DFFFE700000
ENDCHAR
STARTCHAR uni0414
ENCODING 1044
SWIDTH 663 0
DWIDTH 13 0
BBX 13 19 0 -5
BITMAP
007CFEEEEFFB50
0000F1004FA000
0000E0004F8000
0000E0004F8000
0002D0004F8000
0004B0004F8000
000780004F8000
000A60004F8000
000D20004F8000
003D00004F8000
008900004F8000
01E300004F8000
09B000004FA000
EFDCCCCCDFFC50
FB100000006F60
F4000000000D60
E0000000000960
C0000000000650
20000000000110
ENDCHAR
STARTCHAR uni0415
ENCODING 1045
SWIDTH 626 0
DWIDTH 13 0
BBX 12 14 0 0
BITMAP
2AEFEDDDEFF4
007F800003D4
005F80000075
005F80000011
005F80000A00
005F80001B00
005F80007B00
005FDCCDFB00
005F80002B00
005F80000001
005F8000000B
005F8000004B
007F800003D9
3AEFEDDEEFF7
ENDCHAR
STARTCHAR uni0416
ENCODING 1046
SWIDTH 937 0
DWIDTH 19 0
BBX 20 14 -1 0
BITMAP
05ED3005DFFFD2006ED2
08FED0000BF70003FEF4
0250950008F400096150
00004A0008F4000D0000
00000D0008F4002B0000
00000B3008F400760000
000004B008F402C10000
000000CECDFDCF900000
000009F508F409F50000
00004FB008F401EE1000
0000DF2008F4006F9000
0007F90008F4000DF300
003EE1000AF60005FD10
1CFF7005DFFFC200BFEA
ENDCHAR
STARTCHAR uni0417
ENCODING 1047
SWIDTH 545 0
DWIDTH 11 0
BBX 11 14 0 0
BITMAP
0A7BCCDA3000
0BF5002EE300
0B900007F800
0B200006F900
0A000009F400
0000017F6000
0004DFE60000
0000016EC200
00000005FC00
00000000FF20
00000000EF30
17000002FE00
0781002CF500
004ABCD93000
ENDCHAR
STARTCHAR uni0418
ENCODING 1048
SWIDTH 780 0
DWIDTH 16 0
BBX 15 14 0 0
BITMAP
4DFFFD500BEFFEB0
008FA000001FF200
005F8000002FE000
005F800001CFE000
005F80000A6EE000
005F8000790EE000
005F8004C00EE000
005F802C200EE000
005F81C3000EE000
005F8A60000EE000
005FD900000EE000
005FC000000EE000
008FA000001FF200
3DFFFD500BEFFEB0
ENDCHAR
STARTCHAR uni0419
ENCODING 1049
SWIDTH 780 0
DWIDTH 16 0
BBX 15 18 0 0
BITMAP
00003E500CB00000
00007F500BF10000
00004F400AD00000
000004ABB9100000
4DFFFD500BEFFEB0
008FA000001FF200
005F8000002FE000
005F800001CFE000
005F80000A6EE000
005F8000790EE000
005F8004C00EE000
005F802C200EE000
005F81C3000EE000
005F8A60000EE000
005FD900000EE000
005FC000000EE000
008FA000001FF200
3DFFFD500BEFFEB0
ENDCHAR
STARTCHAR uni041A
ENCODING 1050
SWIDTH 658 0
DWIDTH 13 0
BBX 14 14 0 0
BITMAP
1DFFFD4001BE90
008FB0000AEFE0
005F80002D0330
005F8000670000
005F8000A30000
005F8001D00000
005F8008700000
005FDCEF200000
005F803FC10000
005F8008F80000
005F8001EF3000
005F80006FB000
008FA0000CF700
1CFFFD5004FFD5
ENDCHAR
STARTCHAR uni041B
ENCODING 1051
SWIDTH 684 0
DWIDTH 14 0
BBX 14 14 -1 0
BITMAP
0002AEFEEEFFD9
000005B000DF20
000004A000DF00
0000059000DF00
0000068000DF00
0000086000DF00
00000A4000DF00
00000D1000DF00
00001D0000DF00
00004A0000DF00
0000960000DF00
0412E10000DF00
4FFF800001EF30
1CE900009EFFEB
ENDCHAR
STARTCHAR uni041C
ENCODING 1052
SWIDTH 895 0
DWIDTH 18 0
BBX 17 14 0 0
BITMAP
5DFFD00000001EFFC0
00BFF40000006FF700
008EFA000000CEF400
0088FF100003E9F400
0087AF70000988F400
00874FD0001E28F400
00870DF4006B08F400
008707FA00C508F400
008701EF12E008F400
0087009F788008F400
0087003FDE2008F400
0097000CFB0008F400
00CA0006F5000BF700
5DFFD301D004DFFFC0
ENDCHAR
STARTCHAR uni041D
ENCODING 1053
SWIDTH 777 0
DWIDTH 16 0
BBX 15 14 0 0
BITMAP
3DFFFD500BFFFEA0
008FB000003FF100
005F8000000FD000
005F8000000ED000
005F8000000ED000
005F8000000ED000
005F8000000ED000
005FDCCCCCCFD000
005F8000000ED000
005F8000000ED000
005F8000000ED000
005F8000000ED000
008FA000001FF100
3CFFFD500BEFFEA0
ENDCHAR
STARTCHAR uni041E
ENCODING 1054
SWIDTH 738 0
DWIDTH 15 0
BBX 13 14 1 0
BITMAP
0005BCCCA40000
01BE40018F9000
0AF4000008F700
4FB0000001EF10
9F60000000AF70
DF300000007FA0
EF200000006FB0
EF200000006FA0
DF300000007F90
AF600000009F50
4FB0000000DE10
0BF3000005F600
01BE40005E7000
0005BCCCA30000
ENDCHAR
STARTCHAR uni041F
ENCODING 1055
SWIDTH 759 0
DWIDTH 15 0
BBX 15 14 0 0
BITMAP
3AFFEEEEEEEFFB50
007F8000005FA000
005F8000005F8000
005F8000005F8000
005F8000005F8000
005F8000005F8000
005F8000005F8000
005F8000005F8000
005F8000005F8000
005F8000005F8000
005F8000005F8000
005F8000005F8000
008FB000008FB000
4EFFFE502EFFFE60
ENDCHAR
STARTCHAR uni0420
ENCODING 1056
SWIDTH 569 0
DWIDTH 11 0
BBX 11 14 0 0
BITMAP
0AEFEDED9300
007F8004EF40
005F80006FB0
005F80002FD0
005F80002FC0
005F80005F70
005F8005EB00
005FDDCB6000
005F80000000
005F80000000
005F80000000
005F80000000
008FB0000000
1CFFFD600000
ENDCHAR
STARTCHAR uni0421
ENCODING 1057
SWIDTH 670 0
DWIDTH 13 0
BBX 12 14 1 0
BITMAP
0005ACCDB7C3
01AE50005EF3
0AF4000005F3
4FB0000000D3
9F6000000093
DF3000000000
EF2000000000
EF2000000000
DF3000000000
AF6000000000
5FB000000000
0BF400000035
01CE600017A1
0006BDCBA500
ENDCHAR
STARTCHAR uni0422
ENCODING 1058
SWIDTH 603 0
DWIDTH 12 0
BBX 12 14 0 0
BITMAP
8FECCFFCCEF9
9A000EE0009A
A3000EE0002A
70000EE00007
00000EE00000
00000EE00000
00000EE00000
00000EE00000
00000EE00000
00000EE00000
00000EE00000
00000EF00000
00002FF20000
000AEFFEB000
ENDCHAR
STARTCHAR uni0423
ENCODING 1059
SWIDTH 625 0
DWIDTH 13 0
BBX 14 14 -1 0
BITMAP
1DFFFD1006EFFB
008FC000004F60
000DE100005B00
0006F80000B400
0000DE1002C000
00005F80095000
00000DE11D0000
000005F8770000
000000CED10000
0000005F900000
0000000E200000
00052079000000
004FFDD1000000
001CFB20000000
ENDCHAR
STARTCHAR uni0424
ENCODING 1060
SWIDTH 725 0
DWIDTH 15 0
BBX 14 14 0 0
BITMAP
00007DFFFC1000
000000CF400000
0005ACEFCB8200
01CE719F24DF70
0AF4009F101CF4
1FC0009F1005FA
4FA0009F1002FC
4FB0009F1003FB
1FE1009F1006F7
08F8009F101DE1
009FA4AF35DD30
000279DFA85000
000000CF500000
00007DFFFC1000
ENDCHAR
STARTCHAR uni0425
ENCODING 1061
SWIDTH 664 0
DWIDTH 13 0
BBX 14 14 0 0
BITMAP
8EFFFB007EFFD1
01CFB00007E400
003FF2000D6000
0008FA008A0000
0000DF43D10000
00004FCC300000
000009FA000000
000009FF300000
00005C5FC00000
0002D20BF70000
000C6002FF3000
008B00008FC000
05F400003FF800
CFFE5005DFFFD2
ENDCHAR
STARTCHAR uni0426
ENCODING 1062
SWIDTH 756 0
DWIDTH 15 0
BBX 15 19 0 -5
BITMAP
3DFFFD403DFFFD40
008FA000009F9000
005F8000006F6000
005F8000006F6000
005F8000006F6000
005F8000006F6000
005F8000006F6000
005F8000006F6000
005F8000006F6000
005F8000006F6000
005F8000006F6000
005F8000006F6000
007F8000006F8000
29EFDCCCCCDFFC40
0000000000008F40
0000000000000E40
0000000000000B40
0000000000000830
0000000000000110
ENDCHAR
STARTCHAR uni0427
ENCODING 1063
SWIDTH 650 0
DWIDTH 13 0
BBX 13 14 0 0
BITMAP
AFFFD13DFFFD40
06FB0000AF8000
05F900008F5000
04F800008F5000
04F900008F5000
03FA00008F5000
00DF4002AF5000
002ADCB9AF5000
000000008F5000
000000008F5000
000000008F5000
000000008F5000
00000000BF8000
0000007DFFFD30
ENDCHAR
STARTCHAR uni0428
ENCODING 1064
SWIDTH 1053 0
DWIDTH 21 0
BBX 21 14 0 0
BITMAP
4DFFFD22DFFFD22DFFFD40
008F900008F900009F9000
005F700006F700006F6000
005F700005F600006F6000
005F700005F600006F6000
005F700005F600006F6000
005F700005F600006F6000
005F700005F600006F6000
005F700005F600006F6000
005F700005F600006F6000
005F700005F600006F6000
005F700005F600006F6000
006F700005F600006F7000
28DFDCCCCDFDCCCCDFE820
ENDCHAR
STARTCHAR uni0429
ENCODING 1065
SWIDTH 1044 0
DWIDTH 21 0
BBX 21 19 0 -5
BITMAP
4DFFFD23DFFFD14DFFFC10
008F90000AF70000CF5000
005F700008F50000AF3000
005F700007F400009F3000
005F700007F400009F3000
005F700007F400009F3000
005F700007F400009F3000
005F700007F400009F3000
005F700007F400009F3000
005F700007F400009F3000
005F700007F400009F3000
005F700007F400009F3000
007F700007F400009F4000
29EFDCCCCDFDCCCCEFEC10
000000000000000001BF10
0000000000000000004F00
0000000000000000000F00
0000000000000000000C00
0000000000000000000200
ENDCHAR
STARTCHAR uni042A
ENCODING 1066
SWIDTH 723 0
DWIDTH 14 0
BBX 14 14 0 0
BITMAP
8FFEEFFEA00000
9B100CF3000000
94000CF1000000
80000CF1000000
00000CF1000000
00000CF1000000
00000CFCCDB710
00000CF1017FD1
00000CF10009F9
00000CF10004FC
00000CF10004FC
00000CF10007F8
00000EF1004ED1
0005BFFCCDC810
ENDCHAR
STARTCHAR uni042B
ENCODING 1067
SWIDTH 887 0
DWIDTH 18 0
BBX 18 14 0 0
BITMAP
4DFFFD500009EFFFC1
008FA00000001EF400
005F800000000CF100
005F800000000CF100
005F800000000CF100
005F800000000CF100
005FDCDC93000CF100
005F8004DF400CF100
005F80003FD00CF100
005F80000EF20CF100
005F80000EF10CF100
006F80002FC00CF100
008F8002BF400EF400
2DFFDCCD9209EFFFC1
ENDCHAR
STARTCHAR uni042C
ENCODING 1068
SWIDTH 606 0
DWIDTH 12 0
BBX 12 14 0 0
BITMAP
4DFFFD500000
008FA0000000
005F80000000
005F80000000
005F80000000
005F80000000
005FDCDCA500
005F8003BF90
005F80000DF3
005F800009F7
005F800009F7
005F80000CF3
007F80018F80
19EFDCCDB500
ENDCHAR
STARTCHAR uni042D
ENCODING 1069
SWIDTH 667 0
DWIDTH 13 0
BBX 13 14 0 0
BITMAP
0B79CCCD930000
0BF91001AF6000
0CA000000BF400
0C30000003FB00
0B00000000EF10
0000000000CF30
0003CCCCCCEF50
0000000000BF40
0000000000DF20
0000000001FD00
0000000004F800
1A1000000CD100
03B40002BD2000
0018CCCC710000
ENDCHAR
STARTCHAR uni042E
ENCODING 1070
SWIDTH 1042 0
DWIDTH 21 0
BBX 20 14 0 0
BITMAP
3DFFFD500039CCCB5000
008FA00006F91005EB10
005F70004FA000005F90
005F7000DF2000000CF3
005F7003FC00000007F8
005F7005F900000004FB
005FDCCDF800000003FC
005F7006F800000003FC
005F7005F900000004FA
005F7001FC00000007F7
005F7000BF1000000BF2
005F80003F9000003F80
008FA00005F70003D900
3CFFFD500039CCCB5000
ENDCHAR
STARTCHAR uni042F
ENCODING 1071
SWIDTH 654 0
DWIDTH 13 0
BBX 14 14 -1 0
BITMAP
000039DDCDFEA2
0004FD3007F800
000CF40007F600
000FF00007F600
000FF10007F600
000AF70007F600
0002DF6107F600
000017FFDDF600
00000CF407F600
00008F9007F600
0002EE1007F600
0009F80007F700
005FE10009F900
1DFF8005DFFFD2
ENDCHAR
STARTCHAR uni0430
ENCODING 1072
SWIDTH 480 0
DWIDTH 10 0
BBX 10 10 0 0
BITMAP
007BCD8000
08F107F500
0CD001F900
034000FA00
000048FA00
008C72FA00
0BD100FA00
3F8000FA00
2FC003EB01
06ED928EA2
ENDCHAR
STARTCHAR uni0431
ENCODING 1073
SWIDTH 520 0
DWIDTH 10 0
BBX 10 15 0 0
BITMAP
0000000294
000038CFD1
002BFFE910
01DD730000
08C1000000
0D35BCD810
1D7A003EB0
3CE10008F5
3FC00004F9
3FB00002FA
1FC00002FA
0DD00004F8
08F30007F2
01DB102E70
002ADCB500
ENDCHAR
STARTCHAR uni0432
ENCODING 1074
SWIDTH 505 0
DWIDTH 10 0
BBX 10 10 0 0
BITMAP
3BFECDD910
00FB003FB0
00EB000BF0
00EB000CE0
00EB005F50
00EECEF810
00EB003DD1
00EB0008F5
00FB000BF2
3BFECCDB40
ENDCHAR
STARTCHAR uni0433
ENCODING 1075
SWIDTH 429 0
DWIDTH 9 0
BBX 9 10 0 0
BITMAP
3BFECCEF20
00FB002F20
00EB000B20
00EB000520
00EB000000
00EB000000
00EB000000
00EB000000
01FD000000
4EFFD40000
ENDCHAR
STARTCHAR uni0434
ENCODING 1076
SWIDTH 530 0
DWIDTH 11 0
BBX 11 14 0 -4
BITMAP
02AFCCCFE800
000B203F7000
000B103F7000
000C003F7000
000C003F7000
0039003F7000
0086003F7000
01D1003F7000
0990003F8000
DFDCCCCFFC10
F91000008F10
E20000001F10
C00000000C00
200000000200
ENDCHAR
STARTCHAR uni0435
ENCODING 1077
SWIDTH 464 0
DWIDTH 9 0
BBX 9 10 0 0
BITMAP
004BCDA200
04D101DC00
0D60006F50
2FDCCCCD70
4F50000000
4F70000000
2FD0000030
0CFA101950
04FFFDFB00
003BEE9100
ENDCHAR
STARTCHAR uni0436
ENCODING 1078
SWIDTH 754 0
DWIDTH 15 0
BBX 17 10 -1 0
BITMAP
05EB007FFF800AE600
09FE7006F7006EFA00
0131C004F500B13100
0000A204F501B00000
00004904F508600000
00002EEDFDDF300000
0000CE14F51DD10000
0009F504F504FA0000
005FB005F600AF6000
1CFF206EFE801EFC20
ENDCHAR
STARTCHAR uni0437
ENCODING 1079
SWIDTH 435 0
DWIDTH 9 0
BBX 8 10 0 0
BITMAP
1CACDC60
1F3008F5
190004F8
000009F3
001CFC20
000019C2
000001FB
100000FD
491007F7
04ABDC50
ENDCHAR
STARTCHAR uni0438
ENCODING 1080
SWIDTH 609 0
DWIDTH 12 0
BBX 12 10 0 0
BITMAP
4DFFD10BFFE6
01FC0000AF30
00EB0002DF20
00EB001CBF20
00EB01B38F20
00EB0B408F20
00EBA4008F20
00EF50008F20
01FC0000AF30
4EFFD10BFFE6
ENDCHAR
STARTCHAR uni0439
ENCODING 1081
SWIDTH 609 0
DWIDTH 12 0
BBX 12 15 0 0
BITMAP
000640036000
003FA008F600
002F7005F400
0003ABBA5000
000000000000
4DFFD10BFFE6
01FC0000AF30
00EB0002DF20
00EB001CBF20
00EB01B38F20
00EB0B408F20
00EBA4008F20
00EF50008F20
01FC0000AF30
4EFFD10BFFE6
ENDCHAR
STARTCHAR uni043A
ENCODING 1082
SWIDTH 521 0
DWIDTH 10 0
BBX 11 10 0 0
BITMAP
4EFFD105EC10
01FD001EEF10
00EB00671300
00EB00B20000
00EB03B00000
00EECF800000
00EB0AF50000
00EB01EE2000
01FC005FB000
5DFFD10BFE70
ENDCHAR
STARTCHAR uni043B
ENCODING 1083
SWIDTH 553 0
DWIDTH 11 0
BBX 12 10 -1 0
BITMAP
0006CFCCEFC4
00002C00AF10
00002B00AF00
00004900AF00
00006700AF00
00009400AF00
0000D100AF00
0003B000AF00
1FCE5000BF10
1CE8001DFFE5
ENDCHAR
STARTCHAR uni043C
ENCODING 1084
SWIDTH 697 0
DWIDTH 14 0
BBX 14 10 0 0
BITMAP
7EFF100003FFE4
04FF700009FF10
02CEE0001DCE00
02B9F50078CE00
02B2FC00D2CE00
02B0AF35A0CE00
02B04F9B30CE00
02B00CFC00CE00
04D005F600DE00
8EFD20C01DFFD4
ENDCHAR
STARTCHAR uni043D
ENCODING 1085
SWIDTH 605 0
DWIDTH 12 0
BBX 12 10 0 0
BITMAP
5EFFD10CFFE6
01FC0000BF20
00EB0000AF10
00EB0000AF10
00EECCCCEF10
00EB0000AF10
00EB0000AF10
00EB0000AF10
01FC0000BF20
5EFFD10CFFE6
ENDCHAR
STARTCHAR uni043E
ENCODING 1086
SWIDTH 514 0
DWIDTH 10 0
BBX 10 10 0 0
BITMAP
003ADCC600
03E8004F80
0CD0000AF2
2FA00006F7
4F900004F9
4F900004F8
2FA00005F6
0DE00008F1
04F9002E70
003BDCC500
ENDCHAR
STARTCHAR uni043F
ENCODING 1087
SWIDTH 591 0
DWIDTH 12 0
BBX 12 10 0 0
BITMAP
4CFECCCCFFA2
00FB0000EC00
00EB0000EC00
00EB0000EC00
00EB0000EC00
00EB0000EC00
00EB0000EC00
00EB0000EC00
01FC0000ED00
5EFFD13DFFD3
ENDCHAR
STARTCHAR uni0440
ENCODING 1088
SWIDTH 537 0
DWIDTH 11 0
BBX 10 15 0 -5
BITMAP
4AD83BED50
03FC935DF3
01FA0003FB
01F80000EE
01F80000CF
01F80000CE
01F80000EC
01F90003F6
01FE401BB0
01FCCCC800
01F8000000
01F8000000
01F9000000
03FB000000
7EFFD60000
ENDCHAR
STARTCHAR uni0441
ENCODING 1089
SWIDTH 446 0
DWIDTH 9 0
BBX 9 10 0 0
BITMAP
003ACEC400
03E301EF10
0C80006D10
2F50000000
4F40000000
5F60000000
3FB0000020
0EF7001B30
05FFEDF900
005CFD8000
ENDCHAR
STARTCHAR uni0442
ENCODING 1090
SWIDTH 456 0
DWIDTH 9 0
BBX 9 10 0 0
BITMAP
BFDDFDCFD0
B604F604D0
B004F600B0
4004F60040
0004F60000
0004F60000
0004F60000
0004F60000
0006F80000
00AFFFC000
ENDCHAR
STARTCHAR uni0443
ENCODING 1091
SWIDTH 483 0
DWIDTH 10 0
BBX 11 15 -1 -5
BITMAP
3EFFD107EFB0
02FF00007B00
009F4000B400
003FB001D000
000BF2058000
0005F80A3000
0000DE1C0000
00006F970000
00001EF20000
00000AB00000
000009600000
00001D100000
000088000000
0AD9D1000000
09EC30000000
ENDCHAR
STARTCHAR uni0444
ENCODING 1092
SWIDTH 710 0
DWIDTH 14 0
BBX 14 19 0 -5
BITMAP
000018CD000000
000000CD000000
000000BD000000
000000BD000000
005DC9BD7BD900
04F503FF602E90
0CD000BD0009F1
1FA000BD0007F4
3F9000BD0006F6
3F9000BD0006F6
1FA000BD0007F4
0DD000BD000AE0
05F504FF502E80
007DC9BD8CD800
000000BD000000
000000BD000000
000000BD000000
000000DE100000
00003DFFE70000
ENDCHAR
STARTCHAR uni0445
ENCODING 1093
SWIDTH 479 0
DWIDTH 10 0
BBX 11 10 -1 0
BITMAP
0AFFF60DFE40
006FA004D200
000AF30B2000
0001EC750000
00005FB00000
00004EF40000
0002C2DD1000
000C404FA000
0099000BF600
1EFE307FFF80
ENDCHAR
STARTCHAR uni0446
ENCODING 1094
SWIDTH 590 0
DWIDTH 12 0
BBX 12 14 0 -4
BITMAP
5EFFD14EFFD1
01FC0001FB00
00EB0000FA00
00EB0000FA00
00EB0000FA00
00EB0000FA00
00EB0000FA00
00EB0000FA00
00FB0001FB00
4CFFCCCEFFC3
0000000005F4
0000000000D4
000000000093
000000000011
ENDCHAR
STARTCHAR uni0447
ENCODING 1095
SWIDTH 535 0
DWIDTH 11 0
BBX 11 10 0 0
BITMAP
CFFD24EFFD10
0BF0002FB000
0BF0001FA000
0AF0001FA000
07F5003FA000
008CCA8FA000
0000001FA000
0000001FA000
0000002FB000
000004EFFD10
ENDCHAR
STARTCHAR uni0448
ENCODING 1096
SWIDTH 812 0
DWIDTH 16 0
BBX 16 10 0 0
BITMAP
5EFFB0BFFD28FFE7
01FB000CF0007F40
00EA000BE0006F30
00EA000BE0006F30
00EA000BE0006F30
00EA000BE0006F30
00EA000BE0006F30
00EA000BE0006F30
01FA000CE0007F40
5EFFCCDFFDCCFFE7
ENDCHAR
STARTCHAR uni0449
ENCODING 1097
SWIDTH 814 0
DWIDTH 16 0
BBX 16 14 0 -4
BITMAP
5EFFB0CFFD18FFE7
01FB000CE0008F30
00EA000BE0007F20
00EA000BE0007F20
00EA000BE0007F20
00EA000BE0007F20
00EA000BE0007F20
00EA000BE0007F20
00FA000CE0008F30
4CFFCCDFFDCCFFE9
00000000000001CC
000000000000005B
000000000000002B
0000000000000002
ENDCHAR
STARTCHAR uni044A
ENCODING 1098
SWIDTH 568 0
DWIDTH 11 0
BBX 11 10 0 0
BITMAP
AFCCFD700000
B604F7000000
B004F6000000
3004F6000000
0004FDBCB500
0004F601AF60
0004F6001FB0
0004F6001FC0
0005F6007F60
006DFDBDC500
ENDCHAR
STARTCHAR uni044B
ENCODING 1099
SWIDTH 728 0
DWIDTH 15 0
BBX 14 10 0 0
BITMAP
4DFFD20006EFFB
01FC0000003F90
00EB0000002F80
00EB0000002F80
00EECDB6002F80
00EB007F802F80
00EB000DE02F80
00EB000DE02F80
01FB005F803F90
4EFECDD706EFFB
ENDCHAR
STARTCHAR uni044C
ENCODING 1100
SWIDTH 489 0
DWIDTH 10 0
BBX 10 10 0 0
BITMAP
4DFFD20000
01FC000000
00EB000000
00EB000000
00EECDC810
00EB005FC0
00EB000AF3
00EB000AF3
00FB003EC0
3CFECDD910
ENDCHAR
STARTCHAR uni044D
ENCODING 1101
SWIDTH 467 0
DWIDTH 9 0
BBX 9 10 0 0
BITMAP
1C9CCC7000
1E4002DA00
2900007F30
0000004F70
001CCCCF90
0000004F90
0000005F70
2100009F20
1A2004F800
019BCD6000
ENDCHAR
STARTCHAR uni044E
ENCODING 1102
SWIDTH 774 0
DWIDTH 15 0
BBX 15 10 0 0
BITMAP
5EFFD1019DCD8100
01FC000CC102DB00
00EB007F40007F50
00EB00BF00003FA0
00EECCFE00001FC0
00EB00CE00001FB0
00EB00AF10002F90
00EB005F40005F40
01FC000BC101CA00
5EFFD1018DCC7000
ENDCHAR
STARTCHAR uni044F
ENCODING 1103
SWIDTH 518 0
DWIDTH 10 0
BBX 11 10 -1 0
BITMAP
0006CDCEFE90
007F8005F600
00BF1005F500
00AF2005F500
003EC205F500
00029FEDF500
0001DD15F500
000AF505F500
005FC006F600
1CFF40AEFFA0
ENDCHAR
STARTCHAR uni0450
ENCODING 1104
SWIDTH 464 0
DWIDTH 9 0
BBX 9 14 0 0
BITMAP
003EB00000
0004F30000
00005A0000
0000000000
004BCDA200
04D101DC00
0D60006F50
2FDCCCCD70
4F50000000
4F70000000
2FD0000030
0CFA101950
04FFFDFB00
003BEE9100
ENDCHAR
STARTCHAR uni0451
ENCODING 1105
SWIDTH 464 0
DWIDTH 9 0
BBX 9 15 0 0
BITMAP
0010001100
05F901EE10
04E800CD10
0000000000
0000000000
004BCDA200
04D101DC00
0D60006F50
2FDCCCCD70
4F50000000
4F70000000
2FD0000030
0CFA101950
04FFFDFB00
003BEE9100
ENDCHAR
STARTCHAR uni0452
ENCODING 1106
SWIDTH 563 0
DWIDTH 11 0
BBX 10 19 0 -5
BITMAP
4ADB000000
01FB000000
6CFECCB000
00EB000000
00EB39CE70
00EE7008F4
00EB0001F8
00EB0000EB
00EB0000DC
00EB0000DC
00EB0000DC
00EB0000DC
01FC0000DB
4EFFD200E9
00000000F7
00000001F3
00016004E0
0006F80A60
0002CFD700
ENDCHAR
STARTCHAR uni0453
ENCODING 1107
SWIDTH 429 0
DWIDTH 9 0
BBX 9 14 0 0
BITMAP
00009F5000
0002F60000
0008700000
0000000000
3BFECCEF20
00FB002F20
00EB000B20
00EB000520
00EB000000
00EB000000
00EB000000
00EB000000
01FD000000
4EFFD40000
ENDCHAR
STARTCHAR uni0454
ENCODING 1108
SWIDTH 460 0
DWIDTH 9 0
BBX 9 10 0 0
BITMAP
003ACDD700
03E500AF50
0CC0002B40
2F90000000
4FDCCC7000
4F80000000
3FA0000000
0DD0000020
05F8000850
004CECB400
ENDCHAR
STARTCHAR uni0455
ENCODING 1109
SWIDTH 394 0
DWIDTH 8 0
BBX 8 10 0 0
BITMAP
03BCC9A0
0E6008B0
2F5000A0
1EE50000
05EFC300
002AFF70
00003DF2
370006F5
3E3008F2
3BBCCB40
ENDCHAR
STARTCHAR uni0456
ENCODING 1110
SWIDTH 285 0
DWIDTH 6 0
BBX 6 14 0 0
BITMAP
01DC00
02ED00
001100
000000
29DA00
13FB00
00EB00
00EB00
00EB00
00EB00
00EB00
00EB00
01FC00
4EFFD2
ENDCHAR
STARTCHAR uni0457
ENCODING 1111
SWIDTH 285 0
DWIDTH 6 0
BBX 7 14 -1 0
BITMAP
5E606E50
6F808F70
02000200
00000000
029DA000
013FB000
000EB000
000EB000
000EB000
000EB000
000EB000
000EB000
001FC000
04EFFD20
ENDCHAR
STARTCHAR uni0458
ENCODING 1112
SWIDTH 263 0
DWIDTH 5 0
BBX 6 19 -2 -5
BITMAP
0003EA
0003FC
000010
000000
0039DA
0014FA
0000FA
0000FA
0000FA
0000FA
0000FA
0000FA
0000FA
0000FA
0000FA
0000F8
3201F6
CE25E1
6EEC30
ENDCHAR
STARTCHAR uni0459
ENCODING 1113
SWIDTH 742 0
DWIDTH 15 0
BBX 16 10 -1 0
BITMAP
0006CFBBEFA20000
00002C00CD000000
00002B00CD000000
00004900CD000000
00006700CFCCC910
00009400CD004EC0
0000D100CD0009F3
0003B000CD0009F3
2ECD4000DD002EC0
1CE8002AFFBCD910
ENDCHAR
STARTCHAR uni045A
ENCODING 1114
SWIDTH 790 0
DWIDTH 16 0
BBX 16 10 0 0
BITMAP
5EFFD11DFFE50000
01FC0000CF100000
00EB0000BE000000
00EB0000BE000000
00EECCCCEFCDC920
00EB0000BE003ED1
00EB0000BE0008F5
00EB0000BE0007F5
01FC0000CE002DE1
5EFFD11DFFCCDA20
ENDCHAR
STARTCHAR uni045B
ENCODING 1115
SWIDTH 579 0
DWIDTH 12 0
BBX 12 14 0 0
BITMAP
4ADB00000000
01FB00000000
6CFECCB00000
00EB00000000
00EB39CE8000
00EE7007F400
00EB0002F800
00EB0000FA00
00EB0000FA00
00EB0000FA00
00EB0000FA00
00EB0000FA00
01FC0002FC00
4EFFD25EFFD2
ENDCHAR
STARTCHAR uni045C
ENCODING 1116
SWIDTH 521 0
DWIDTH 10 0
BBX 11 14 0 0
BITMAP
00000CE20000
00004F400000
0000B5000000
000000000000
4EFFD105EC10
01FD001EEF10
00EB00671300
00EB00B20000
00EB03B00000
00EECF800000
00EB0AF50000
00EB01EE2000
01FC005FB000
5DFFD10BFE70
ENDCHAR
STARTCHAR uni045D
ENCODING 1117
SWIDTH 609 0
DWIDTH 12 0
BBX 12 14 0 0
BITMAP
0004FA000000
00006F200000
000006900000
000000000000
4DFFD10BFFE6
01FC0000AF30
00EB0002DF20
00EB001CBF20
00EB01B38F20
00EB0B408F20
00EBA4008F20
00EF50008F20
01FC0000AF30
4EFFD10BFFE6
ENDCHAR
STARTCHAR uni045E
ENCODING 1118
SWIDTH 483 0
DWIDTH 10 0
BBX 11 19 -1 -5
BITMAP
000CA006E300
002FA005F800
000D9004F400
00029BBA4000
3EFFD107EFB0
02FF00007B00
00AF4000B400
003FA001D000
000CF1059000
0005F7093000
0000ED0C0000
00007F780000
00001FE20000
00000BC00000
000009700000
00000D100000
000069000000
09D9D2000000
09FC40000000
ENDCHAR
STARTCHAR uni045F
ENCODING 1119
SWIDTH 587 0
DWIDTH 12 0
BBX 12 14 0 -4
BITMAP
5EFFD14EFFD1
01FC0001FC00
00EB0000EB00
00EB0000EB00
00EB0000EB00
00EB0000EB00
00EB0000EB00
00EB0000EB00
00FB0000FB00
4CFFCCCDFFA1
000009500000
00000D900000
00002FC00000
00000D900000
ENDCHAR
STARTCHAR uni0462
ENCODING 1122
SWIDTH 727 0
DWIDTH 15 0
BBX 14 15 0 0
BITMAP
001CDDDD800000
00004FD0000000
8DDCCFECCCDD80
9A102FB0001B90
93002FB00003A0
60002FB0000070
00002FB0000000
00002FEBCDB700
00002FB0029FC1
00002FB0000AF7
00002FB00006FA
00002FB00006FA
00002FB00009F6
00004FB0006FB0
0008DFECCDC600
ENDCHAR
STARTCHAR uni0463
ENCODING 1123
SWIDTH 561 0
DWIDTH 11 0
BBX 11 15 0 0
BITMAP
000372000000
006CF3000000
0006F3000000
0006F3000000
0006F3000000
BFCDFCCFD000
B506F302D000
A006F300A000
2006F3000000
0006FDCDB500
0006F301BF50
0006F3002FB0
0006F3002FB0
0007F3009F50
007EFCCDB500
ENDCHAR
STARTCHAR uni046A
ENCODING 1130
SWIDTH 881 0
DWIDTH 18 0
BBX 19 14 -1 0
BITMAP
0000CFECCCCCCDF20000
00003FE200000B800000
000008FB00005D100000
000000CF5001D4000000
0000003FE108A0000000
00000008F92E20000000
00000000CFC700000000
0000029CDFFCB6000000
00001DF41FA09F800000
00009F701FA00DF30000
0003FE101FA005FC0000
000BF6001FA000CF5000
007FE1003FC0005FE200
4DFF7008EFFD300CFFC0
ENDCHAR
STARTCHAR uni046B
ENCODING 1131
SWIDTH 667 0
DWIDTH 13 0
BBX 15 10 -1 0
BITMAP
000BFDCCCCDB0000
0002ED1001C20000
00004FB009700000
000008F74B000000
000002DFE4000000
00009E9FBCC20000
0006F62F72FB0000
001ED02F708F5000
008F603F801FD000
3AFE03CFE609FC60
ENDCHAR
STARTCHAR uni0472
ENCODING 1138
SWIDTH 737 0
DWIDTH 15 0
BBX 13 14 1 0
BITMAP
0005BCCCA40000
01BE50007F9000
0AF4000008F700
4FA0000001EF10
9F600000009F60
DF300000006F90
EF5AEEA5118FA0
EF7349EFFC9FA0
DF200002105F90
AF500000008F50
5F90000000CE10
0BF2000004F500
01BD40005E7000
0006BCCC930000
ENDCHAR
STARTCHAR uni0473
ENCODING 1139
SWIDTH 514 0
DWIDTH 10 0
BBX 10 10 0 0
BITMAP
002ADCC600
03E9004F80
0CD0000AF2
2FA00005F7
4F99C604F8
4F904BC7F8
2F900005F6
0DD00008E1
04F8002E60
003BDCB500
ENDCHAR
STARTCHAR uni0474
ENCODING 1140
SWIDTH 705 0
DWIDTH 14 0
BBX 16 14 -1 0
BITMAP
2EFFFD2000007DE4
00BFD0000003FEF8
003FF100000A8051
000CF700001F1000
0005FD00007A0000
0000EF4000C50000
00008FA002E00000
00002FF108900000
00000BF70D400000
000005FD3D000000
000000EFB8000000
0000008FF3000000
0000002FC0000000
0000000B70000000
ENDCHAR
STARTCHAR uni0475
ENCODING 1141
SWIDTH 520 0
DWIDTH 10 0
BBX 12 10 -1 0
BITMAP
3EFFC0000AE9
01EF00007EFD
008F4000E212
003FA005A000
000CE10A5000
0006F60D0000
0001EB490000
00009FA30000
00004FD00000
00000D700000
ENDCHAR
STARTCHAR uni0490
ENCODING 1168
SWIDTH 525 0
DWIDTH 11 0
BBX 11 17 0 0
BITMAP
000000000330
000000000850
000000014E50
1AEFFEEEEE40
007F80000000
005F80000000
005F80000000
005F80000000
005F80000000
005F80000000
005F80000000
005F80000000
005F80000000
005F80000000
005F80000000
008FB0000000
2DFFFE700000
ENDCHAR
STARTCHAR uni0491
ENCODING 1169
SWIDTH 404 0
DWIDTH 8 0
BBX 8 13 0 0
BITMAP
00000005
0000000D
0000006E
3BFECCCB
00FB0000
00EB0000
00EB0000
00EB0000
00EB0000
00EB0000
00EB0000
01FD0000
4EFFD400
ENDCHAR
STARTCHAR uni1D00
ENCODING 7424
SWIDTH 511 0
DWIDTH 10 0
BBX 12 10 -1 0
BITMAP
00000AC00000
00002FF30000
000087FA0000
0000C0CF1000
0005807F7000
000C201FD000
003ECCCEF400
00960005FB00
02E00000FF40
4EFC000BFFF6
ENDCHAR
STARTCHAR uni1D07
ENCODING 7431
SWIDTH 495 0
DWIDTH 10 0
BBX 10 10 0 0
BITMAP
3BFECCDFB0
00FB0003B0
00EB000050
00EB001800
00EB005800
00EEBCF800
00EB003800
00EB000052
00FB0001D1
3BFEBBCFD0
ENDCHAR
STARTCHAR uni1D1C
ENCODING 7452
SWIDTH 584 0
DWIDTH 12 0
BBX 12 10 0 0
BITMAP
8EFFC005EFE4
04F900002F10
03F700000D00
03F700000D00
03F700000D00
03F700000D00
02F700000C00
01F900002B00
00AE3001A400
0018DCCB5000
ENDCHAR
STARTCHAR uni1D81
ENCODING 7553
SWIDTH 539 0
DWIDTH 11 0
BBX 11 19 0 -5
BITMAP
0000018CD000
0000002DD000
0000000CD000
0000000CD000
0019CCCED000
01D7005FD000
0AC0000DD000
1F80000CD000
4F60000CD000
5F60000CD000
4F80000CD000
1FB0000CD000
08F6003ED000
008EDA7CE920
000000000940
000000000940
000000200A30
000000D81D10
0000007EC500
ENDCHAR
STARTCHAR uni1D84
ENCODING 7556
SWIDTH 542 0
DWIDTH 11 0
BBX 11 19 0 -5
BITMAP
39DA00000000
02FA00000000
00FA00000000
00FA00000000
00FA03EFFD10
00FA007D4000
00FA05C10000
00FA5A100000
00FDF8000000
00FAAF600000
00FA0CF50000
00FA01DE3000
01FB002FE300
5EFFD28FFFA0
0000000001C0
0000000001B0
000000010290
0000006E1660
0000002CD900
ENDCHAR
STARTCHAR uni1D85
ENCODING 7557
SWIDTH 283 0
DWIDTH 6 0
BBX 6 19 0 -5
BITMAP
39CA00
14FA00
00FA00
00FA00
00FA00
00FA00
00FA00
00FA00
00FA00
00FA00
00FA00
00FA00
02FC00
5EFFD2
0000A3
0000A2
0100B1
0E61B0
08EB30
ENDCHAR
STARTCHAR uni1D8A
ENCODING 7562
SWIDTH 395 0
DWIDTH 8 0
BBX 8 15 0 -5
BITMAP
03BCC9A0
0E6007B0
2F5000A0
1EE50000
05EFC300
002AFF70
00004DF2
370006F5
3E2008F2
3BBCCBC0
000001C0
000001C0
000202A0
005E2670
001CDA10
ENDCHAR
STARTCHAR uni1D8D
ENCODING 7565
SWIDTH 479 0
DWIDTH 10 0
BBX 11 15 -1 -5
BITMAP
0AFFF60DFE40
006FA004D200
000AF30B2000
0001EC750000
00005FB00000
00004EF40000
0002C2DD1000
000C404FA000
0099000BF600
1EFE307FFF80
0000000004A0
000000000490
000000110470
0000008D0940
0000003DC800
ENDCHAR
STARTCHAR uni1D8E
ENCODING 7566
SWIDTH 458 0
DWIDTH 9 0
BBX 9 15 0 -5
BITMAP
0FECCCEF50
0E2004FC00
1A000DF200
00008F7000
0003FC0000
000CF30000
007F800120
02ED100670
0BF4001C60
5FFCCCEF50
0000000940
0000000940
0000100A20
0000D80C00
00007EB400
ENDCHAR
STARTCHAR uni1D98
ENCODING 7576
SWIDTH 368 0
DWIDTH 7 0
BBX 10 20 0 -5
BITMAP
000005BDA2
00004D07F7
0000BA0041
0000EA0000
0000FA0000
0000FA0000
0000FA0000
0000FA0000
0000FA0000
0000FA0000
0000FA0000
0000FA0000
1100F80000
BD11F50000
CDDC800000
C200000000
B200000000
9304200000
671E700000
09DC200000
ENDCHAR
STARTCHAR uni1D9B
ENCODING 7579
SWIDTH 462 0
DWIDTH 9 0
BBX 9 8 0 5
BITMAP
6DD4CFC400
09F735DE10
09D0004F60
09D0001F80
09D0001F70
09D0003F30
09F300A900
099CBC7000
ENDCHAR
STARTCHAR uni1DA3
ENCODING 7587
SWIDTH 488 0
DWIDTH 10 0
BBX 10 11 0 2
BITMAP
5DFB25DFB2
06F2006F10
05F1006F10
05F1006F10
05F2006F10
04F3006F10
02FA25DF10
006EE86F10
0000006F10
0000006F10
0000006EB2
ENDCHAR
STARTCHAR uni1E00
ENCODING 7680
SWIDTH 718 0
DWIDTH 14 0
BBX 15 19 0 -5
BITMAP
0000008A00000000
000000EF20000000
000005FF80000000
00000B7FE0000000
00002E1BF5000000
00008906FC000000
0000E401FF300000
0006E000BF900000
000C80005FE10000
003FCCCCCFF70000
009B000008FD0000
01E4000001FF4000
09F0000000CFC100
CFFD30001DFFFE30
0000000000000000
000008CA20000000
00004A05A0000000
00004A04A0000000
000008CB20000000
ENDCHAR
STARTCHAR uni1E01
ENCODING 7681
SWIDTH 480 0
DWIDTH 10 0
BBX 10 15 0 -5
BITMAP
007BCD8000
08F107F500
0CD001F900
034000FA00
000048FA00
008C72FA00
0BD100FA00
3F8000FA00
2FC003EB01
06ED928EA2
0000000000
0009CA1000
0059068000
0059068000
0009CA1000
ENDCHAR
STARTCHAR uni1E02
ENCODING 7682
SWIDTH 618 0
DWIDTH 12 0
BBX 12 18 0 0
BITMAP
000001100000
00002ED00000
00001DB00000
000000000000
3AEFEDDEB500
007F8001BF70
005F80002FE0
005F80000FF0
005F80002FC0
005F8002BD30
005FECDFA100
005F8002AE50
005F80000CF3
005F800008F8
005F800007F9
005F80000AF7
007F80006FD1
3BFFECCDC710
ENDCHAR
STARTCHAR uni1E03
ENCODING 7683
SWIDTH 522 0
DWIDTH 10 0
BBX 10 19 0 0
BITMAP
0000110000
0000DE1000
0000CD1000
0000000000
0000000000
6AE4000000
19F4000000
06F4000000
06F4000000
06F46DEB20
06FB736FD1
06F60008F6
06F40004FA
06F40002FB
06F40002FA
06F40003F7
06F40007F2
06F9003E60
029DDBB400
ENDCHAR
STARTCHAR uni1E04
ENCODING 7684
SWIDTH 618 0
DWIDTH 12 0
BBX 12 18 0 -4
BITMAP
3AEFEDDEB500
007F8001BF70
005F80002FE0
005F80000FF0
005F80002FC0
005F8002BD30
005FECDFA100
005F8002AE50
005F80000CF3
005F800008F8
005F800007F9
005F80000AF7
007F80006FD1
3BFFECCDC710
000000000000
000001100000
00002FD00000
00001DB00000
ENDCHAR
STARTCHAR uni1E05
ENCODING 7685
SWIDTH 522 0
DWIDTH 10 0
BBX 10 18 0 -4
BITMAP
6AE4000000
19F4000000
06F4000000
06F4000000
06F46DEB20
06FB736FD1
06F60008F6
06F40004FA
06F40002FB
06F40002FA
06F40003F7
06F40007F2
06F9003E60
029DDBB400
0000000000
0000110000
0000EE1000
0000CD1000
ENDCHAR
STARTCHAR uni1E06
ENCODING 7686
SWIDTH 618 0
DWIDTH 12 0
BBX 12 17 0 -3
BITMAP
3AEFEDDEB500
007F8001BF70
005F80002FE0
005F80000FF0
005F80002FC0
005F8002BD30
005FECDFA100
005F8002AE50
005F80000CF3
005F800008F8
005F800007F9
005F80000AF7
007F80006FD1
3BFFECCDC710
000000000000
000000000000
000CCCCC9000
ENDCHAR
STARTCHAR uni1E07
ENCODING 7687
SWIDTH 522 0
DWIDTH 10 0
BBX 10 17 0 -3
BITMAP
6AE4000000
19F4000000
06F4000000
06F4000000
06F46DEB20
06FB736FD1
06F60008F6
06F40004FA
06F40002FB
06F40002FA
06F40003F7
06F40007F2
06F9003E60
029DDBB400
0000000000
0000000000
00ACCCCB00
ENDCHAR
STARTCHAR uni1E08
ENCODING 7688
SWIDTH 670 0
DWIDTH 13 0
BBX 12 22 1 -5
BITMAP
000000485000
000003EB2000
00001C600000
0005ACCDB7C3
01AE50005EF3
0AF4000005F3
4FB0000000D3
9F6000000093
DF3000000000
EF2000000000
EF2000000000
DF3000000000
AF6000000000
5FB000000000
0BF400000035
01CE600017A1
0006BDCBA500
000008000000
00000AC60000
0000004E0000
0000205D0000
00005BC40000
ENDCHAR
STARTCHAR uni1E09
ENCODING 7689
SWIDTH 446 0
DWIDTH 9 0
BBX 9 19 0 -5
BITMAP
00002FC000
00009D1000
0001C20000
0000000000
003ACEC300
03E402EE10
0C90008F20
2F50000100
4F40000000
5F50000000
3F80000000
0EE1000340
07FC436B00
007DFE9100
0000900000
0000900000
0000CC6000
000006C000
0007BD5000
ENDCHAR
STARTCHAR uni1E0A
ENCODING 7690
SWIDTH 730 0
DWIDTH 15 0
BBX 14 18 0 0
BITMAP
00000011000000
000002FD000000
000001DB000000
00000000000000
3AFFEDEEB72000
007F80026EE600
005F800002DF50
005F8000004FD0
005F8000000DF4
005F8000000AF7
005F80000008F8
005F80000008F8
005F80000009F7
005F8000000BF4
005F8000001FD0
005F800000AF40
007F80003BE500
3AEFECCDC72000
ENDCHAR
STARTCHAR uni1E0B
ENCODING 7691
SWIDTH 539 0
DWIDTH 11 0
BBX 11 19 0 0
BITMAP
000002000000
00009F600000
00007E400000
000000000000
000000000000
0000018CD000
0000002DD000
0000000CD000
0000000CD000
0019CCCED000
01D7005FD000
0AC0000DD000
1F80000CD000
4F60000CD000
5F60000CD000
4F80000CD000
1FB0000CD000
08F6003ED000
008EDA7CE710
ENDCHAR
STARTCHAR uni1E0C
ENCODING 7692
SWIDTH 730 0
DWIDTH 15 0
BBX 14 18 0 -4
BITMAP
3AFFEDEEB72000
007F80026EE600
005F800002DF50
005F8000004FD0
005F8000000DF4
005F8000000AF7
005F80000008F8
005F80000008F8
005F80000009F7
005F8000000BF4
005F8000001FD0
005F800000AF40
007F80003BE500
3AEFECCDC72000
00000000000000
00000020000000
000008F7000000
000006E5000000
ENDCHAR
STARTCHAR uni1E0D
ENCODING 7693
SWIDTH 539 0
DWIDTH 11 0
BBX 11 18 0 -4
BITMAP
0000018CD000
0000002DD000
0000000CD000
0000000CD000
0019CCCED000
01D7005FD000
0AC0000DD000
1F80000CD000
4F60000CD000
5F60000CD000
4F80000CD000
1FB0000CD000
08F6003ED000
008EDA7CE710
000000000000
000002000000
00009F600000
00007E400000
ENDCHAR
STARTCHAR uni1E0E
ENCODING 7694
SWIDTH 730 0
DWIDTH 15 0
BBX 14 17 0 -3
BITMAP
3AFFEDEEB72000
007F80026EE600
005F800002DF50
005F8000004FD0
005F8000000DF4
005F8000000AF7
005F80000008F8
005F80000008F8
005F80000009F7
005F8000000BF4
005F8000001FD0
005F800000AF40
007F80003BE500
3AEFECCDC72000
00000000000000
00000000000000
0005CCCCC40000
ENDCHAR
STARTCHAR uni1E0F
ENCODING 7695
SWIDTH 539 0
DWIDTH 11 0
BBX 11 17 0 -3
BITMAP
0000018CD000
0000002DD000
0000000CD000
0000000CD000
0019CCCED000
01D7005FD000
0AC0000DD000
1F80000CD000
4F60000CD000
5F60000CD000
4F80000CD000
1FB0000CD000
08F6003ED000
008EDA7CE710
000000000000
000000000000
006CCCCC3000
ENDCHAR
ENDFONT
